SplineFontDB: 3.0
FontName: HoltwoodOneSC
FullName: Holtwood One SC
FamilyName: Holtwood One SC
Weight: Regular
Copyright: Copyright (c) 2011 by vernon adams. All rights reserved.
Version: 1.000
ItalicAngle: 0
UnderlinePosition: -103
UnderlineWidth: 102
Ascent: 1638
Descent: 410
sfntRevision: 0x00010000
LayerCount: 2
Layer: 0 1 "Back"  1
Layer: 1 1 "Fore"  0
XUID: [1021 759 1887733602 11144708]
FSType: 0
OS2Version: 2
OS2_WeightWidthSlopeOnly: 0
OS2_UseTypoMetrics: 1
CreationTime: 1301950740
ModificationTime: 1304081044
PfmFamily: 17
TTFWeight: 400
TTFWidth: 5
LineGap: 0
VLineGap: 0
Panose: 2 0 0 0 0 0 0 0 0 0
OS2TypoAscent: 2457
OS2TypoAOffset: 0
OS2TypoDescent: -876
OS2TypoDOffset: 0
OS2TypoLinegap: 0
OS2WinAscent: 2457
OS2WinAOffset: 0
OS2WinDescent: 876
OS2WinDOffset: 0
HheadAscent: 2457
HheadAOffset: 0
HheadDescent: -876
HheadDOffset: 0
OS2SubXSize: 1434
OS2SubYSize: 1331
OS2SubXOff: 0
OS2SubYOff: 287
OS2SupXSize: 1434
OS2SupYSize: 1331
OS2SupXOff: 0
OS2SupYOff: 977
OS2StrikeYSize: 102
OS2StrikeYPos: 512
OS2Vendor: 'newt'
OS2CodePages: 00000013.00000000
OS2UnicodeRanges: 8000006f.5000004b.00000000.00000000
Lookup: 258 0 0 "'kern' Horizontal Kerning in Latin lookup 0"  {"'kern' Horizontal Kerning in Latin lookup 0 per glyph data 0"  "'kern' Horizontal Kerning in Latin lookup 0 kerning class 1"  } ['kern' ('latn' <'dflt' > ) ]
MarkAttachClasses: 1
DEI: 91125
KernClass2: 62+ 46 "'kern' Horizontal Kerning in Latin lookup 0 kerning class 1" 
 6 period
 5 comma
 5 slash
 20 hyphen endash emdash
 24 quoteright quotedblright
 22 quoteleft quotedblleft
 9 backslash
 27 quotedblbase quotesinglbase
 12 questiondown
 9 trademark
 4 four
 20 quotesingle quotedbl
 8 asterisk
 9 ampersand
 15 R Racute Rcaron
 73 I M N Igrave Iacute Icircumflex Idieresis Ntilde Nacute Ncaron Idotaccent
 45 S Scaron Sacute Scommaaccent uni0218 Scedilla
 58 E OE Ecircumflex Edieresis Egrave Eacute AE Eogonek Ecaron
 19 D Eth Dcaron Dcroat
 1 B
 1 F
 15 L Lslash Lacute

StartChar: R
Encoding: 82 82 0
Width: 1840
Flags: MW
LayerCount: 2
Fore
SplineSet
1765 0 m 1,0,-1
 1129 0 l 1,1,2
 1099 57 1099 57 1067 121 c 128,-1,3
 1035 185 1035 185 1005 254 c 128,-1,4
 975 323 975 323 949 397 c 128,-1,5
 923 471 923 471 905 549 c 1,6,-1
 870 549 l 1,7,-1
 870 0 l 1,8,-1
 102 0 l 1,9,-1
 102 434 l 1,10,-1
 230 459 l 1,11,-1
 230 1077 l 1,12,-1
 102 1102 l 1,13,-1
 102 1536 l 1,14,-1
 973 1536 l 2,15,16
 1146 1536 1146 1536 1272 1520 c 128,-1,17
 1398 1504 1398 1504 1486 1474.5 c 128,-1,18
 1574 1445 1574 1445 1628.5 1402.5 c 128,-1,19
 1683 1360 1683 1360 1713.5 1306.5 c 128,-1,20
 1744 1253 1744 1253 1754.5 1189.5 c 128,-1,21
 1765 1126 1765 1126 1765 1055 c 0,22,23
 1765 983 1765 983 1751.5 924.5 c 128,-1,24
 1738 866 1738 866 1704 817 c 128,-1,25
 1670 768 1670 768 1611 727.5 c 128,-1,26
 1552 687 1552 687 1461 651 c 1,27,28
 1480 611 1480 611 1518 557.5 c 128,-1,29
 1556 504 1556 504 1600 448.5 c 128,-1,30
 1644 393 1644 393 1688.5 340.5 c 128,-1,31
 1733 288 1733 288 1765 251 c 1,32,-1
 1765 0 l 1,0,-1
870 844 m 1,33,34
 928 844 928 844 975.5 849 c 128,-1,35
 1023 854 1023 854 1056.5 872 c 128,-1,36
 1090 890 1090 890 1108 925 c 128,-1,37
 1126 960 1126 960 1126 1019 c 0,38,39
 1126 1077 1126 1077 1108 1111.5 c 128,-1,40
 1090 1146 1090 1146 1056.5 1165 c 128,-1,41
 1023 1184 1023 1184 975.5 1190 c 128,-1,42
 928 1196 928 1196 870 1196 c 1,43,-1
 870 844 l 1,33,34
EndSplineSet
Validated: 1
EndChar

StartChar: I
Encoding: 73 73 1
Width: 1100
Flags: MW
LayerCount: 2
Fore
SplineSet
102 1536 m 1,0,-1
 998 1536 l 1,1,-1
 998 1102 l 1,2,-1
 870 1077 l 1,3,-1
 870 459 l 1,4,-1
 998 434 l 1,5,-1
 998 0 l 1,6,-1
 102 0 l 1,7,-1
 102 434 l 1,8,-1
 230 459 l 1,9,-1
 230 1077 l 1,10,-1
 102 1102 l 1,11,-1
 102 1536 l 1,0,-1
EndSplineSet
Validated: 1
EndChar

StartChar: S
Encoding: 83 83 2
Width: 1495
Flags: MW
LayerCount: 2
Fore
SplineSet
1418 482 m 1,0,1
 1417 383 1417 383 1389.5 306.5 c 128,-1,2
 1362 230 1362 230 1313 174.5 c 128,-1,3
 1264 119 1264 119 1198 80.5 c 128,-1,4
 1132 42 1132 42 1056 18.5 c 128,-1,5
 980 -5 980 -5 896.5 -11.5 c 128,-1,6
 813 -18 813 -18 729 -18 c 0,7,8
 577 -18 577 -18 462 -6 c 0,9,10
 396 2 396 2 265 38 c 0,11,12
 158 67 158 67 97 99 c 1,13,-1
 97 494 l 1,14,-1
 398 494 l 1,15,16
 450 422 450 422 515.5 388 c 128,-1,17
 581 354 581 354 650 354 c 0,18,19
 668 354 668 354 690 357 c 128,-1,20
 712 360 712 360 731.5 374 c 128,-1,21
 751 388 751 388 764.5 418 c 128,-1,22
 778 448 778 448 778 502 c 1,23,24
 692 510 692 510 607.5 525 c 128,-1,25
 523 540 523 540 446 566 c 128,-1,26
 369 592 369 592 302.5 631.5 c 128,-1,27
 236 671 236 671 187.5 727 c 128,-1,28
 139 783 139 783 111.5 858.5 c 128,-1,29
 84 934 84 934 84 1033 c 0,30,31
 84 1139 84 1139 112 1219.5 c 128,-1,32
 140 1300 140 1300 188.5 1358.5 c 128,-1,33
 237 1417 237 1417 302.5 1455.5 c 128,-1,34
 368 1494 368 1494 443.5 1517 c 128,-1,35
 519 1540 519 1540 600.5 1546 c 128,-1,36
 682 1552 682 1552 763 1552 c 0,37,38
 881 1552 881 1552 975.5 1543.5 c 128,-1,39
 1070 1535 1070 1535 1146 1517 c 128,-1,40
 1222 1499 1222 1499 1280.5 1476.5 c 128,-1,41
 1339 1454 1339 1454 1385 1433 c 1,42,-1
 1385 1043 l 1,43,-1
 1084 1043 l 1,44,45
 1033 1115 1033 1115 970.5 1149 c 128,-1,46
 908 1183 908 1183 842 1183 c 0,47,48
 824 1183 824 1183 801 1178.5 c 128,-1,49
 778 1174 778 1174 758 1157.5 c 128,-1,50
 738 1141 738 1141 724 1109.5 c 128,-1,51
 710 1078 710 1078 710 1024 c 1,52,53
 885 1018 885 1018 1018 986 c 128,-1,54
 1151 954 1151 954 1239.5 889.5 c 128,-1,55
 1328 825 1328 825 1373 724.5 c 128,-1,56
 1418 624 1418 624 1418 482 c 1,0,1
EndSplineSet
Validated: 1
EndChar

StartChar: E
Encoding: 69 69 3
Width: 1493
Flags: MW
LayerCount: 2
Fore
SplineSet
870 384 m 1,0,1
 938 384 938 384 998 395.5 c 128,-1,2
 1058 407 1058 407 1108.5 425 c 128,-1,3
 1159 443 1159 443 1200 466 c 128,-1,4
 1241 489 1241 489 1272 512 c 1,5,-1
 1439 512 l 1,6,-1
 1439 0 l 1,7,-1
 102 0 l 1,8,-1
 102 434 l 1,9,-1
 230 459 l 1,10,-1
 230 1075 l 1,11,-1
 102 1100 l 1,12,-1
 102 1536 l 1,13,-1
 1439 1536 l 1,14,-1
 1439 1024 l 1,15,-1
 1278 1024 l 1,16,17
 1246 1046 1246 1046 1204 1069 c 128,-1,18
 1162 1092 1162 1092 1110.5 1110.5 c 128,-1,19
 1059 1129 1059 1129 999 1140.5 c 128,-1,20
 939 1152 939 1152 870 1152 c 1,21,-1
 870 879 l 1,22,-1
 1170 944 l 1,23,-1
 1170 590 l 1,24,-1
 870 655 l 1,25,-1
 870 384 l 1,0,1
EndSplineSet
Validated: 1
EndChar

StartChar: D
Encoding: 68 68 4
Width: 1959
Flags: MW
LayerCount: 2
Fore
SplineSet
1264 1536 m 1,0,1
 1409 1505 1409 1505 1525 1446.5 c 128,-1,2
 1641 1388 1641 1388 1722.5 1297 c 128,-1,3
 1804 1206 1804 1206 1847.5 1079.5 c 128,-1,4
 1891 953 1891 953 1891 786 c 0,5,6
 1891 565 1891 565 1817 414.5 c 128,-1,7
 1743 264 1743 264 1608.5 172 c 128,-1,8
 1474 80 1474 80 1285 40 c 128,-1,9
 1096 0 1096 0 867 0 c 2,10,-1
 99 0 l 1,11,-1
 99 434 l 1,12,-1
 227 459 l 1,13,-1
 227 1114 l 1,14,-1
 99 1139 l 1,15,-1
 99 1536 l 1,16,-1
 1264 1536 l 1,0,1
965 459 m 2,17,18
 1072 459 1072 459 1130 482.5 c 128,-1,19
 1188 506 1188 506 1214.5 549 c 128,-1,20
 1241 592 1241 592 1245.5 652 c 128,-1,21
 1250 712 1250 712 1250 786 c 256,22,23
 1250 860 1250 860 1245.5 920.5 c 128,-1,24
 1241 981 1241 981 1214.5 1024 c 128,-1,25
 1188 1067 1188 1067 1130 1090.5 c 128,-1,26
 1072 1114 1072 1114 965 1114 c 2,27,-1
 867 1114 l 1,28,-1
 867 459 l 1,29,-1
 965 459 l 2,17,18
EndSplineSet
Validated: 1
EndChar

StartChar: B
Encoding: 66 66 5
Width: 1832
Flags: MW
LayerCount: 2
Fore
SplineSet
1371 1536 m 1,0,1
 1529 1498 1529 1498 1606.5 1411 c 128,-1,2
 1684 1324 1684 1324 1684 1177 c 0,3,4
 1684 1079 1684 1079 1663 1012.5 c 128,-1,5
 1642 946 1642 946 1610 902.5 c 128,-1,6
 1578 859 1578 859 1540.5 835.5 c 128,-1,7
 1503 812 1503 812 1471 801 c 128,-1,8
 1439 790 1439 790 1416.5 788 c 128,-1,9
 1394 786 1394 786 1393 786 c 1,10,11
 1432 784 1432 784 1476.5 777 c 128,-1,12
 1521 770 1521 770 1565 755 c 128,-1,13
 1609 740 1609 740 1649 716 c 128,-1,14
 1689 692 1689 692 1719.5 656.5 c 128,-1,15
 1750 621 1750 621 1768 572 c 128,-1,16
 1786 523 1786 523 1786 459 c 0,17,18
 1786 361 1786 361 1761.5 277 c 128,-1,19
 1737 193 1737 193 1675.5 131.5 c 128,-1,20
 1614 70 1614 70 1508 35 c 128,-1,21
 1402 0 1402 0 1240 0 c 2,22,-1
 79 0 l 1,23,-1
 79 434 l 1,24,-1
 207 459 l 1,25,-1
 207 1114 l 1,26,-1
 79 1139 l 1,27,-1
 79 1536 l 1,28,-1
 1371 1536 l 1,0,1
1146 1044 m 0,29,30
 1146 1095 1146 1095 1128.5 1122.5 c 128,-1,31
 1111 1150 1111 1150 1082 1163 c 128,-1,32
 1053 1176 1053 1176 1016 1178 c 128,-1,33
 979 1180 979 1180 941 1180 c 2,34,-1
 847 1180 l 1,35,-1
 847 893 l 1,36,-1
 941 893 l 2,37,38
 979 893 979 893 1016 895.5 c 128,-1,39
 1053 898 1053 898 1082 912 c 128,-1,40
 1111 926 1111 926 1128.5 956.5 c 128,-1,41
 1146 987 1146 987 1146 1044 c 0,29,30
1146 545 m 0,42,43
 1146 596 1146 596 1128.5 623 c 128,-1,44
 1111 650 1111 650 1082 663 c 128,-1,45
 1053 676 1053 676 1016 678 c 128,-1,46
 979 680 979 680 941 680 c 2,47,-1
 847 680 l 1,48,-1
 847 393 l 1,49,-1
 941 393 l 2,50,51
 979 393 979 393 1016 395.5 c 128,-1,52
 1053 398 1053 398 1082 412 c 128,-1,53
 1111 426 1111 426 1128.5 457 c 128,-1,54
 1146 488 1146 488 1146 545 c 0,42,43
EndSplineSet
Validated: 1
EndChar

StartChar: period
Encoding: 46 46 6
Width: 847
Flags: MW
LayerCount: 2
Fore
SplineSet
103 512 m 1,0,-1
 743 512 l 1,1,-1
 743 0 l 1,2,-1
 103 0 l 1,3,-1
 103 512 l 1,0,-1
EndSplineSet
Validated: 1
EndChar

StartChar: F
Encoding: 70 70 7
Width: 1375
Flags: MW
LayerCount: 2
Fore
SplineSet
870 879 m 1,0,-1
 1142 944 l 1,1,-1
 1142 590 l 1,2,-1
 870 655 l 1,3,-1
 870 459 l 1,4,-1
 998 430 l 1,5,-1
 998 0 l 1,6,-1
 102 0 l 1,7,-1
 102 434 l 1,8,-1
 230 459 l 1,9,-1
 230 1075 l 1,10,-1
 102 1100 l 1,11,-1
 102 1536 l 1,12,-1
 1339 1536 l 1,13,-1
 1339 1024 l 1,14,-1
 1171 1024 l 1,15,16
 1147 1046 1147 1046 1116.5 1069 c 128,-1,17
 1086 1092 1086 1092 1048.5 1110.5 c 128,-1,18
 1011 1129 1011 1129 966.5 1140.5 c 128,-1,19
 922 1152 922 1152 870 1152 c 1,20,-1
 870 879 l 1,0,-1
EndSplineSet
Validated: 1
EndChar

StartChar: M
Encoding: 77 77 8
Width: 2380
Flags: MW
LayerCount: 2
Fore
SplineSet
869 749 m 1,0,-1
 869 0 l 1,1,-1
 102 0 l 1,2,-1
 102 434 l 1,3,-1
 230 459 l 1,4,-1
 230 1077 l 1,5,-1
 102 1102 l 1,6,-1
 102 1536 l 1,7,-1
 869 1536 l 1,8,-1
 1191 946 l 1,9,-1
 1510 1536 l 1,10,-1
 2278 1536 l 1,11,-1
 2278 1102 l 1,12,-1
 2150 1077 l 1,13,-1
 2150 459 l 1,14,-1
 2278 434 l 1,15,-1
 2278 0 l 1,16,-1
 1510 0 l 1,17,-1
 1510 749 l 1,18,-1
 1191 197 l 1,19,-1
 869 749 l 1,0,-1
EndSplineSet
Validated: 1
EndChar

StartChar: L
Encoding: 76 76 9
Width: 1356
Flags: MW
LayerCount: 2
Fore
SplineSet
870 384 m 1,0,1
 918 384 918 384 960 395.5 c 128,-1,2
 1002 407 1002 407 1038 425 c 128,-1,3
 1074 443 1074 443 1103.5 466 c 128,-1,4
 1133 489 1133 489 1155 512 c 1,5,-1
 1322 512 l 1,6,-1
 1322 0 l 1,7,-1
 102 0 l 1,8,-1
 102 434 l 1,9,-1
 230 459 l 1,10,-1
 230 1077 l 1,11,-1
 102 1102 l 1,12,-1
 102 1536 l 1,13,-1
 998 1536 l 1,14,-1
 998 1102 l 1,15,-1
 870 1077 l 1,16,-1
 870 384 l 1,0,1
EndSplineSet
Validated: 1
EndChar

StartChar: O
Encoding: 79 79 10
Width: 1920
Flags: MW
LayerCount: 2
Fore
SplineSet
959 -18 m 0,0,1
 837 -18 837 -18 723.5 -3 c 128,-1,2
 610 12 610 12 510.5 53 c 128,-1,3
 411 94 411 94 329 158.5 c 128,-1,4
 247 223 247 223 188 313.5 c 128,-1,5
 129 404 129 404 96.5 521.5 c 128,-1,6
 64 639 64 639 64 786 c 0,7,8
 64 924 64 924 96 1035 c 128,-1,9
 128 1146 128 1146 186 1232 c 128,-1,10
 244 1318 244 1318 325.5 1380 c 128,-1,11
 407 1442 407 1442 506.5 1481.5 c 128,-1,12
 606 1521 606 1521 720.5 1540 c 128,-1,13
 835 1559 835 1559 959 1559 c 256,14,15
 1083 1559 1083 1559 1198 1540 c 128,-1,16
 1313 1521 1313 1521 1413 1481 c 128,-1,17
 1513 1441 1513 1441 1594.5 1379 c 128,-1,18
 1676 1317 1676 1317 1734 1231 c 128,-1,19
 1792 1145 1792 1145 1824 1034.5 c 128,-1,20
 1856 924 1856 924 1856 786 c 0,21,22
 1856 570 1856 570 1785.5 415.5 c 128,-1,23
 1715 261 1715 261 1593 163 c 128,-1,24
 1471 65 1471 65 1308 23.5 c 128,-1,25
 1145 -18 1145 -18 959 -18 c 0,0,1
959 1102 m 256,26,27
 895 1102 895 1102 851.5 1085.5 c 128,-1,28
 808 1069 808 1069 779.5 1042 c 128,-1,29
 751 1015 751 1015 736 981 c 128,-1,30
 721 947 721 947 713.5 912 c 128,-1,31
 706 877 706 877 705 844 c 128,-1,32
 704 811 704 811 704 786 c 256,33,34
 704 761 704 761 705 728 c 128,-1,35
 706 695 706 695 713.5 659.5 c 128,-1,36
 721 624 721 624 736 589 c 128,-1,37
 751 554 751 554 779.5 526.5 c 128,-1,38
 808 499 808 499 851.5 482 c 128,-1,39
 895 465 895 465 959 465 c 256,40,41
 1023 465 1023 465 1066.5 482 c 128,-1,42
 1110 499 1110 499 1139 526.5 c 128,-1,43
 1168 554 1168 554 1183.5 589 c 128,-1,44
 1199 624 1199 624 1206 659.5 c 128,-1,45
 1213 695 1213 695 1214.5 728 c 128,-1,46
 1216 761 1216 761 1216 786 c 256,47,48
 1216 811 1216 811 1214.5 844 c 128,-1,49
 1213 877 1213 877 1206 912 c 128,-1,50
 1199 947 1199 947 1183.5 981 c 128,-1,51
 1168 1015 1168 1015 1139 1042 c 128,-1,52
 1110 1069 1110 1069 1066.5 1085.5 c 128,-1,53
 1023 1102 1023 1102 959 1102 c 256,26,27
EndSplineSet
Validated: 1
EndChar

StartChar: K
Encoding: 75 75 11
Width: 1976
Flags: MW
LayerCount: 2
Fore
SplineSet
1946 1290 m 1,0,1
 1898 1255 1898 1255 1852 1215 c 128,-1,2
 1806 1175 1806 1175 1764 1133 c 128,-1,3
 1722 1091 1722 1091 1684.5 1049 c 128,-1,4
 1647 1007 1647 1007 1616 968 c 0,5,6
 1578 922 1578 922 1544 877 c 128,-1,7
 1510 832 1510 832 1479 786 c 1,8,9
 1521 728 1521 728 1562.5 673.5 c 128,-1,10
 1604 619 1604 619 1646 565 c 0,11,12
 1681 520 1681 520 1719.5 472.5 c 128,-1,13
 1758 425 1758 425 1797 380 c 128,-1,14
 1836 335 1836 335 1873.5 295.5 c 128,-1,15
 1911 256 1911 256 1944 227 c 1,16,-1
 1945 0 l 1,17,-1
 1153 0 l 1,18,-1
 870 641 l 1,19,-1
 870 0 l 1,20,-1
 102 0 l 1,21,-1
 102 434 l 1,22,-1
 230 459 l 1,23,-1
 230 1077 l 1,24,-1
 102 1102 l 1,25,-1
 102 1536 l 1,26,-1
 870 1536 l 1,27,-1
 870 920 l 1,28,-1
 1153 1536 l 1,29,-1
 1945 1536 l 1,30,-1
 1946 1290 l 1,0,1
EndSplineSet
Validated: 1
EndChar

StartChar: Y
Encoding: 89 89 12
Width: 1943
Flags: MW
LayerCount: 2
Fore
SplineSet
488 0 m 1,0,-1
 488 432 l 1,1,-1
 616 464 l 1,2,-1
 177 1078 l 1,3,-1
 15 1102 l 1,4,-1
 15 1536 l 1,5,-1
 869 1536 l 1,6,-1
 869 1102 l 1,7,-1
 769 1078 l 1,8,-1
 972 764 l 1,9,-1
 1175 1078 l 1,10,-1
 1075 1102 l 1,11,-1
 1075 1536 l 1,12,-1
 1928 1536 l 1,13,-1
 1928 1102 l 1,14,-1
 1767 1078 l 1,15,-1
 1328 464 l 1,16,-1
 1456 432 l 1,17,-1
 1456 0 l 1,18,-1
 488 0 l 1,0,-1
EndSplineSet
Validated: 1
EndChar

StartChar: H
Encoding: 72 72 13
Width: 2252
Flags: MW
LayerCount: 2
Fore
SplineSet
102 1536 m 1,0,-1
 998 1536 l 1,1,-1
 998 1100 l 1,2,-1
 870 1075 l 1,3,-1
 870 886 l 1,4,-1
 1382 886 l 1,5,-1
 1382 1075 l 1,6,-1
 1254 1100 l 1,7,-1
 1254 1536 l 1,8,-1
 2150 1536 l 1,9,-1
 2150 1100 l 1,10,-1
 2022 1075 l 1,11,-1
 2022 459 l 1,12,-1
 2150 434 l 1,13,-1
 2150 0 l 1,14,-1
 1254 0 l 1,15,-1
 1254 434 l 1,16,-1
 1382 459 l 1,17,-1
 1382 660 l 1,18,-1
 870 660 l 1,19,-1
 870 459 l 1,20,-1
 998 434 l 1,21,-1
 998 0 l 1,22,-1
 102 0 l 1,23,-1
 102 434 l 1,24,-1
 230 459 l 1,25,-1
 230 1075 l 1,26,-1
 102 1100 l 1,27,-1
 102 1536 l 1,0,-1
EndSplineSet
Validated: 1
EndChar

StartChar: P
Encoding: 80 80 14
Width: 1794
Flags: MW
LayerCount: 2
Fore
SplineSet
102 1536 m 1,0,-1
 973 1536 l 2,1,2
 1143 1536 1143 1536 1268 1520.5 c 128,-1,3
 1393 1505 1393 1505 1481 1476 c 128,-1,4
 1569 1447 1569 1447 1624.5 1405 c 128,-1,5
 1680 1363 1680 1363 1711.5 1311 c 128,-1,6
 1743 1259 1743 1259 1754.5 1197 c 128,-1,7
 1766 1135 1766 1135 1766 1065 c 0,8,9
 1766 993 1766 993 1752.5 930 c 128,-1,10
 1739 867 1739 867 1703 814.5 c 128,-1,11
 1667 762 1667 762 1603.5 720 c 128,-1,12
 1540 678 1540 678 1440.5 649.5 c 128,-1,13
 1341 621 1341 621 1200.5 605.5 c 128,-1,14
 1060 590 1060 590 870 590 c 1,15,-1
 870 459 l 1,16,-1
 998 434 l 1,17,-1
 998 0 l 1,18,-1
 102 0 l 1,19,-1
 102 434 l 1,20,-1
 230 459 l 1,21,-1
 230 1077 l 1,22,-1
 102 1102 l 1,23,-1
 102 1536 l 1,0,-1
870 865 m 1,24,25
 928 865 928 865 975.5 871 c 128,-1,26
 1023 877 1023 877 1056.5 896.5 c 128,-1,27
 1090 916 1090 916 1108 953 c 128,-1,28
 1126 990 1126 990 1126 1053 c 0,29,30
 1126 1114 1126 1114 1108 1150.5 c 128,-1,31
 1090 1187 1090 1187 1056.5 1206 c 128,-1,32
 1023 1225 1023 1225 975.5 1231 c 128,-1,33
 928 1237 928 1237 870 1237 c 1,34,-1
 870 865 l 1,24,25
EndSplineSet
Validated: 1
EndChar

StartChar: N
Encoding: 78 78 15
Width: 1996
Flags: MW
LayerCount: 2
Fore
SplineSet
614 749 m 1,0,-1
 614 459 l 1,1,-1
 742 435 l 1,2,-1
 742 0 l 1,3,-1
 102 0 l 1,4,-1
 102 434 l 1,5,-1
 230 459 l 1,6,-1
 230 1077 l 1,7,-1
 102 1102 l 1,8,-1
 102 1536 l 1,9,-1
 870 1536 l 1,10,-1
 1382 749 l 1,11,-1
 1382 1075 l 1,12,-1
 1254 1102 l 1,13,-1
 1254 1536 l 1,14,-1
 1894 1536 l 1,15,-1
 1894 1102 l 1,16,-1
 1766 1077 l 1,17,-1
 1766 459 l 1,18,-1
 1894 434 l 1,19,-1
 1894 0 l 1,20,-1
 1125 0 l 1,21,-1
 614 749 l 1,0,-1
EndSplineSet
Validated: 1
EndChar

StartChar: A
Encoding: 65 65 17
Width: 1777
Flags: MW
LayerCount: 2
Fore
SplineSet
1151 0 m 1,0,-1
 1097 258 l 1,1,-1
 679 258 l 1,2,-1
 626 0 l 1,3,-1
 57 0 l 1,4,-1
 57 504 l 1,5,-1
 180 529 l 1,6,-1
 475 1536 l 1,7,-1
 1301 1536 l 1,8,-1
 1597 529 l 1,9,-1
 1720 504 l 1,10,-1
 1720 0 l 1,11,-1
 1151 0 l 1,0,-1
765 601 m 1,12,-1
 1011 601 l 1,13,-1
 888 1180 l 1,14,-1
 765 601 l 1,12,-1
EndSplineSet
Validated: 1
EndChar

StartChar: Q
Encoding: 81 81 18
Width: 1924
Flags: MW
LayerCount: 2
Fore
SplineSet
898 -459 m 1,0,1
 869 -427 869 -427 837.5 -384 c 128,-1,2
 806 -341 806 -341 774.5 -285.5 c 128,-1,3
 743 -230 743 -230 713.5 -161 c 128,-1,4
 684 -92 684 -92 661 -7 c 1,5,6
 530 24 530 24 420.5 86.5 c 128,-1,7
 311 149 311 149 232.5 246.5 c 128,-1,8
 154 344 154 344 110 478 c 128,-1,9
 66 612 66 612 66 786 c 0,10,11
 66 924 66 924 98 1035.5 c 128,-1,12
 130 1147 130 1147 188.5 1233 c 128,-1,13
 247 1319 247 1319 329 1380.5 c 128,-1,14
 411 1442 411 1442 510.5 1481.5 c 128,-1,15
 610 1521 610 1521 724 1540 c 128,-1,16
 838 1559 838 1559 961 1559 c 256,17,18
 1084 1559 1084 1559 1198 1540 c 128,-1,19
 1312 1521 1312 1521 1411.5 1481.5 c 128,-1,20
 1511 1442 1511 1442 1593.5 1380 c 128,-1,21
 1676 1318 1676 1318 1734.5 1232 c 128,-1,22
 1793 1146 1793 1146 1825.5 1035 c 128,-1,23
 1858 924 1858 924 1858 786 c 0,24,25
 1858 621 1858 621 1818.5 492 c 128,-1,26
 1779 363 1779 363 1707 267 c 128,-1,27
 1635 171 1635 171 1535 107 c 128,-1,28
 1435 43 1435 43 1315 7 c 1,29,30
 1363 -53 1363 -53 1411 -109.5 c 128,-1,31
 1459 -166 1459 -166 1494 -208 c 1,32,-1
 1494 -459 l 1,33,-1
 898 -459 l 1,0,1
961 1102 m 256,34,35
 897 1102 897 1102 853.5 1085.5 c 128,-1,36
 810 1069 810 1069 781.5 1042 c 128,-1,37
 753 1015 753 1015 738 981 c 128,-1,38
 723 947 723 947 715.5 912 c 128,-1,39
 708 877 708 877 707 844 c 128,-1,40
 706 811 706 811 706 786 c 256,41,42
 706 761 706 761 707 728 c 128,-1,43
 708 695 708 695 715.5 659.5 c 128,-1,44
 723 624 723 624 738 589 c 128,-1,45
 753 554 753 554 781.5 526.5 c 128,-1,46
 810 499 810 499 853.5 482 c 128,-1,47
 897 465 897 465 961 465 c 256,48,49
 1025 465 1025 465 1068.5 482 c 128,-1,50
 1112 499 1112 499 1141 526.5 c 128,-1,51
 1170 554 1170 554 1185.5 589 c 128,-1,52
 1201 624 1201 624 1208 659.5 c 128,-1,53
 1215 695 1215 695 1216.5 728 c 128,-1,54
 1218 761 1218 761 1218 786 c 256,55,56
 1218 811 1218 811 1216.5 844 c 128,-1,57
 1215 877 1215 877 1208 912 c 128,-1,58
 1201 947 1201 947 1185.5 981 c 128,-1,59
 1170 1015 1170 1015 1141 1042 c 128,-1,60
 1112 1069 1112 1069 1068.5 1085.5 c 128,-1,61
 1025 1102 1025 1102 961 1102 c 256,34,35
EndSplineSet
Validated: 1
EndChar

StartChar: T
Encoding: 84 84 19
Width: 1480
Flags: MW
LayerCount: 2
Fore
SplineSet
1444 1536 m 1,0,-1
 1444 1024 l 1,1,-1
 1276 1024 l 1,2,3
 1259 1046 1259 1046 1237 1069 c 128,-1,4
 1215 1092 1215 1092 1188 1110.5 c 128,-1,5
 1161 1129 1161 1129 1129 1140.5 c 128,-1,6
 1097 1152 1097 1152 1060 1152 c 1,7,-1
 1060 459 l 1,8,-1
 1188 434 l 1,9,-1
 1188 0 l 1,10,-1
 292 0 l 1,11,-1
 292 434 l 1,12,-1
 420 459 l 1,13,-1
 420 1152 l 1,14,15
 383 1152 383 1152 351 1140.5 c 128,-1,16
 319 1129 319 1129 292 1110.5 c 128,-1,17
 265 1092 265 1092 243 1069 c 128,-1,18
 221 1046 221 1046 204 1024 c 1,19,-1
 36 1024 l 1,20,-1
 36 1536 l 1,21,-1
 1444 1536 l 1,0,-1
EndSplineSet
Validated: 1
EndChar

StartChar: C
Encoding: 67 67 20
Width: 1636
Flags: MW
LayerCount: 2
Fore
SplineSet
706 786 m 0,0,1
 706 700 706 700 728 638 c 128,-1,2
 750 576 750 576 792.5 536 c 128,-1,3
 835 496 835 496 896.5 477 c 128,-1,4
 958 458 958 458 1037 458 c 0,5,6
 1131 458 1131 458 1259 481 c 128,-1,7
 1387 504 1387 504 1542 552 c 1,8,-1
 1542 84 l 1,9,10
 1381 30 1381 30 1228.5 6 c 128,-1,11
 1076 -18 1076 -18 928 -18 c 0,12,13
 747 -18 747 -18 589.5 27 c 128,-1,14
 432 72 432 72 315.5 172.5 c 128,-1,15
 199 273 199 273 132 426 c 128,-1,16
 65 579 65 579 65 786 c 0,17,18
 65 988 65 988 126.5 1134 c 128,-1,19
 188 1280 188 1280 300.5 1374.5 c 128,-1,20
 413 1469 413 1469 570.5 1514 c 128,-1,21
 728 1559 728 1559 920 1559 c 0,22,23
 1038 1559 1038 1559 1132.5 1547 c 128,-1,24
 1227 1535 1227 1535 1303 1517 c 128,-1,25
 1379 1499 1379 1499 1437.5 1476.5 c 128,-1,26
 1496 1454 1496 1454 1542 1433 c 1,27,-1
 1542 973 l 1,28,-1
 1241 973 l 1,29,30
 1190 1045 1190 1045 1127.5 1079 c 128,-1,31
 1065 1113 1065 1113 999 1113 c 0,32,33
 943 1113 943 1113 890.5 1091 c 128,-1,34
 838 1069 838 1069 797 1027 c 128,-1,35
 756 985 756 985 731 924.5 c 128,-1,36
 706 864 706 864 706 786 c 0,0,1
EndSplineSet
Validated: 1
EndChar

StartChar: G
Encoding: 71 71 21
Width: 1640
Flags: MW
LayerCount: 2
Fore
SplineSet
65 786 m 0,0,1
 65 995 65 995 125.5 1139 c 128,-1,2
 186 1283 186 1283 298 1375 c 0,3,4
 405 1463 405 1463 549 1511 c 128,-1,5
 693 1559 693 1559 880 1559 c 0,6,7
 1009 1559 1009 1559 1109 1548 c 128,-1,8
 1209 1537 1209 1537 1287.5 1519 c 128,-1,9
 1366 1501 1366 1501 1427.5 1478 c 128,-1,10
 1489 1455 1489 1455 1542 1430 c 1,11,-1
 1542 973 l 1,12,-1
 1241 973 l 1,13,14
 1190 1045 1190 1045 1127.5 1079 c 128,-1,15
 1065 1113 1065 1113 999 1113 c 0,16,17
 943 1113 943 1113 890.5 1091 c 128,-1,18
 838 1069 838 1069 797 1027 c 128,-1,19
 756 985 756 985 731 924.5 c 128,-1,20
 706 864 706 864 706 786 c 0,21,22
 706 613 706 613 784.5 533 c 128,-1,23
 863 453 863 453 1008 453 c 0,24,25
 1044 453 1044 453 1080.5 457 c 128,-1,26
 1117 461 1117 461 1154 469 c 1,27,-1
 1154 590 l 1,28,-1
 962 590 l 1,29,-1
 962 864 l 1,30,-1
 1584 864 l 1,31,-1
 1584 134 l 1,32,33
 1505 101 1505 101 1416.5 71.5 c 128,-1,34
 1328 42 1328 42 1239.5 20.5 c 128,-1,35
 1151 -1 1151 -1 1066 -9.5 c 128,-1,36
 981 -18 981 -18 909 -18 c 0,37,38
 791 -18 791 -18 683 -1 c 128,-1,39
 575 16 575 16 481.5 60 c 128,-1,40
 388 104 388 104 311 170.5 c 128,-1,41
 234 237 234 237 179.5 327.5 c 128,-1,42
 125 418 125 418 95 532.5 c 128,-1,43
 65 647 65 647 65 786 c 0,0,1
EndSplineSet
Validated: 1
EndChar

StartChar: U
Encoding: 85 85 22
Width: 1950
Flags: MW
LayerCount: 2
Fore
SplineSet
1758 1077 m 1,0,1
 1757 1045 1757 1045 1757 1014.5 c 128,-1,2
 1757 984 1757 984 1757 955 c 2,3,-1
 1757 786 l 2,4,5
 1757 574 1757 574 1699.5 420.5 c 128,-1,6
 1642 267 1642 267 1542.5 167.5 c 128,-1,7
 1443 68 1443 68 1310 25 c 128,-1,8
 1177 -18 1177 -18 1027 -18 c 0,9,10
 910 -18 910 -18 802.5 -2.5 c 128,-1,11
 695 13 695 13 602 55.5 c 128,-1,12
 509 98 509 98 433 163.5 c 128,-1,13
 357 229 357 229 302.5 319.5 c 128,-1,14
 248 410 248 410 218.5 526 c 128,-1,15
 189 642 189 642 189 786 c 2,16,-1
 189 1077 l 1,17,-1
 61 1102 l 1,18,-1
 61 1536 l 1,19,-1
 892 1536 l 1,20,-1
 892 1102 l 1,21,-1
 764 1077 l 1,22,-1
 764 948 l 2,23,24
 764 923 764 923 764 897.5 c 128,-1,25
 764 872 764 872 764.5 850 c 128,-1,26
 765 828 765 828 765 811 c 128,-1,27
 765 794 765 794 765 786 c 0,28,29
 765 761 765 761 766 728 c 128,-1,30
 767 695 767 695 774.5 659.5 c 128,-1,31
 782 624 782 624 797 589 c 128,-1,32
 812 554 812 554 840.5 526.5 c 128,-1,33
 869 499 869 499 912.5 482 c 128,-1,34
 956 465 956 465 1020 465 c 256,35,36
 1084 465 1084 465 1127.5 482 c 128,-1,37
 1171 499 1171 499 1200 526.5 c 128,-1,38
 1229 554 1229 554 1244.5 589 c 128,-1,39
 1260 624 1260 624 1267 659.5 c 128,-1,40
 1274 695 1274 695 1275.5 728 c 128,-1,41
 1277 761 1277 761 1277 786 c 0,42,43
 1277 794 1277 794 1277 811 c 128,-1,44
 1277 828 1277 828 1276.5 850 c 128,-1,45
 1276 872 1276 872 1276 897.5 c 128,-1,46
 1276 923 1276 923 1276 948 c 2,47,-1
 1276 1077 l 1,48,-1
 1148 1102 l 1,49,-1
 1148 1536 l 1,50,-1
 1886 1536 l 1,51,-1
 1886 1102 l 1,52,-1
 1758 1077 l 1,0,1
EndSplineSet
Validated: 1
EndChar

StartChar: J
Encoding: 74 74 23
Width: 1503
Flags: MW
LayerCount: 2
Fore
SplineSet
1310 640 m 2,0,1
 1310 466 1310 466 1259 340.5 c 128,-1,2
 1208 215 1208 215 1115 133 c 128,-1,3
 1022 51 1022 51 892 16.5 c 128,-1,4
 762 -18 762 -18 603 -18 c 0,5,6
 465 -18 465 -18 361.5 -3 c 128,-1,7
 258 12 258 12 183 36 c 1,8,9
 97 62 97 62 31 99 c 1,10,-1
 31 563 l 1,11,-1
 332 563 l 1,12,13
 370 491 370 491 421.5 457 c 128,-1,14
 473 423 473 423 524 423 c 0,15,16
 551 423 551 423 577.5 437 c 128,-1,17
 604 451 604 451 624.5 478.5 c 128,-1,18
 645 506 645 506 657.5 546.5 c 128,-1,19
 670 587 670 587 670 640 c 2,20,-1
 670 1077 l 1,21,-1
 542 1102 l 1,22,-1
 542 1536 l 1,23,-1
 1438 1536 l 1,24,-1
 1438 1102 l 1,25,-1
 1310 1077 l 1,26,-1
 1310 640 l 2,0,1
EndSplineSet
Validated: 1
EndChar

StartChar: V
Encoding: 86 86 24
Width: 1863
Flags: MW
LayerCount: 2
Fore
SplineSet
576 -1 m 1,0,-1
 167 1078 l 1,1,-1
 15 1102 l 1,2,-1
 15 1536 l 1,3,-1
 949 1536 l 1,4,-1
 949 1102 l 1,5,-1
 839 1078 l 1,6,-1
 1012 509 l 1,7,-1
 1185 1078 l 1,8,-1
 1075 1102 l 1,9,-1
 1075 1536 l 1,10,-1
 1848 1536 l 1,11,-1
 1848 1102 l 1,12,-1
 1697 1078 l 1,13,-1
 1288 -1 l 1,14,-1
 576 -1 l 1,0,-1
EndSplineSet
Validated: 1
EndChar

StartChar: W
Encoding: 87 87 25
Width: 2962
Flags: MW
LayerCount: 2
Fore
SplineSet
577 -1 m 1,0,-1
 168 1078 l 1,1,-1
 16 1102 l 1,2,-1
 16 1536 l 1,3,-1
 987 1536 l 1,4,-1
 987 1102 l 1,5,-1
 877 1078 l 1,6,-1
 1050 509 l 1,7,-1
 1223 1078 l 1,8,-1
 1113 1102 l 1,9,-1
 1113 1536 l 1,10,-1
 2084 1536 l 1,11,-1
 2084 1102 l 1,12,-1
 1974 1078 l 1,13,-1
 2147 509 l 1,14,-1
 2320 1078 l 1,15,-1
 2210 1102 l 1,16,-1
 2210 1536 l 1,17,-1
 2946 1536 l 1,18,-1
 2946 1102 l 1,19,-1
 2795 1078 l 1,20,-1
 2386 -1 l 1,21,-1
 1674 -1 l 1,22,-1
 1481 587 l 1,23,-1
 1289 -1 l 1,24,-1
 577 -1 l 1,0,-1
EndSplineSet
Validated: 1
EndChar

StartChar: X
Encoding: 88 88 26
Width: 2010
Flags: MW
LayerCount: 2
Fore
SplineSet
1825 458 m 1,0,-1
 1977 434 l 1,1,-1
 1977 0 l 1,2,-1
 963 0 l 1,3,-1
 963 434 l 1,4,-1
 1073 458 l 1,5,-1
 840 636 l 1,6,-1
 647 458 l 1,7,-1
 837 434 l 1,8,-1
 837 0 l 1,9,-1
 64 0 l 1,10,-1
 64 434 l 1,11,-1
 215 458 l 1,12,-1
 584 788 l 1,13,-1
 225 1078 l 1,14,-1
 43 1102 l 1,15,-1
 43 1536 l 1,16,-1
 1021 1536 l 1,17,-1
 1021 1102 l 1,18,-1
 911 1078 l 1,19,-1
 1170 890 l 1,20,-1
 1343 1078 l 1,21,-1
 1156 1102 l 1,22,-1
 1156 1536 l 1,23,-1
 1926 1536 l 1,24,-1
 1926 1102 l 1,25,-1
 1745 1078 l 1,26,-1
 1446 768 l 1,27,-1
 1825 458 l 1,0,-1
EndSplineSet
Validated: 1
EndChar

StartChar: comma
Encoding: 44 44 27
Width: 848
Flags: MW
LayerCount: 2
Fore
SplineSet
104 512 m 1,0,-1
 744 512 l 1,1,-1
 744 1 l 2,2,3
 744 -126 744 -126 700 -212.5 c 128,-1,4
 656 -299 656 -299 584 -352.5 c 128,-1,5
 512 -406 512 -406 420 -429 c 128,-1,6
 328 -452 328 -452 232 -452 c 1,7,-1
 232 -128 l 1,8,9
 251 -127 251 -127 273 -121 c 128,-1,10
 295 -115 295 -115 314 -101 c 128,-1,11
 333 -87 333 -87 346 -62.5 c 128,-1,12
 359 -38 359 -38 359 0 c 1,13,-1
 104 0 l 1,14,-1
 104 512 l 1,0,-1
EndSplineSet
Validated: 1
EndChar

StartChar: one
Encoding: 49 49 28
Width: 1048
Flags: MW
LayerCount: 2
Fore
SplineSet
98 1458 m 1,0,-1
 866 1536 l 1,1,-1
 866 424 l 1,2,-1
 994 399 l 1,3,-1
 994 0 l 1,4,-1
 98 0 l 1,5,-1
 98 399 l 1,6,-1
 226 424 l 1,7,-1
 226 1024 l 1,8,-1
 98 1024 l 1,9,-1
 98 1458 l 1,0,-1
EndSplineSet
Validated: 1
EndChar

StartChar: zero
Encoding: 48 48 29
Width: 1797
Flags: MW
LayerCount: 2
Fore
SplineSet
898 -29 m 0,0,1
 784 -29 784 -29 678 -9 c 128,-1,2
 572 11 572 11 479 52.5 c 128,-1,3
 386 94 386 94 309.5 159.5 c 128,-1,4
 233 225 233 225 178 315.5 c 128,-1,5
 123 406 123 406 93 523 c 128,-1,6
 63 640 63 640 63 786 c 0,7,8
 63 985 63 985 127 1130.5 c 128,-1,9
 191 1276 191 1276 303 1371 c 128,-1,10
 415 1466 415 1466 567.5 1512.5 c 128,-1,11
 720 1559 720 1559 898 1559 c 0,12,13
 1012 1559 1012 1559 1118.5 1540 c 128,-1,14
 1225 1521 1225 1521 1318 1480.5 c 128,-1,15
 1411 1440 1411 1440 1487.5 1378 c 128,-1,16
 1564 1316 1564 1316 1619 1230 c 128,-1,17
 1674 1144 1674 1144 1704 1033.5 c 128,-1,18
 1734 923 1734 923 1734 786 c 0,19,20
 1734 570 1734 570 1668.5 415.5 c 128,-1,21
 1603 261 1603 261 1489.5 162 c 128,-1,22
 1376 63 1376 63 1223.5 17 c 128,-1,23
 1071 -29 1071 -29 898 -29 c 0,0,1
898 1102 m 256,24,25
 849 1102 849 1102 815.5 1085.5 c 128,-1,26
 782 1069 782 1069 760.5 1042 c 128,-1,27
 739 1015 739 1015 727.5 981 c 128,-1,28
 716 947 716 947 710.5 912 c 128,-1,29
 705 877 705 877 704 844 c 128,-1,30
 703 811 703 811 703 786 c 256,31,32
 703 761 703 761 704 728 c 128,-1,33
 705 695 705 695 710.5 659.5 c 128,-1,34
 716 624 716 624 727.5 589 c 128,-1,35
 739 554 739 554 760.5 526.5 c 128,-1,36
 782 499 782 499 815.5 482 c 128,-1,37
 849 465 849 465 898 465 c 256,38,39
 947 465 947 465 980.5 482 c 128,-1,40
 1014 499 1014 499 1035.5 526.5 c 128,-1,41
 1057 554 1057 554 1069 589 c 128,-1,42
 1081 624 1081 624 1086.5 659.5 c 128,-1,43
 1092 695 1092 695 1093 728 c 128,-1,44
 1094 761 1094 761 1094 786 c 256,45,46
 1094 811 1094 811 1093 844 c 128,-1,47
 1092 877 1092 877 1086.5 912 c 128,-1,48
 1081 947 1081 947 1069 981 c 128,-1,49
 1057 1015 1057 1015 1035.5 1042 c 128,-1,50
 1014 1069 1014 1069 980.5 1085.5 c 128,-1,51
 947 1102 947 1102 898 1102 c 256,24,25
EndSplineSet
Validated: 1
EndChar

StartChar: a
Encoding: 97 97 30
Width: 1667
Flags: MW
LayerCount: 2
Fore
SplineSet
1080 0 m 1,0,-1
 1030 237 l 1,1,-1
 637 237 l 1,2,-1
 587 0 l 1,3,-1
 52 0 l 1,4,-1
 52 464 l 1,5,-1
 168 487 l 1,6,-1
 445 1408 l 1,7,-1
 1221 1408 l 1,8,-1
 1500 487 l 1,9,-1
 1615 464 l 1,10,-1
 1615 0 l 1,11,-1
 1080 0 l 1,0,-1
698 553 m 1,12,-1
 969 553 l 1,13,-1
 833 1106 l 1,14,-1
 698 553 l 1,12,-1
EndSplineSet
Validated: 1
EndChar

StartChar: b
Encoding: 98 98 31
Width: 1742
Flags: MW
LayerCount: 2
Fore
SplineSet
1308 1408 m 1,0,1
 1456 1373 1456 1373 1529.5 1295 c 128,-1,2
 1603 1217 1603 1217 1603 1083 c 0,3,4
 1603 993 1603 993 1583 931 c 128,-1,5
 1563 869 1563 869 1532.5 829 c 128,-1,6
 1502 789 1502 789 1466.5 767.5 c 128,-1,7
 1431 746 1431 746 1400.5 736 c 128,-1,8
 1370 726 1370 726 1349.5 724.5 c 128,-1,9
 1329 723 1329 723 1329 723 c 1,10,11
 1365 721 1365 721 1407 714.5 c 128,-1,12
 1449 708 1449 708 1490 694.5 c 128,-1,13
 1531 681 1531 681 1569 659.5 c 128,-1,14
 1607 638 1607 638 1635.5 605 c 128,-1,15
 1664 572 1664 572 1681.5 527 c 128,-1,16
 1699 482 1699 482 1699 422 c 0,17,18
 1699 332 1699 332 1676 254.5 c 128,-1,19
 1653 177 1653 177 1594.5 120.5 c 128,-1,20
 1536 64 1536 64 1437 32 c 128,-1,21
 1338 0 1338 0 1185 0 c 2,22,-1
 94 0 l 1,23,-1
 94 399 l 1,24,-1
 214 422 l 1,25,-1
 214 1025 l 1,26,-1
 94 1048 l 1,27,-1
 94 1408 l 1,28,-1
 1308 1408 l 1,0,1
1097 970 m 0,29,30
 1097 1021 1097 1021 1080.5 1048.5 c 128,-1,31
 1064 1076 1064 1076 1036.5 1089 c 128,-1,32
 1009 1102 1009 1102 974.5 1104 c 128,-1,33
 940 1106 940 1106 904 1106 c 2,34,-1
 816 1106 l 1,35,-1
 816 822 l 1,36,-1
 904 822 l 2,37,38
 940 822 940 822 974.5 824.5 c 128,-1,39
 1009 827 1009 827 1036.5 840.5 c 128,-1,40
 1064 854 1064 854 1080.5 884 c 128,-1,41
 1097 914 1097 914 1097 970 c 0,29,30
1097 491 m 0,42,43
 1097 542 1097 542 1080.5 569 c 128,-1,44
 1064 596 1064 596 1036.5 609 c 128,-1,45
 1009 622 1009 622 974.5 624 c 128,-1,46
 940 626 940 626 904 626 c 2,47,-1
 816 626 l 1,48,-1
 816 342 l 1,49,-1
 904 342 l 2,50,51
 940 342 940 342 974.5 344.5 c 128,-1,52
 1009 347 1009 347 1036.5 361 c 128,-1,53
 1064 375 1064 375 1080.5 405 c 128,-1,54
 1097 435 1097 435 1097 491 c 0,42,43
EndSplineSet
Validated: 1
EndChar

StartChar: c
Encoding: 99 99 32
Width: 1537
Flags: MW
LayerCount: 2
Fore
SplineSet
664 723 m 0,0,1
 664 564 664 564 745 491.5 c 128,-1,2
 826 419 826 419 975 419 c 0,3,4
 1063 419 1063 419 1181.5 441 c 128,-1,5
 1300 463 1300 463 1449 508 c 1,6,-1
 1449 73 l 1,7,8
 1149 -18 1149 -18 872 -18 c 4,9,10
 700 -18 700 -18 552 22.5 c 128,-1,11
 404 63 404 63 295 156 c 128,-1,12
 186 249 186 249 123.5 390.5 c 128,-1,13
 61 532 61 532 61 723 c 0,14,15
 61 912 61 912 118.5 1048.5 c 128,-1,16
 176 1185 176 1185 281.5 1273.5 c 128,-1,17
 387 1362 387 1362 535 1404 c 128,-1,18
 683 1446 683 1446 865 1446 c 0,19,20
 976 1446 976 1446 1065.5 1435 c 128,-1,21
 1155 1424 1155 1424 1226.5 1407 c 128,-1,22
 1298 1390 1298 1390 1352.5 1369.5 c 128,-1,23
 1407 1349 1407 1349 1449 1330 c 1,24,-1
 1449 895 l 1,25,-1
 1166 895 l 1,26,27
 1118 961 1118 961 1060 992.5 c 128,-1,28
 1002 1024 1002 1024 939 1024 c 0,29,30
 887 1024 887 1024 837.5 1004 c 128,-1,31
 788 984 788 984 749.5 945.5 c 128,-1,32
 711 907 711 907 687.5 851 c 128,-1,33
 664 795 664 795 664 723 c 0,0,1
EndSplineSet
Validated: 1
EndChar

StartChar: d
Encoding: 100 100 33
Width: 1841
Flags: MW
LayerCount: 2
Fore
SplineSet
1189 1408 m 1,0,1
 1325 1379 1325 1379 1434 1326 c 128,-1,2
 1543 1273 1543 1273 1619.5 1190.5 c 128,-1,3
 1696 1108 1696 1108 1737 992.5 c 128,-1,4
 1778 877 1778 877 1778 723 c 0,5,6
 1778 588 1778 588 1746.5 481.5 c 128,-1,7
 1715 375 1715 375 1656.5 294.5 c 128,-1,8
 1598 214 1598 214 1513 158 c 128,-1,9
 1428 102 1428 102 1321.5 67 c 128,-1,10
 1215 32 1215 32 1087.5 16 c 128,-1,11
 960 0 960 0 816 0 c 2,12,-1
 94 0 l 1,13,-1
 94 399 l 1,14,-1
 214 422 l 1,15,-1
 214 1025 l 1,16,-1
 94 1048 l 1,17,-1
 94 1408 l 1,18,-1
 1189 1408 l 1,0,1
908 422 m 2,19,20
 975 422 975 422 1021 432 c 128,-1,21
 1067 442 1067 442 1096.5 460 c 128,-1,22
 1126 478 1126 478 1142.5 505 c 128,-1,23
 1159 532 1159 532 1166.5 565 c 128,-1,24
 1174 598 1174 598 1175 638 c 128,-1,25
 1176 678 1176 678 1176 723 c 256,26,27
 1176 768 1176 768 1175 808 c 128,-1,28
 1174 848 1174 848 1166.5 881.5 c 128,-1,29
 1159 915 1159 915 1142.5 941.5 c 128,-1,30
 1126 968 1126 968 1096.5 986.5 c 128,-1,31
 1067 1005 1067 1005 1021 1015 c 128,-1,32
 975 1025 975 1025 908 1025 c 2,33,-1
 816 1025 l 1,34,-1
 816 422 l 1,35,-1
 908 422 l 2,19,20
EndSplineSet
Validated: 1
EndChar

StartChar: e
Encoding: 101 101 34
Width: 1395
Flags: MW
LayerCount: 2
Fore
SplineSet
818 789 m 1,0,-1
 1095 848 l 1,1,-1
 1095 563 l 1,2,-1
 818 623 l 1,3,-1
 818 402 l 1,4,5
 878 402 878 402 934 410.5 c 128,-1,6
 990 419 990 419 1038 434 c 128,-1,7
 1086 449 1086 449 1126 469 c 128,-1,8
 1166 489 1166 489 1195 512 c 1,9,-1
 1332 512 l 1,10,-1
 1332 0 l 1,11,-1
 96 0 l 1,12,-1
 96 399 l 1,13,-1
 216 422 l 1,14,-1
 216 989 l 1,15,-1
 96 1012 l 1,16,-1
 96 1408 l 1,17,-1
 1332 1408 l 1,18,-1
 1332 896 l 1,19,-1
 1195 896 l 1,20,21
 1166 918 1166 918 1126 938 c 128,-1,22
 1086 958 1086 958 1038 973 c 128,-1,23
 990 988 990 988 934 997 c 128,-1,24
 878 1006 878 1006 818 1006 c 1,25,-1
 818 789 l 1,0,-1
EndSplineSet
Validated: 1
EndChar

StartChar: f
Encoding: 102 102 35
Width: 1300
Flags: MW
LayerCount: 2
Fore
SplineSet
818 759 m 1,0,-1
 1074 818 l 1,1,-1
 1074 513 l 1,2,-1
 818 573 l 1,3,-1
 818 422 l 1,4,-1
 938 396 l 1,5,-1
 938 0 l 1,6,-1
 96 0 l 1,7,-1
 96 399 l 1,8,-1
 216 422 l 1,9,-1
 216 989 l 1,10,-1
 96 1012 l 1,11,-1
 96 1408 l 1,12,-1
 1259 1408 l 1,13,-1
 1259 896 l 1,14,-1
 1092 896 l 1,15,16
 1049 941 1049 941 979 973.5 c 128,-1,17
 909 1006 909 1006 818 1006 c 1,18,-1
 818 759 l 1,0,-1
EndSplineSet
Validated: 1
EndChar

StartChar: g
Encoding: 103 103 36
Width: 1539
Flags: MW
LayerCount: 2
Fore
SplineSet
61 723 m 0,0,1
 61 911 61 911 118 1047.5 c 128,-1,2
 175 1184 175 1184 280 1272.5 c 128,-1,3
 385 1361 385 1361 533.5 1403.5 c 128,-1,4
 682 1446 682 1446 865 1446 c 0,5,6
 976 1446 976 1446 1065.5 1435 c 128,-1,7
 1155 1424 1155 1424 1226.5 1407 c 128,-1,8
 1298 1390 1298 1390 1352.5 1369.5 c 128,-1,9
 1407 1349 1407 1349 1449 1330 c 1,10,-1
 1449 895 l 1,11,-1
 1166 895 l 1,12,13
 1143 928 1143 928 1120.5 952.5 c 128,-1,14
 1098 977 1098 977 1072 992.5 c 128,-1,15
 1046 1008 1046 1008 1014 1016 c 128,-1,16
 982 1024 982 1024 939 1024 c 0,17,18
 887 1024 887 1024 837.5 1008.5 c 128,-1,19
 788 993 788 993 749.5 957.5 c 128,-1,20
 711 922 711 922 687.5 864.5 c 128,-1,21
 664 807 664 807 664 723 c 0,22,23
 664 625 664 625 683 562.5 c 128,-1,24
 702 500 702 500 738 463.5 c 128,-1,25
 774 427 774 427 826.5 413 c 128,-1,26
 879 399 879 399 947 399 c 0,27,28
 983 399 983 399 1021.5 404 c 128,-1,29
 1060 409 1060 409 1105 423 c 1,30,-1
 1105 537 l 1,31,-1
 904 537 l 1,32,-1
 904 783 l 1,33,-1
 1489 783 l 1,34,-1
 1489 119 l 1,35,36
 1415 88 1415 88 1332 61 c 128,-1,37
 1249 34 1249 34 1165.5 14 c 128,-1,38
 1082 -6 1082 -6 1002 -12 c 128,-1,39
 922 -18 922 -18 854 -18 c 0,40,41
 687 -18 687 -18 542 22 c 128,-1,42
 397 62 397 62 290 155 c 128,-1,43
 183 248 183 248 122 389.5 c 128,-1,44
 61 531 61 531 61 723 c 0,0,1
EndSplineSet
Validated: 1
EndChar

StartChar: h
Encoding: 104 104 37
Width: 2117
Flags: MW
LayerCount: 2
Fore
SplineSet
96 1408 m 1,0,-1
 938 1408 l 1,1,-1
 938 1012 l 1,2,-1
 818 989 l 1,3,-1
 818 824 l 1,4,-1
 1299 824 l 1,5,-1
 1299 989 l 1,6,-1
 1179 1012 l 1,7,-1
 1179 1413 l 1,8,-1
 2021 1413 l 1,9,-1
 2021 1012 l 1,10,-1
 1901 989 l 1,11,-1
 1901 422 l 1,12,-1
 2021 399 l 1,13,-1
 2021 0 l 1,14,-1
 1179 0 l 1,15,-1
 1179 399 l 1,16,-1
 1299 422 l 1,17,-1
 1299 589 l 1,18,-1
 818 589 l 1,19,-1
 818 422 l 1,20,-1
 938 399 l 1,21,-1
 938 0 l 1,22,-1
 96 0 l 1,23,-1
 96 399 l 1,24,-1
 216 422 l 1,25,-1
 216 989 l 1,26,-1
 96 1012 l 1,27,-1
 96 1408 l 1,0,-1
EndSplineSet
Validated: 1
EndChar

StartChar: i
Encoding: 105 105 38
Width: 1036
Flags: MW
LayerCount: 2
Fore
SplineSet
97 1408 m 1,0,-1
 939 1408 l 1,1,-1
 939 1014 l 1,2,-1
 819 991 l 1,3,-1
 819 422 l 1,4,-1
 939 399 l 1,5,-1
 939 0 l 1,6,-1
 97 0 l 1,7,-1
 97 399 l 1,8,-1
 217 422 l 1,9,-1
 217 991 l 1,10,-1
 97 1014 l 1,11,-1
 97 1408 l 1,0,-1
EndSplineSet
Validated: 1
EndChar

StartChar: j
Encoding: 106 106 39
Width: 1413
Flags: MW
LayerCount: 2
Fore
SplineSet
1232 589 m 2,0,1
 1232 429 1232 429 1185 312.5 c 128,-1,2
 1138 196 1138 196 1051 120 c 128,-1,3
 964 44 964 44 841.5 13 c 128,-1,4
 719 -18 719 -18 568 -18 c 0,5,6
 463 -18 463 -18 380 -12.5 c 128,-1,7
 297 -7 297 -7 232 10 c 128,-1,8
 167 27 167 27 117 47.5 c 128,-1,9
 67 68 67 68 30 87 c 1,10,-1
 30 518 l 1,11,-1
 313 518 l 1,12,13
 349 452 349 452 397 420.5 c 128,-1,14
 445 389 445 389 493 389 c 0,15,16
 518 389 518 389 543 402 c 128,-1,17
 568 415 568 415 587.5 440.5 c 128,-1,18
 607 466 607 466 619 503 c 128,-1,19
 631 540 631 540 631 589 c 2,20,-1
 631 991 l 1,21,-1
 510 1014 l 1,22,-1
 510 1408 l 1,23,-1
 1353 1408 l 1,24,-1
 1353 1014 l 1,25,-1
 1232 991 l 1,26,-1
 1232 589 l 2,0,1
EndSplineSet
Validated: 1
EndChar

StartChar: k
Encoding: 107 107 40
Width: 1768
Flags: MW
LayerCount: 2
Fore
SplineSet
1760 0 m 1,0,-1
 1085 0 l 1,1,-1
 819 590 l 1,2,-1
 819 0 l 1,3,-1
 97 0 l 1,4,-1
 97 399 l 1,5,-1
 217 422 l 1,6,-1
 217 991 l 1,7,-1
 97 1014 l 1,8,-1
 97 1408 l 1,9,-1
 819 1408 l 1,10,-1
 819 846 l 1,11,-1
 1085 1408 l 1,12,-1
 1733 1408 l 1,13,-1
 1733 1154 l 1,14,15
 1674 1104 1674 1104 1623.5 1049 c 128,-1,16
 1573 994 1573 994 1529 938 c 128,-1,17
 1485 882 1485 882 1448 828 c 128,-1,18
 1411 774 1411 774 1381 725 c 1,19,20
 1420 663 1420 663 1464 595.5 c 128,-1,21
 1508 528 1508 528 1555.5 460 c 128,-1,22
 1603 392 1603 392 1654.5 326.5 c 128,-1,23
 1706 261 1706 261 1760 204 c 1,24,-1
 1760 0 l 1,0,-1
EndSplineSet
Validated: 1
EndChar

StartChar: l
Encoding: 108 108 41
Width: 1279
Flags: MW
LayerCount: 2
Fore
SplineSet
818 384 m 1,0,1
 860 384 860 384 898 395.5 c 128,-1,2
 936 407 936 407 968.5 425.5 c 128,-1,3
 1001 444 1001 444 1027.5 466.5 c 128,-1,4
 1054 489 1054 489 1074 512 c 1,5,-1
 1241 512 l 1,6,-1
 1241 0 l 1,7,-1
 97 0 l 1,8,-1
 97 399 l 1,9,-1
 217 422 l 1,10,-1
 217 991 l 1,11,-1
 97 1014 l 1,12,-1
 97 1408 l 1,13,-1
 939 1408 l 1,14,-1
 939 1014 l 1,15,-1
 818 991 l 1,16,-1
 818 384 l 1,0,1
EndSplineSet
Validated: 1
EndChar

StartChar: m
Encoding: 109 109 42
Width: 2239
Flags: MW
LayerCount: 2
Fore
SplineSet
818 689 m 1,0,-1
 818 0 l 1,1,-1
 97 0 l 1,2,-1
 97 399 l 1,3,-1
 217 422 l 1,4,-1
 217 991 l 1,5,-1
 97 1014 l 1,6,-1
 97 1408 l 1,7,-1
 818 1408 l 1,8,-1
 1121 870 l 1,9,-1
 1421 1408 l 1,10,-1
 2142 1408 l 1,11,-1
 2142 1014 l 1,12,-1
 2022 991 l 1,13,-1
 2022 422 l 1,14,-1
 2142 399 l 1,15,-1
 2142 0 l 1,16,-1
 1421 0 l 1,17,-1
 1421 689 l 1,18,-1
 1121 181 l 1,19,-1
 818 689 l 1,0,-1
EndSplineSet
Validated: 1
EndChar

StartChar: n
Encoding: 110 110 43
Width: 1878
Flags: MW
LayerCount: 2
Fore
SplineSet
578 739 m 1,0,-1
 578 422 l 1,1,-1
 699 400 l 1,2,-1
 699 0 l 1,3,-1
 97 0 l 1,4,-1
 97 399 l 1,5,-1
 217 422 l 1,6,-1
 217 991 l 1,7,-1
 97 1014 l 1,8,-1
 97 1408 l 1,9,-1
 819 1408 l 1,10,-1
 1300 649 l 1,11,-1
 1300 989 l 1,12,-1
 1180 1014 l 1,13,-1
 1180 1408 l 1,14,-1
 1781 1408 l 1,15,-1
 1781 1014 l 1,16,-1
 1661 991 l 1,17,-1
 1661 422 l 1,18,-1
 1781 399 l 1,19,-1
 1781 0 l 1,20,-1
 1059 0 l 1,21,-1
 578 739 l 1,0,-1
EndSplineSet
Validated: 1
EndChar

StartChar: o
Encoding: 111 111 44
Width: 1803
Flags: MW
LayerCount: 2
Fore
SplineSet
901 -18 m 0,0,1
 725 -18 725 -18 571.5 19.5 c 128,-1,2
 418 57 418 57 304.5 148.5 c 128,-1,3
 191 240 191 240 125.5 382 c 128,-1,4
 60 524 60 524 60 723 c 0,5,6
 60 918 60 918 125.5 1055.5 c 128,-1,7
 191 1193 191 1193 305 1279.5 c 128,-1,8
 419 1366 419 1366 572 1406 c 128,-1,9
 725 1446 725 1446 901 1446 c 0,10,11
 1076 1446 1076 1446 1229.5 1406 c 128,-1,12
 1383 1366 1383 1366 1497.5 1279.5 c 128,-1,13
 1612 1193 1612 1193 1678 1055.5 c 128,-1,14
 1744 918 1744 918 1744 723 c 0,15,16
 1744 591 1744 591 1714 483.5 c 128,-1,17
 1684 376 1684 376 1629.5 292.5 c 128,-1,18
 1575 209 1575 209 1498.5 148.5 c 128,-1,19
 1422 88 1422 88 1328 48.5 c 128,-1,20
 1234 9 1234 9 1126 -4.5 c 128,-1,21
 1018 -18 1018 -18 901 -18 c 0,0,1
901 1020 m 0,22,23
 842 1020 842 1020 801.5 1005 c 128,-1,24
 761 990 761 990 734.5 966 c 128,-1,25
 708 942 708 942 693 911 c 128,-1,26
 678 880 678 880 671.5 847.5 c 128,-1,27
 665 815 665 815 663.5 783.5 c 128,-1,28
 662 752 662 752 662 728 c 0,29,30
 662 705 662 705 663 673.5 c 128,-1,31
 664 642 664 642 670 607.5 c 128,-1,32
 676 573 676 573 690 539 c 128,-1,33
 704 505 704 505 730.5 478 c 128,-1,34
 757 451 757 451 798.5 434.5 c 128,-1,35
 840 418 840 418 901 418 c 0,36,37
 961 418 961 418 1002.5 434 c 128,-1,38
 1044 450 1044 450 1070.5 476.5 c 128,-1,39
 1097 503 1097 503 1112 536 c 128,-1,40
 1127 569 1127 569 1133.5 602.5 c 128,-1,41
 1140 636 1140 636 1141.5 668 c 128,-1,42
 1143 700 1143 700 1143 723 c 0,43,44
 1143 747 1143 747 1141.5 778.5 c 128,-1,45
 1140 810 1140 810 1133.5 843 c 128,-1,46
 1127 876 1127 876 1112 907.5 c 128,-1,47
 1097 939 1097 939 1070.5 964 c 128,-1,48
 1044 989 1044 989 1002.5 1004.5 c 128,-1,49
 961 1020 961 1020 901 1020 c 0,22,23
EndSplineSet
Validated: 1
EndChar

StartChar: p
Encoding: 112 112 45
Width: 1690
Flags: MW
LayerCount: 2
Fore
SplineSet
97 1408 m 1,0,-1
 916 1408 l 2,1,2
 1076 1408 1076 1408 1193.5 1394 c 128,-1,3
 1311 1380 1311 1380 1393.5 1354 c 128,-1,4
 1476 1328 1476 1328 1528.5 1290 c 128,-1,5
 1581 1252 1581 1252 1610.5 1204.5 c 128,-1,6
 1640 1157 1640 1157 1650.5 1100.5 c 128,-1,7
 1661 1044 1661 1044 1661 980 c 0,8,9
 1661 914 1661 914 1648.5 856 c 128,-1,10
 1636 798 1636 798 1602 749.5 c 128,-1,11
 1568 701 1568 701 1508.5 662.5 c 128,-1,12
 1449 624 1449 624 1355.5 597.5 c 128,-1,13
 1262 571 1262 571 1130 557 c 128,-1,14
 998 543 998 543 819 543 c 1,15,-1
 819 422 l 1,16,-1
 939 399 l 1,17,-1
 939 0 l 1,18,-1
 97 0 l 1,19,-1
 97 399 l 1,20,-1
 217 422 l 1,21,-1
 217 991 l 1,22,-1
 97 1014 l 1,23,-1
 97 1408 l 1,0,-1
819 796 m 1,24,25
 874 796 874 796 918.5 802 c 128,-1,26
 963 808 963 808 994.5 828 c 128,-1,27
 1026 848 1026 848 1043 886 c 128,-1,28
 1060 924 1060 924 1060 989 c 0,29,30
 1060 1049 1060 1049 1043 1084 c 128,-1,31
 1026 1119 1026 1119 994.5 1138 c 128,-1,32
 963 1157 963 1157 918.5 1162.5 c 128,-1,33
 874 1168 874 1168 819 1168 c 1,34,-1
 819 796 l 1,24,25
EndSplineSet
Validated: 1
EndChar

StartChar: q
Encoding: 113 113 46
Width: 1808
Flags: MW
LayerCount: 2
Fore
SplineSet
935 -407 m 1,0,1
 896 -375 896 -375 853 -334 c 128,-1,2
 810 -293 810 -293 768.5 -243.5 c 128,-1,3
 727 -194 727 -194 691 -135.5 c 128,-1,4
 655 -77 655 -77 631 -9 c 1,5,6
 506 19 506 19 401.5 76 c 128,-1,7
 297 133 297 133 221.5 223 c 128,-1,8
 146 313 146 313 104 437 c 128,-1,9
 62 561 62 561 62 723 c 0,10,11
 62 918 62 918 127.5 1055.5 c 128,-1,12
 193 1193 193 1193 307 1279.5 c 128,-1,13
 421 1366 421 1366 574 1406 c 128,-1,14
 727 1446 727 1446 903 1446 c 0,15,16
 1078 1446 1078 1446 1231.5 1406 c 128,-1,17
 1385 1366 1385 1366 1499.5 1279.5 c 128,-1,18
 1614 1193 1614 1193 1680 1055.5 c 128,-1,19
 1746 918 1746 918 1746 723 c 0,20,21
 1746 573 1746 573 1709.5 455.5 c 128,-1,22
 1673 338 1673 338 1607.5 250.5 c 128,-1,23
 1542 163 1542 163 1450.5 103.5 c 128,-1,24
 1359 44 1359 44 1249 10 c 1,25,26
 1291 -42 1291 -42 1334 -91.5 c 128,-1,27
 1377 -141 1377 -141 1408 -176 c 1,28,-1
 1408 -407 l 1,29,-1
 935 -407 l 1,0,1
903 1020 m 1,30,-1
 893 1020 l 2,31,32
 836 1020 836 1020 797.5 1005 c 128,-1,33
 759 990 759 990 733.5 965 c 128,-1,34
 708 940 708 940 694 908.5 c 128,-1,35
 680 877 680 877 673.5 845 c 128,-1,36
 667 813 667 813 665.5 782 c 128,-1,37
 664 751 664 751 664 728 c 256,38,39
 664 705 664 705 665 673.5 c 128,-1,40
 666 642 666 642 672 607.5 c 128,-1,41
 678 573 678 573 692 539 c 128,-1,42
 706 505 706 505 732.5 478 c 128,-1,43
 759 451 759 451 800.5 434.5 c 128,-1,44
 842 418 842 418 903 418 c 0,45,46
 963 418 963 418 1004.5 434 c 128,-1,47
 1046 450 1046 450 1072.5 476.5 c 128,-1,48
 1099 503 1099 503 1114 536 c 128,-1,49
 1129 569 1129 569 1135.5 602.5 c 128,-1,50
 1142 636 1142 636 1143.5 668 c 128,-1,51
 1145 700 1145 700 1145 723 c 256,52,53
 1145 746 1145 746 1144 777 c 128,-1,54
 1143 808 1143 808 1136 841 c 128,-1,55
 1129 874 1129 874 1115 906 c 128,-1,56
 1101 938 1101 938 1075.5 963.5 c 128,-1,57
 1050 989 1050 989 1010 1004.5 c 128,-1,58
 970 1020 970 1020 913 1020 c 2,59,-1
 903 1020 l 1,30,-1
EndSplineSet
Validated: 1
EndChar

StartChar: r
Encoding: 114 114 47
Width: 1732
Flags: MW
LayerCount: 2
Fore
SplineSet
1660 0 m 1,0,-1
 1062 0 l 1,1,2
 1034 52 1034 52 1004 110.5 c 128,-1,3
 974 169 974 169 946 233 c 128,-1,4
 918 297 918 297 893.5 365 c 128,-1,5
 869 433 869 433 852 505 c 1,6,-1
 819 505 l 1,7,-1
 819 0 l 1,8,-1
 97 0 l 1,9,-1
 97 399 l 1,10,-1
 217 422 l 1,11,-1
 217 991 l 1,12,-1
 97 1014 l 1,13,-1
 97 1408 l 1,14,-1
 916 1408 l 2,15,16
 1079 1408 1079 1408 1197.5 1394 c 128,-1,17
 1316 1380 1316 1380 1398.5 1353 c 128,-1,18
 1481 1326 1481 1326 1532 1287.5 c 128,-1,19
 1583 1249 1583 1249 1611.5 1200.5 c 128,-1,20
 1640 1152 1640 1152 1650 1094 c 128,-1,21
 1660 1036 1660 1036 1660 971 c 0,22,23
 1660 905 1660 905 1647.5 851 c 128,-1,24
 1635 797 1635 797 1603 752 c 128,-1,25
 1571 707 1571 707 1515.5 669.5 c 128,-1,26
 1460 632 1460 632 1374 599 c 1,27,28
 1392 563 1392 563 1427.5 513.5 c 128,-1,29
 1463 464 1463 464 1505 412.5 c 128,-1,30
 1547 361 1547 361 1588.5 313 c 128,-1,31
 1630 265 1630 265 1660 231 c 1,32,-1
 1660 0 l 1,0,-1
819 776 m 1,33,34
 874 776 874 776 918.5 781.5 c 128,-1,35
 963 787 963 787 994.5 805.5 c 128,-1,36
 1026 824 1026 824 1043 860 c 128,-1,37
 1060 896 1060 896 1060 957 c 0,38,39
 1060 1017 1060 1017 1043 1053 c 128,-1,40
 1026 1089 1026 1089 994.5 1108.5 c 128,-1,41
 963 1128 963 1128 918.5 1134 c 128,-1,42
 874 1140 874 1140 819 1140 c 1,43,-1
 819 776 l 1,33,34
EndSplineSet
Validated: 1
EndChar

StartChar: s
Encoding: 115 115 48
Width: 1387
Flags: MW
LayerCount: 2
Fore
SplineSet
1322 443 m 0,0,1
 1322 350 1322 350 1295.5 278.5 c 128,-1,2
 1269 207 1269 207 1223.5 154.5 c 128,-1,3
 1178 102 1178 102 1115.5 67 c 128,-1,4
 1053 32 1053 32 981 10.5 c 128,-1,5
 909 -11 909 -11 830.5 -14.5 c 128,-1,6
 752 -18 752 -18 674 -18 c 0,7,8
 566 -18 566 -18 479 -13 c 128,-1,9
 392 -8 392 -8 323.5 9 c 128,-1,10
 255 26 255 26 202.5 46.5 c 128,-1,11
 150 67 150 67 110 87 c 1,12,-1
 110 434 l 1,13,-1
 393 434 l 1,14,15
 435 368 435 368 489 337 c 128,-1,16
 543 306 543 306 600 306 c 0,17,18
 617 306 617 306 638 309 c 128,-1,19
 659 312 659 312 677 328 c 128,-1,20
 695 344 695 344 707.5 377.5 c 128,-1,21
 720 411 720 411 720 472 c 1,22,23
 639 479 639 479 559.5 492.5 c 128,-1,24
 480 506 480 506 407.5 529 c 128,-1,25
 335 552 335 552 273 587.5 c 128,-1,26
 211 623 211 623 165.5 673.5 c 128,-1,27
 120 724 120 724 94 792.5 c 128,-1,28
 68 861 68 861 68 950 c 0,29,30
 68 1052 68 1052 94 1128.5 c 128,-1,31
 120 1205 120 1205 165 1260 c 128,-1,32
 210 1315 210 1315 271.5 1351 c 128,-1,33
 333 1387 333 1387 404 1408 c 128,-1,34
 475 1429 475 1429 552 1437.5 c 128,-1,35
 629 1446 629 1446 706 1446 c 0,36,37
 815 1446 815 1446 901.5 1435 c 128,-1,38
 988 1424 988 1424 1056.5 1407 c 128,-1,39
 1125 1390 1125 1390 1177.5 1369.5 c 128,-1,40
 1230 1349 1230 1349 1271 1330 c 1,41,-1
 1271 980 l 1,42,-1
 968 980 l 1,43,44
 930 1052 930 1052 881 1085 c 128,-1,45
 832 1118 832 1118 781 1118 c 0,46,47
 764 1118 764 1118 742 1112.5 c 128,-1,48
 720 1107 720 1107 701 1088 c 128,-1,49
 682 1069 682 1069 669 1032 c 128,-1,50
 656 995 656 995 656 932 c 1,51,52
 821 926 821 926 945.5 897 c 128,-1,53
 1070 868 1070 868 1154 810.5 c 128,-1,54
 1238 753 1238 753 1280 662.5 c 128,-1,55
 1322 572 1322 572 1322 443 c 0,0,1
EndSplineSet
Validated: 1
EndChar

StartChar: t
Encoding: 116 116 49
Width: 1444
Flags: MW
LayerCount: 2
Fore
SplineSet
421 1036 m 1,0,1
 369 1036 369 1036 329 1022 c 128,-1,2
 289 1008 289 1008 262 987 c 128,-1,3
 235 966 235 966 221 941.5 c 128,-1,4
 207 917 207 917 207 896 c 1,5,-1
 40 896 l 1,6,-1
 40 1408 l 1,7,-1
 1404 1408 l 1,8,-1
 1404 896 l 1,9,-1
 1237 896 l 1,10,11
 1237 917 1237 917 1223 941.5 c 128,-1,12
 1209 966 1209 966 1182 987 c 128,-1,13
 1155 1008 1155 1008 1115 1022 c 128,-1,14
 1075 1036 1075 1036 1023 1036 c 1,15,-1
 1023 422 l 1,16,-1
 1143 399 l 1,17,-1
 1143 0 l 1,18,-1
 301 0 l 1,19,-1
 301 399 l 1,20,-1
 421 422 l 1,21,-1
 421 1036 l 1,0,1
EndSplineSet
Validated: 1
EndChar

StartChar: u
Encoding: 117 117 50
Width: 1830
Flags: MW
LayerCount: 2
Fore
SplineSet
1650 991 m 1,0,1
 1649 961 1649 961 1649 932.5 c 128,-1,2
 1649 904 1649 904 1649 878 c 2,3,-1
 1649 723 l 2,4,5
 1649 523 1649 523 1594 380.5 c 128,-1,6
 1539 238 1539 238 1445 147 c 128,-1,7
 1351 56 1351 56 1224.5 19 c 128,-1,8
 1098 -18 1098 -18 956 -18 c 0,9,10
 792 -18 792 -18 649.5 19 c 128,-1,11
 507 56 507 56 401.5 147.5 c 128,-1,12
 296 239 296 239 235.5 381 c 128,-1,13
 175 523 175 523 175 723 c 2,14,-1
 175 991 l 1,15,-1
 55 1014 l 1,16,-1
 55 1408 l 1,17,-1
 836 1408 l 1,18,-1
 836 1014 l 1,19,-1
 716 991 l 1,20,-1
 716 872 l 2,21,22
 716 848 716 848 716 823.5 c 128,-1,23
 716 799 716 799 716.5 778 c 128,-1,24
 717 757 717 757 717 741.5 c 128,-1,25
 717 726 717 726 717 721 c 0,26,27
 717 698 717 698 718 667.5 c 128,-1,28
 719 637 719 637 726 604.5 c 128,-1,29
 733 572 733 572 747.5 540.5 c 128,-1,30
 762 509 762 509 788.5 484 c 128,-1,31
 815 459 815 459 855.5 443.5 c 128,-1,32
 896 428 896 428 956 428 c 256,33,34
 1016 428 1016 428 1057.5 443.5 c 128,-1,35
 1099 459 1099 459 1125.5 484.5 c 128,-1,36
 1152 510 1152 510 1167 542 c 128,-1,37
 1182 574 1182 574 1188.5 606.5 c 128,-1,38
 1195 639 1195 639 1196.5 669.5 c 128,-1,39
 1198 700 1198 700 1198 723 c 0,40,41
 1198 730 1198 730 1198 745.5 c 128,-1,42
 1198 761 1198 761 1197.5 781.5 c 128,-1,43
 1197 802 1197 802 1197 825.5 c 128,-1,44
 1197 849 1197 849 1197 872 c 2,45,-1
 1197 991 l 1,46,-1
 1077 1014 l 1,47,-1
 1077 1408 l 1,48,-1
 1771 1408 l 1,49,-1
 1771 1014 l 1,50,-1
 1650 991 l 1,0,1
EndSplineSet
Validated: 1
EndChar

StartChar: v
Encoding: 118 118 51
Width: 1757
Flags: MW
LayerCount: 2
Fore
SplineSet
534 -1 m 1,0,-1
 160 992 l 1,1,-1
 17 1014 l 1,2,-1
 17 1408 l 1,3,-1
 895 1408 l 1,4,-1
 895 1014 l 1,5,-1
 792 992 l 1,6,-1
 954 448 l 1,7,-1
 1117 992 l 1,8,-1
 1013 1014 l 1,9,-1
 1013 1408 l 1,10,-1
 1740 1408 l 1,11,-1
 1740 1014 l 1,12,-1
 1598 992 l 1,13,-1
 1224 -1 l 1,14,-1
 534 -1 l 1,0,-1
EndSplineSet
Validated: 1
EndChar

StartChar: w
Encoding: 119 119 52
Width: 2788
Flags: MW
LayerCount: 2
Fore
SplineSet
544 -1 m 1,0,-1
 160 992 l 1,1,-1
 17 1014 l 1,2,-1
 17 1408 l 1,3,-1
 930 1408 l 1,4,-1
 930 1014 l 1,5,-1
 826 992 l 1,6,-1
 989 468 l 1,7,-1
 1152 992 l 1,8,-1
 1048 1014 l 1,9,-1
 1048 1408 l 1,10,-1
 1961 1408 l 1,11,-1
 1961 1014 l 1,12,-1
 1858 992 l 1,13,-1
 2020 468 l 1,14,-1
 2183 992 l 1,15,-1
 2079 1014 l 1,16,-1
 2079 1413 l 1,17,-1
 2771 1413 l 1,18,-1
 2771 1014 l 1,19,-1
 2629 992 l 1,20,-1
 2245 -1 l 1,21,-1
 1576 -1 l 1,22,-1
 1394 540 l 1,23,-1
 1214 -1 l 1,24,-1
 544 -1 l 1,0,-1
EndSplineSet
Validated: 1
EndChar

StartChar: x
Encoding: 120 120 53
Width: 1894
Flags: MW
LayerCount: 2
Fore
SplineSet
1718 421 m 1,0,-1
 1861 399 l 1,1,-1
 1861 0 l 1,2,-1
 908 0 l 1,3,-1
 908 399 l 1,4,-1
 1011 421 l 1,5,-1
 792 585 l 1,6,-1
 611 421 l 1,7,-1
 789 399 l 1,8,-1
 789 0 l 1,9,-1
 63 0 l 1,10,-1
 63 399 l 1,11,-1
 205 421 l 1,12,-1
 552 725 l 1,13,-1
 214 992 l 1,14,-1
 43 1014 l 1,15,-1
 43 1408 l 1,16,-1
 968 1408 l 1,17,-1
 968 1014 l 1,18,-1
 865 992 l 1,19,-1
 1102 819 l 1,20,-1
 1265 992 l 1,21,-1
 1086 1014 l 1,22,-1
 1086 1408 l 1,23,-1
 1813 1408 l 1,24,-1
 1813 1014 l 1,25,-1
 1643 992 l 1,26,-1
 1362 707 l 1,27,-1
 1718 421 l 1,0,-1
EndSplineSet
Validated: 1
EndChar

StartChar: y
Encoding: 121 121 54
Width: 1830
Flags: MW
LayerCount: 2
Fore
SplineSet
461 0 m 1,0,-1
 461 397 l 1,1,-1
 581 427 l 1,2,-1
 168 992 l 1,3,-1
 16 1014 l 1,4,-1
 16 1408 l 1,5,-1
 819 1408 l 1,6,-1
 819 1014 l 1,7,-1
 725 992 l 1,8,-1
 916 703 l 1,9,-1
 1106 992 l 1,10,-1
 1012 1014 l 1,11,-1
 1012 1408 l 1,12,-1
 1814 1408 l 1,13,-1
 1814 1014 l 1,14,-1
 1663 992 l 1,15,-1
 1250 427 l 1,16,-1
 1371 397 l 1,17,-1
 1371 0 l 1,18,-1
 461 0 l 1,0,-1
EndSplineSet
Validated: 1
EndChar

StartChar: z
Encoding: 122 122 55
Width: 1241
Flags: MW
LayerCount: 2
Fore
SplineSet
30 0 m 1,0,-1
 30 352 l 1,1,-1
 547 1055 l 1,2,3
 494 1055 494 1055 448 1044.5 c 128,-1,4
 402 1034 402 1034 363 1017 c 128,-1,5
 324 1000 324 1000 292.5 979.5 c 128,-1,6
 261 959 261 959 237 938 c 1,7,-1
 83 938 l 1,8,-1
 83 1408 l 1,9,-1
 1173 1408 l 1,10,-1
 1173 1028 l 1,11,-1
 712 368 l 1,12,13
 734 365 734 365 756 365 c 0,14,15
 799 365 799 365 838 374.5 c 128,-1,16
 877 384 877 384 910 399 c 128,-1,17
 943 414 943 414 970.5 432.5 c 128,-1,18
 998 451 998 451 1019 469 c 1,19,-1
 1173 469 l 1,20,-1
 1173 0 l 1,21,-1
 30 0 l 1,0,-1
EndSplineSet
Validated: 1
EndChar

StartChar: exclam
Encoding: 33 33 56
Width: 954
Flags: MW
LayerCount: 2
Fore
SplineSet
92 1137 m 1,0,-1
 92 1536 l 1,1,-1
 861 1536 l 1,2,-1
 861 1137 l 1,3,-1
 733 512 l 1,4,-1
 221 512 l 1,5,-1
 92 1137 l 1,0,-1
157 384 m 1,6,-1
 797 384 l 1,7,-1
 797 0 l 1,8,-1
 157 0 l 1,9,-1
 157 384 l 1,6,-1
EndSplineSet
Validated: 1
EndChar

StartChar: semicolon
Encoding: 59 59 57
Width: 860
Flags: MW
LayerCount: 2
Fore
SplineSet
105 1408 m 1,0,-1
 745 1408 l 1,1,-1
 745 896 l 1,2,-1
 105 896 l 1,3,-1
 105 1408 l 1,0,-1
109 512 m 1,4,-1
 749 512 l 1,5,-1
 749 1 l 2,6,7
 749 -126 749 -126 705 -212.5 c 128,-1,8
 661 -299 661 -299 589 -352.5 c 128,-1,9
 517 -406 517 -406 425 -429 c 128,-1,10
 333 -452 333 -452 237 -452 c 1,11,-1
 237 -128 l 1,12,13
 256 -127 256 -127 278 -121 c 128,-1,14
 300 -115 300 -115 319 -101 c 128,-1,15
 338 -87 338 -87 351 -62.5 c 128,-1,16
 364 -38 364 -38 364 0 c 1,17,-1
 109 0 l 1,18,-1
 109 512 l 1,4,-1
EndSplineSet
Validated: 1
EndChar

StartChar: colon
Encoding: 58 58 58
Width: 930
Flags: MW
LayerCount: 2
Fore
SplineSet
145 1408 m 1,0,-1
 785 1408 l 1,1,-1
 785 896 l 1,2,-1
 145 896 l 1,3,-1
 145 1408 l 1,0,-1
145 512 m 1,4,-1
 785 512 l 1,5,-1
 785 0 l 1,6,-1
 145 0 l 1,7,-1
 145 512 l 1,4,-1
EndSplineSet
Validated: 1
EndChar

StartChar: slash
Encoding: 47 47 59
Width: 1133
Flags: MW
LayerCount: 2
Fore
SplineSet
440 1536 m 1,0,-1
 1080 1536 l 1,1,-1
 696 0 l 1,2,-1
 56 0 l 1,3,-1
 440 1536 l 1,0,-1
EndSplineSet
Validated: 1
EndChar

StartChar: OE
Encoding: 338 338 60
Width: 2499
Flags: MW
LayerCount: 2
Fore
SplineSet
2445 0 m 1,0,-1
 1286 0 l 1,1,2
 1138 -40 1138 -40 959 -40 c 0,3,4
 834 -40 834 -40 719 -19.5 c 128,-1,5
 604 1 604 1 504.5 43.5 c 128,-1,6
 405 86 405 86 324 152 c 128,-1,7
 243 218 243 218 185 310 c 128,-1,8
 127 402 127 402 95.5 520.5 c 128,-1,9
 64 639 64 639 64 786 c 0,10,11
 64 928 64 928 95.5 1041.5 c 128,-1,12
 127 1155 127 1155 185 1243 c 128,-1,13
 243 1331 243 1331 324.5 1394 c 128,-1,14
 406 1457 406 1457 505.5 1497.5 c 128,-1,15
 605 1538 605 1538 719.5 1557 c 128,-1,16
 834 1576 834 1576 959 1576 c 0,17,18
 1142 1576 1142 1576 1295 1536 c 1,19,-1
 2451 1536 l 1,20,-1
 2451 984 l 1,21,22
 2389 1009 2389 1009 2301 1029 c 0,23,24
 2226 1046 2226 1046 2116 1060.5 c 128,-1,25
 2006 1075 2006 1075 1856 1075 c 1,26,-1
 1856 879 l 1,27,-1
 2150 944 l 1,28,-1
 2150 590 l 1,29,-1
 1856 655 l 1,30,-1
 1856 459 l 1,31,32
 1973 459 1973 459 2064 466 c 128,-1,33
 2155 473 2155 473 2225.5 484.5 c 128,-1,34
 2296 496 2296 496 2349.5 510.5 c 128,-1,35
 2403 525 2403 525 2445 540 c 1,36,-1
 2445 0 l 1,0,-1
959 1102 m 0,37,38
 895 1102 895 1102 851.5 1085.5 c 128,-1,39
 808 1069 808 1069 779.5 1042 c 128,-1,40
 751 1015 751 1015 736 981 c 128,-1,41
 721 947 721 947 713.5 912 c 128,-1,42
 706 877 706 877 705 844 c 128,-1,43
 704 811 704 811 704 786 c 256,44,45
 704 761 704 761 705 728 c 128,-1,46
 706 695 706 695 713.5 659.5 c 128,-1,47
 721 624 721 624 736 589 c 128,-1,48
 751 554 751 554 779.5 526.5 c 128,-1,49
 808 499 808 499 851.5 482 c 128,-1,50
 895 465 895 465 959 465 c 0,51,52
 1011 465 1011 465 1050.5 467 c 128,-1,53
 1090 469 1090 469 1120 473 c 128,-1,54
 1150 477 1150 477 1173 482 c 128,-1,55
 1196 487 1196 487 1216 492 c 1,56,-1
 1216 1060 l 1,57,58
 1199 1067 1199 1067 1176.5 1074.5 c 128,-1,59
 1154 1082 1154 1082 1123.5 1088 c 128,-1,60
 1093 1094 1093 1094 1052.5 1098 c 128,-1,61
 1012 1102 1012 1102 959 1102 c 0,37,38
EndSplineSet
Validated: 1
EndChar

StartChar: two
Encoding: 50 50 61
Width: 1465
Flags: MW
LayerCount: 2
Fore
SplineSet
92 515 m 1,0,1
 125 527 125 527 185.5 545 c 128,-1,2
 246 563 246 563 318.5 589 c 128,-1,3
 391 615 391 615 466 649 c 128,-1,4
 541 683 541 683 602 727 c 128,-1,5
 663 771 663 771 702 825.5 c 128,-1,6
 741 880 741 880 741 946 c 0,7,8
 741 989 741 989 727.5 1020.5 c 128,-1,9
 714 1052 714 1052 691 1072.5 c 128,-1,10
 668 1093 668 1093 637.5 1103 c 128,-1,11
 607 1113 607 1113 573 1113 c 0,12,13
 525 1113 525 1113 475.5 1076.5 c 128,-1,14
 426 1040 426 1040 393 973 c 1,15,-1
 92 973 l 1,16,-1
 92 1433 l 1,17,18
 132 1454 132 1454 184.5 1476.5 c 128,-1,19
 237 1499 237 1499 305 1517.5 c 128,-1,20
 373 1536 373 1536 459.5 1547.5 c 128,-1,21
 546 1559 546 1559 654 1559 c 0,22,23
 816 1559 816 1559 950 1524.5 c 128,-1,24
 1084 1490 1084 1490 1180 1422.5 c 128,-1,25
 1276 1355 1276 1355 1328.5 1255 c 128,-1,26
 1381 1155 1381 1155 1381 1024 c 0,27,28
 1381 935 1381 935 1356 863 c 128,-1,29
 1331 791 1331 791 1290.5 732.5 c 128,-1,30
 1250 674 1250 674 1198 629 c 128,-1,31
 1146 584 1146 584 1092 550 c 0,32,33
 969 471 969 471 804 429 c 1,34,-1
 1372 429 l 1,35,-1
 1372 0 l 1,36,-1
 92 0 l 1,37,-1
 92 515 l 1,0,1
EndSplineSet
Validated: 1
EndChar

StartChar: three
Encoding: 51 51 62
Width: 1579
Flags: MW
LayerCount: 2
Fore
SplineSet
668 361 m 0,0,1
 716 361 716 361 752 373 c 128,-1,2
 788 385 788 385 813 405.5 c 128,-1,3
 838 426 838 426 850.5 451.5 c 128,-1,4
 863 477 863 477 863 504 c 0,5,6
 863 525 863 525 855 546 c 128,-1,7
 847 567 847 567 831 583 c 128,-1,8
 815 599 815 599 791.5 609 c 128,-1,9
 768 619 768 619 738 619 c 2,10,-1
 479 619 l 1,11,-1
 479 915 l 1,12,-1
 738 915 l 2,13,14
 768 915 768 915 791.5 925 c 128,-1,15
 815 935 815 935 831 951 c 128,-1,16
 847 967 847 967 855 988 c 128,-1,17
 863 1009 863 1009 863 1030 c 0,18,19
 863 1057 863 1057 850.5 1082.5 c 128,-1,20
 838 1108 838 1108 813 1128.5 c 128,-1,21
 788 1149 788 1149 752 1161 c 128,-1,22
 716 1173 716 1173 668 1173 c 0,23,24
 593 1173 593 1173 523 1139 c 128,-1,25
 453 1105 453 1105 396 1033 c 1,26,-1
 95 1033 l 1,27,-1
 95 1433 l 1,28,29
 136 1450 136 1450 182 1466 c 128,-1,30
 228 1482 228 1482 280 1496 c 0,31,32
 371 1520 371 1520 495.5 1539.5 c 128,-1,33
 620 1559 620 1559 783 1559 c 0,34,35
 964 1559 964 1559 1099 1516.5 c 128,-1,36
 1234 1474 1234 1474 1324 1405 c 128,-1,37
 1414 1336 1414 1336 1458.5 1247.5 c 128,-1,38
 1503 1159 1503 1159 1503 1067 c 0,39,40
 1503 995 1503 995 1484 943 c 128,-1,41
 1465 891 1465 891 1437.5 855.5 c 128,-1,42
 1410 820 1410 820 1377.5 798.5 c 128,-1,43
 1345 777 1345 777 1318 767 c 1,44,45
 1346 755 1346 755 1378 732.5 c 128,-1,46
 1410 710 1410 710 1438 674 c 128,-1,47
 1466 638 1466 638 1484.5 587 c 128,-1,48
 1503 536 1503 536 1503 467 c 0,49,50
 1503 373 1503 373 1458.5 284 c 128,-1,51
 1414 195 1414 195 1324.5 125.5 c 128,-1,52
 1235 56 1235 56 1099.5 13.5 c 128,-1,53
 964 -29 964 -29 783 -29 c 0,54,55
 654 -29 654 -29 550.5 -18 c 128,-1,56
 447 -7 447 -7 363.5 11 c 128,-1,57
 280 29 280 29 214 51 c 128,-1,58
 148 73 148 73 95 95 c 1,59,-1
 95 501 l 1,60,-1
 396 501 l 1,61,62
 453 429 453 429 523 395 c 128,-1,63
 593 361 593 361 668 361 c 0,0,1
EndSplineSet
Validated: 1
EndChar

StartChar: question
Encoding: 63 63 63
Width: 1400
Flags: MW
LayerCount: 2
Fore
SplineSet
706 1087 m 0,0,1
 706 1118 706 1118 695.5 1141.5 c 128,-1,2
 685 1165 685 1165 667.5 1181 c 128,-1,3
 650 1197 650 1197 626.5 1205.5 c 128,-1,4
 603 1214 603 1214 578 1214 c 0,5,6
 521 1214 521 1214 465 1187.5 c 128,-1,7
 409 1161 409 1161 366 1104 c 1,8,-1
 65 1104 l 1,9,-1
 65 1450 l 1,10,11
 99 1467 99 1467 138 1483 c 128,-1,12
 177 1499 177 1499 222 1513 c 0,13,14
 300 1537 300 1537 407.5 1556.5 c 128,-1,15
 515 1576 515 1576 657 1576 c 0,16,17
 814 1576 814 1576 941.5 1547.5 c 128,-1,18
 1069 1519 1069 1519 1159 1459 c 128,-1,19
 1249 1399 1249 1399 1298 1306.5 c 128,-1,20
 1347 1214 1347 1214 1347 1087 c 0,21,22
 1347 977 1347 977 1311.5 899.5 c 128,-1,23
 1276 822 1276 822 1214.5 769 c 128,-1,24
 1153 716 1153 716 1071 683 c 128,-1,25
 989 650 989 650 895 629 c 1,26,-1
 895 512 l 1,27,-1
 258 512 l 1,28,29
 257 511 257 511 255 511 c 1,30,-1
 255 856 l 1,31,32
 271 863 271 863 310.5 873.5 c 128,-1,33
 350 884 350 884 400 898 c 128,-1,34
 450 912 450 912 504.5 930.5 c 128,-1,35
 559 949 559 949 603.5 972 c 128,-1,36
 648 995 648 995 677 1023.5 c 128,-1,37
 706 1052 706 1052 706 1087 c 0,0,1
255 383 m 1,38,-1
 895 383 l 1,39,-1
 895 -1 l 1,40,-1
 255 -1 l 1,41,-1
 255 383 l 1,38,-1
EndSplineSet
Validated: 1
EndChar

StartChar: yen
Encoding: 165 165 64
Width: 2029
Flags: MW
LayerCount: 2
Fore
SplineSet
247 768 m 1,0,-1
 461 768 l 1,1,-1
 220 1078 l 1,2,-1
 58 1102 l 1,3,-1
 58 1536 l 1,4,-1
 912 1536 l 1,5,-1
 912 1102 l 1,6,-1
 812 1078 l 1,7,-1
 1015 768 l 1,8,-1
 1218 1078 l 1,9,-1
 1118 1102 l 1,10,-1
 1118 1536 l 1,11,-1
 1971 1536 l 1,12,-1
 1971 1102 l 1,13,-1
 1810 1078 l 1,14,-1
 1568 768 l 1,15,-1
 1783 768 l 1,16,-1
 1783 512 l 1,17,-1
 1371 512 l 1,18,-1
 1371 384 l 1,19,-1
 1783 384 l 1,20,-1
 1783 128 l 1,21,-1
 1371 128 l 1,22,-1
 1371 0 l 1,23,-1
 659 0 l 1,24,-1
 659 128 l 1,25,-1
 247 128 l 1,26,-1
 247 384 l 1,27,-1
 659 384 l 1,28,-1
 659 512 l 1,29,-1
 247 512 l 1,30,-1
 247 768 l 1,0,-1
EndSplineSet
Validated: 1
EndChar

StartChar: hyphen
Encoding: 45 45 65
Width: 735
Flags: MW
LayerCount: 2
Fore
SplineSet
623 896 m 1,0,-1
 623 640 l 1,1,-1
 111 640 l 1,2,-1
 111 896 l 1,3,-1
 623 896 l 1,0,-1
EndSplineSet
Validated: 1
EndChar

StartChar: Z
Encoding: 90 90 66
Width: 1344
Flags: MW
LayerCount: 2
Fore
SplineSet
27 0 m 1,0,-1
 27 384 l 1,1,-1
 591 1152 l 1,2,3
 534 1152 534 1152 484 1140.5 c 128,-1,4
 434 1129 434 1129 391.5 1110.5 c 128,-1,5
 349 1092 349 1092 314 1069 c 128,-1,6
 279 1046 279 1046 253 1024 c 1,7,-1
 85 1024 l 1,8,-1
 85 1536 l 1,9,-1
 1275 1536 l 1,10,-1
 1275 1122 l 1,11,-1
 771 402 l 1,12,13
 796 399 796 399 820 399 c 0,14,15
 867 399 867 399 909.5 409 c 128,-1,16
 952 419 952 419 988 435.5 c 128,-1,17
 1024 452 1024 452 1054 472 c 128,-1,18
 1084 492 1084 492 1107 512 c 1,19,-1
 1275 512 l 1,20,-1
 1275 0 l 1,21,-1
 27 0 l 1,0,-1
EndSplineSet
Validated: 1
EndChar

StartChar: oe
Encoding: 339 339 67
Width: 2348
Flags: MW
LayerCount: 2
Fore
SplineSet
1742 789 m 1,0,-1
 2018 848 l 1,1,-1
 2018 563 l 1,2,-1
 1742 623 l 1,3,-1
 1742 402 l 1,4,5
 1804 402 1804 402 1861 410.5 c 128,-1,6
 1918 419 1918 419 1967.5 434 c 128,-1,7
 2017 449 2017 449 2058 469 c 128,-1,8
 2099 489 2099 489 2129 512 c 1,9,-1
 2296 512 l 1,10,-1
 2296 0 l 1,11,-1
 1209 0 l 1,12,13
 1068 -37 1068 -37 901 -37 c 0,14,15
 784 -37 784 -37 676 -18.5 c 128,-1,16
 568 0 568 0 474.5 39.5 c 128,-1,17
 381 79 381 79 304.5 140 c 128,-1,18
 228 201 228 201 173.5 285.5 c 128,-1,19
 119 370 119 370 89.5 478.5 c 128,-1,20
 60 587 60 587 60 723 c 0,21,22
 60 919 60 919 125.5 1057.5 c 128,-1,23
 191 1196 191 1196 305 1283 c 128,-1,24
 419 1370 419 1370 572 1410 c 128,-1,25
 725 1450 725 1450 901 1450 c 0,26,27
 1081 1450 1081 1450 1236 1408 c 1,28,-1
 2296 1408 l 1,29,-1
 2296 896 l 1,30,-1
 2129 896 l 1,31,32
 2099 918 2099 918 2058 938 c 128,-1,33
 2017 958 2017 958 1967.5 973 c 128,-1,34
 1918 988 1918 988 1861 997 c 128,-1,35
 1804 1006 1804 1006 1742 1006 c 1,36,-1
 1742 789 l 1,0,-1
901 1014 m 0,37,38
 841 1014 841 1014 800.5 999 c 128,-1,39
 760 984 760 984 733.5 959.5 c 128,-1,40
 707 935 707 935 692.5 904 c 128,-1,41
 678 873 678 873 671 841 c 128,-1,42
 664 809 664 809 663 778.5 c 128,-1,43
 662 748 662 748 662 725 c 0,44,45
 662 703 662 703 663 672 c 128,-1,46
 664 641 664 641 670.5 608 c 128,-1,47
 677 575 677 575 691 543 c 128,-1,48
 705 511 705 511 731.5 485.5 c 128,-1,49
 758 460 758 460 799 444 c 128,-1,50
 840 428 840 428 901 428 c 0,51,52
 994 428 994 428 1051 437.5 c 128,-1,53
 1108 447 1108 447 1140 458 c 1,54,-1
 1140 987 l 1,55,56
 1122 992 1122 992 1099.5 997 c 128,-1,57
 1077 1002 1077 1002 1048 1005.5 c 128,-1,58
 1019 1009 1019 1009 983 1011.5 c 128,-1,59
 947 1014 947 1014 901 1014 c 0,37,38
EndSplineSet
Validated: 1
EndChar

StartChar: bullet
Encoding: 8226 8226 68
Width: 883
Flags: MW
LayerCount: 2
Fore
SplineSet
826 641 m 0,0,1
 826 552 826 552 793 485.5 c 128,-1,2
 760 419 760 419 705.5 375 c 128,-1,3
 651 331 651 331 581.5 308.5 c 128,-1,4
 512 286 512 286 440 286 c 256,5,6
 368 286 368 286 299 308 c 128,-1,7
 230 330 230 330 176.5 374.5 c 128,-1,8
 123 419 123 419 90 485.5 c 128,-1,9
 57 552 57 552 57 641 c 0,10,11
 57 729 57 729 90 795 c 128,-1,12
 123 861 123 861 176.5 905 c 128,-1,13
 230 949 230 949 299 971 c 128,-1,14
 368 993 368 993 440 993 c 256,15,16
 512 993 512 993 581.5 971 c 128,-1,17
 651 949 651 949 705.5 905 c 128,-1,18
 760 861 760 861 793 795 c 128,-1,19
 826 729 826 729 826 641 c 0,0,1
EndSplineSet
Validated: 1
EndChar

StartChar: plus
Encoding: 43 43 69
Width: 1140
Flags: MW
LayerCount: 2
Fore
SplineSet
58 896 m 1,0,-1
 442 896 l 1,1,-1
 442 1280 l 1,2,-1
 698 1280 l 1,3,-1
 698 896 l 1,4,-1
 1082 896 l 1,5,-1
 1082 640 l 1,6,-1
 698 640 l 1,7,-1
 698 256 l 1,8,-1
 442 256 l 1,9,-1
 442 640 l 1,10,-1
 58 640 l 1,11,-1
 58 896 l 1,0,-1
EndSplineSet
Validated: 1
EndChar

StartChar: dagger
Encoding: 8224 8224 70
Width: 1016
Flags: MW
LayerCount: 2
Fore
SplineSet
60 1280 m 1,0,-1
 316 1280 l 1,1,-1
 316 1536 l 1,2,-1
 700 1536 l 1,3,-1
 700 1280 l 1,4,-1
 956 1280 l 1,5,-1
 956 960 l 1,6,-1
 700 960 l 1,7,-1
 700 320 l 1,8,-1
 316 320 l 1,9,-1
 316 960 l 1,10,-1
 60 960 l 1,11,-1
 60 1280 l 1,0,-1
EndSplineSet
Validated: 1
EndChar

StartChar: daggerdbl
Encoding: 8225 8225 71
Width: 1110
Flags: MW
LayerCount: 2
Fore
SplineSet
107 1280 m 1,0,-1
 363 1280 l 1,1,-1
 363 1536 l 1,2,-1
 747 1536 l 1,3,-1
 747 1280 l 1,4,-1
 1003 1280 l 1,5,-1
 1003 960 l 1,6,-1
 747 960 l 1,7,-1
 747 768 l 1,8,-1
 1003 768 l 1,9,-1
 1003 448 l 1,10,-1
 747 448 l 1,11,-1
 747 320 l 1,12,-1
 363 320 l 1,13,-1
 363 448 l 1,14,-1
 107 448 l 1,15,-1
 107 768 l 1,16,-1
 363 768 l 1,17,-1
 363 960 l 1,18,-1
 107 960 l 1,19,-1
 107 1280 l 1,0,-1
EndSplineSet
Validated: 1
EndChar

StartChar: six
Encoding: 54 54 72
Width: 1662
Flags: MW
LayerCount: 2
Fore
SplineSet
903 1173 m 1,0,1
 853 1171 853 1171 819.5 1155.5 c 128,-1,2
 786 1140 786 1140 764 1109.5 c 128,-1,3
 742 1079 742 1079 730.5 1033.5 c 128,-1,4
 719 988 719 988 714 925 c 1,5,6
 796 932 796 932 859 933.5 c 128,-1,7
 922 935 922 935 970 935 c 0,8,9
 1044 935 1044 935 1120.5 926.5 c 128,-1,10
 1197 918 1197 918 1269 899 c 128,-1,11
 1341 880 1341 880 1404.5 848.5 c 128,-1,12
 1468 817 1468 817 1515.5 770 c 128,-1,13
 1563 723 1563 723 1590.5 660.5 c 128,-1,14
 1618 598 1618 598 1618 516 c 0,15,16
 1618 375 1618 375 1571 272.5 c 128,-1,17
 1524 170 1524 170 1428.5 103 c 128,-1,18
 1333 36 1333 36 1188 3.5 c 128,-1,19
 1043 -29 1043 -29 848 -29 c 0,20,21
 649 -29 649 -29 502.5 18 c 128,-1,22
 356 65 356 65 259.5 162.5 c 128,-1,23
 163 260 163 260 115.5 410 c 128,-1,24
 68 560 68 560 68 767 c 0,25,26
 68 973 68 973 119 1122.5 c 128,-1,27
 170 1272 170 1272 272 1369 c 128,-1,28
 374 1466 374 1466 528 1512.5 c 128,-1,29
 682 1559 682 1559 888 1559 c 0,30,31
 999 1559 999 1559 1089 1547 c 128,-1,32
 1179 1535 1179 1535 1251.5 1517 c 128,-1,33
 1324 1499 1324 1499 1379.5 1476.5 c 128,-1,34
 1435 1454 1435 1454 1476 1433 c 1,35,-1
 1476 1052 l 1,36,-1
 1175 1052 l 1,37,38
 1118 1106 1118 1106 1048 1139.5 c 128,-1,39
 978 1173 978 1173 903 1173 c 1,0,1
883 650 m 0,40,41
 772 650 772 650 712 634 c 1,42,43
 718 549 718 549 731.5 495.5 c 128,-1,44
 745 442 745 442 765.5 411.5 c 128,-1,45
 786 381 786 381 813 369.5 c 128,-1,46
 840 358 840 358 873 358 c 0,47,48
 915 358 915 358 948 364 c 128,-1,49
 981 370 981 370 1003 387 c 128,-1,50
 1025 404 1025 404 1036.5 435 c 128,-1,51
 1048 466 1048 466 1048 516 c 0,52,53
 1048 560 1048 560 1037 586.5 c 128,-1,54
 1026 613 1026 613 1005 627 c 128,-1,55
 984 641 984 641 953 645.5 c 128,-1,56
 922 650 922 650 883 650 c 0,40,41
EndSplineSet
Validated: 1
EndChar

StartChar: nine
Encoding: 57 57 73
Width: 1659
Flags: MW
LayerCount: 2
Fore
SplineSet
756 363 m 0,0,1
 799 363 799 363 832 374 c 128,-1,2
 865 385 865 385 888.5 415 c 128,-1,3
 912 445 912 445 926 497 c 128,-1,4
 940 549 940 549 945 630 c 1,5,6
 879 616 879 616 815 613 c 128,-1,7
 751 610 751 610 685 610 c 0,8,9
 580 610 580 610 494 624.5 c 128,-1,10
 408 639 408 639 341.5 660.5 c 128,-1,11
 275 682 275 682 228.5 707.5 c 128,-1,12
 182 733 182 733 158 754 c 0,13,14
 104 802 104 802 72.5 864.5 c 128,-1,15
 41 927 41 927 41 1020 c 0,16,17
 41 1297 41 1297 232.5 1428 c 128,-1,18
 424 1559 424 1559 811 1559 c 0,19,20
 1008 1559 1008 1559 1154.5 1512.5 c 128,-1,21
 1301 1466 1301 1466 1398 1369 c 128,-1,22
 1495 1272 1495 1272 1543 1123 c 128,-1,23
 1591 974 1591 974 1591 769 c 0,24,25
 1591 563 1591 563 1541 412.5 c 128,-1,26
 1491 262 1491 262 1389.5 164 c 128,-1,27
 1288 66 1288 66 1133.5 18.5 c 128,-1,28
 979 -29 979 -29 771 -29 c 0,29,30
 630 -29 630 -29 524.5 -9.5 c 128,-1,31
 419 10 419 10 341 34 c 0,32,33
 296 48 296 48 257 62.5 c 128,-1,34
 218 77 218 77 183 97 c 1,35,-1
 183 503 l 1,36,-1
 484 503 l 1,37,38
 541 431 541 431 611 397 c 128,-1,39
 681 363 681 363 756 363 c 0,0,1
776 894 m 0,40,41
 886 894 886 894 947 910 c 1,42,43
 941 992 941 992 929.5 1049 c 128,-1,44
 918 1106 918 1106 899.5 1141 c 128,-1,45
 881 1176 881 1176 853 1191.5 c 128,-1,46
 825 1207 825 1207 786 1207 c 0,47,48
 741 1207 741 1207 708 1202 c 128,-1,49
 675 1197 675 1197 653.5 1178 c 128,-1,50
 632 1159 632 1159 621.5 1121.5 c 128,-1,51
 611 1084 611 1084 611 1020 c 0,52,53
 611 979 611 979 622 954.5 c 128,-1,54
 633 930 633 930 654 916.5 c 128,-1,55
 675 903 675 903 706 898.5 c 128,-1,56
 737 894 737 894 776 894 c 0,40,41
EndSplineSet
Validated: 1
EndChar

StartChar: seven
Encoding: 55 55 74
Width: 1246
Flags: MW
LayerCount: 2
Fore
SplineSet
142 -1 m 1,0,1
 175 143 175 143 210.5 269 c 128,-1,2
 246 395 246 395 282 503.5 c 128,-1,3
 318 612 318 612 353 702 c 128,-1,4
 388 792 388 792 420 864 c 0,5,6
 495 1034 495 1034 566 1152 c 1,7,8
 504 1152 504 1152 450 1140.5 c 128,-1,9
 396 1129 396 1129 350 1110.5 c 128,-1,10
 304 1092 304 1092 266 1069 c 128,-1,11
 228 1046 228 1046 199 1024 c 1,12,-1
 32 1024 l 1,13,-1
 32 1536 l 1,14,-1
 1184 1536 l 1,15,-1
 1184 1152 l 1,16,17
 1141 1051 1141 1051 1093.5 932 c 128,-1,18
 1046 813 1046 813 997 671 c 128,-1,19
 948 529 948 529 898 362 c 128,-1,20
 848 195 848 195 801 -1 c 1,21,-1
 142 -1 l 1,0,1
EndSplineSet
Validated: 1
EndChar

StartChar: Euro
Encoding: 8364 8364 75
Width: 1681
Flags: MW
LayerCount: 2
Fore
SplineSet
192 1001 m 1,0,1
 220 1150 220 1150 287.5 1258.5 c 128,-1,2
 355 1367 355 1367 456 1437.5 c 128,-1,3
 557 1508 557 1508 689 1542 c 128,-1,4
 821 1576 821 1576 978 1576 c 0,5,6
 1117 1576 1117 1576 1221.5 1556 c 128,-1,7
 1326 1536 1326 1536 1404 1513 c 0,8,9
 1496 1485 1496 1485 1570 1450 c 1,10,-1
 1570 973 l 1,11,-1
 1289 973 l 1,12,13
 1241 1061 1241 1061 1180.5 1102 c 128,-1,14
 1120 1143 1120 1143 1057 1143 c 0,15,16
 988 1143 988 1143 924.5 1106.5 c 128,-1,17
 861 1070 861 1070 819 1001 c 1,18,-1
 1057 1001 l 1,19,-1
 1057 835 l 1,20,-1
 766 835 l 1,21,22
 765 823 765 823 764.5 811 c 128,-1,23
 764 799 764 799 764 786 c 256,24,25
 764 773 764 773 764.5 760.5 c 128,-1,26
 765 748 765 748 766 737 c 1,27,-1
 1057 737 l 1,28,-1
 1057 571 l 1,29,-1
 811 571 l 1,30,31
 851 499 851 499 922 467 c 128,-1,32
 993 435 993 435 1095 435 c 0,33,34
 1183 435 1183 435 1304 463.5 c 128,-1,35
 1425 492 1425 492 1570 552 c 1,36,-1
 1570 71 l 1,37,38
 1417 17 1417 17 1271.5 -11.5 c 128,-1,39
 1126 -40 1126 -40 986 -40 c 0,40,41
 839 -40 839 -40 707.5 -3 c 128,-1,42
 576 34 576 34 471.5 110 c 128,-1,43
 367 186 367 186 294.5 300.5 c 128,-1,44
 222 415 222 415 192 571 c 1,45,-1
 57 571 l 1,46,-1
 57 737 l 1,47,-1
 174 737 l 1,48,49
 173 749 173 749 173 761 c 128,-1,50
 173 773 173 773 173 786 c 0,51,52
 173 798 173 798 173 810.5 c 128,-1,53
 173 823 173 823 174 835 c 1,54,-1
 57 835 l 1,55,-1
 57 1001 l 1,56,-1
 192 1001 l 1,0,1
EndSplineSet
Validated: 1
EndChar

StartChar: dotlessi
Encoding: 305 305 76
Width: 1036
Flags: MW
LayerCount: 2
Fore
SplineSet
97 1408 m 1,0,-1
 939 1408 l 1,1,-1
 939 1014 l 1,2,-1
 819 991 l 1,3,-1
 819 422 l 1,4,-1
 939 399 l 1,5,-1
 939 0 l 1,6,-1
 97 0 l 1,7,-1
 97 399 l 1,8,-1
 217 422 l 1,9,-1
 217 991 l 1,10,-1
 97 1014 l 1,11,-1
 97 1408 l 1,0,-1
EndSplineSet
Validated: 1
EndChar

StartChar: sterling
Encoding: 163 163 77
Width: 1477
Flags: MW
LayerCount: 2
Fore
SplineSet
97 832 m 1,0,-1
 244 832 l 1,1,2
 104 1008 104 1008 104 1164 c 0,3,4
 104 1253 104 1253 151 1328.5 c 128,-1,5
 198 1404 198 1404 293 1459 c 128,-1,6
 388 1514 388 1514 531 1545 c 128,-1,7
 674 1576 674 1576 866 1576 c 0,8,9
 963 1576 963 1576 1042 1564 c 128,-1,10
 1121 1552 1121 1552 1183.5 1533.5 c 128,-1,11
 1246 1515 1246 1515 1294 1493 c 128,-1,12
 1342 1471 1342 1471 1377 1450 c 1,13,-1
 1377 973 l 1,14,-1
 1077 973 l 1,15,16
 1068 1011 1068 1011 1049 1037.5 c 128,-1,17
 1030 1064 1030 1064 1005 1081 c 128,-1,18
 980 1098 980 1098 950 1105.5 c 128,-1,19
 920 1113 920 1113 889 1113 c 0,20,21
 862 1113 862 1113 835 1102 c 128,-1,22
 808 1091 808 1091 787 1073 c 128,-1,23
 766 1055 766 1055 753 1031 c 128,-1,24
 740 1007 740 1007 740 980 c 0,25,26
 740 945 740 945 755 907.5 c 128,-1,27
 770 870 770 870 797 832 c 1,28,-1
 1121 832 l 1,29,-1
 1121 606 l 1,30,-1
 795 606 l 1,31,-1
 735 344 l 1,32,33
 811 344 811 344 881.5 355.5 c 128,-1,34
 952 367 952 367 1013 385 c 128,-1,35
 1074 403 1074 403 1124 426 c 128,-1,36
 1174 449 1174 449 1210 472 c 1,37,-1
 1377 472 l 1,38,-1
 1377 0 l 1,39,-1
 97 0 l 1,40,-1
 97 434 l 1,41,42
 104 445 104 445 118.5 464 c 128,-1,43
 133 483 133 483 152 506 c 128,-1,44
 171 529 171 529 192.5 554.5 c 128,-1,45
 214 580 214 580 236 606 c 1,46,-1
 97 606 l 1,47,-1
 97 832 l 1,0,-1
EndSplineSet
Validated: 1
EndChar

StartChar: dollar
Encoding: 36 36 78
Width: 1455
Flags: MW
LayerCount: 2
Fore
SplineSet
599 -36 m 1,0,1
 499 -30 499 -30 419.5 -17 c 128,-1,2
 340 -4 340 -4 277 13 c 128,-1,3
 214 30 214 30 164.5 49 c 128,-1,4
 115 68 115 68 75 87 c 1,5,-1
 75 494 l 1,6,-1
 376 494 l 1,7,8
 428 422 428 422 493.5 388 c 128,-1,9
 559 354 559 354 628 354 c 0,10,11
 646 354 646 354 668 357 c 128,-1,12
 690 360 690 360 709.5 374 c 128,-1,13
 729 388 729 388 742.5 418 c 128,-1,14
 756 448 756 448 756 502 c 1,15,16
 670 510 670 510 585.5 525 c 128,-1,17
 501 540 501 540 424 566 c 128,-1,18
 347 592 347 592 280.5 631.5 c 128,-1,19
 214 671 214 671 165.5 727 c 128,-1,20
 117 783 117 783 89.5 858.5 c 128,-1,21
 62 934 62 934 62 1033 c 0,22,23
 62 1177 62 1177 106.5 1274.5 c 128,-1,24
 151 1372 151 1372 225.5 1434 c 128,-1,25
 300 1496 300 1496 397 1527 c 128,-1,26
 494 1558 494 1558 599 1569 c 1,27,-1
 599 1920 l 1,28,-1
 919 1920 l 1,29,-1
 919 1567 l 1,30,31
 1004 1558 1004 1558 1072.5 1544.5 c 128,-1,32
 1141 1531 1141 1531 1195 1515.5 c 128,-1,33
 1249 1500 1249 1500 1290 1483 c 128,-1,34
 1331 1466 1331 1466 1363 1450 c 1,35,-1
 1363 1043 l 1,36,-1
 1062 1043 l 1,37,38
 1011 1115 1011 1115 948.5 1149 c 128,-1,39
 886 1183 886 1183 820 1183 c 0,40,41
 802 1183 802 1183 779 1178.5 c 128,-1,42
 756 1174 756 1174 736 1157.5 c 128,-1,43
 716 1141 716 1141 702 1109.5 c 128,-1,44
 688 1078 688 1078 688 1024 c 1,45,46
 863 1018 863 1018 996 986 c 128,-1,47
 1129 954 1129 954 1217.5 889.5 c 128,-1,48
 1306 825 1306 825 1351 724.5 c 128,-1,49
 1396 624 1396 624 1396 482 c 0,50,51
 1396 359 1396 359 1357.5 271 c 128,-1,52
 1319 183 1319 183 1253.5 123 c 128,-1,53
 1188 63 1188 63 1101.5 28.5 c 128,-1,54
 1015 -6 1015 -6 919 -22 c 1,55,-1
 919 -385 l 1,56,-1
 599 -385 l 1,57,-1
 599 -36 l 1,0,1
EndSplineSet
Validated: 1
EndChar

StartChar: fraction
Encoding: 8260 8260 79
Width: 1015
Flags: MW
LayerCount: 2
Fore
SplineSet
380 1536 m 1,0,-1
 1020 1536 l 1,1,-1
 636 0 l 1,2,-1
 -4 0 l 1,3,-1
 380 1536 l 1,0,-1
EndSplineSet
Validated: 1
EndChar

StartChar: five
Encoding: 53 53 80
Width: 1474
Flags: MW
LayerCount: 2
Fore
SplineSet
648 333 m 0,0,1
 695 333 695 333 732 339 c 128,-1,2
 769 345 769 345 794.5 363 c 128,-1,3
 820 381 820 381 833.5 415 c 128,-1,4
 847 449 847 449 847 506 c 0,5,6
 847 555 847 555 831 588.5 c 128,-1,7
 815 622 815 622 786.5 642 c 128,-1,8
 758 662 758 662 719 670.5 c 128,-1,9
 680 679 680 679 634 679 c 0,10,11
 586 679 586 679 533 675.5 c 128,-1,12
 480 672 480 672 425 665.5 c 128,-1,13
 370 659 370 659 316 651 c 128,-1,14
 262 643 262 643 213 634 c 1,15,-1
 87 738 l 1,16,-1
 87 1536 l 1,17,-1
 1309 1536 l 1,18,-1
 1309 1063 l 1,19,-1
 1008 1063 l 1,20,21
 951 1114 951 1114 881 1138 c 128,-1,22
 811 1162 811 1162 736 1162 c 2,23,-1
 578 1162 l 1,24,-1
 563 927 l 1,25,26
 617 950 617 950 674.5 961 c 128,-1,27
 732 972 732 972 786 972 c 0,28,29
 867 972 867 972 945.5 960.5 c 128,-1,30
 1024 949 1024 949 1094.5 924.5 c 128,-1,31
 1165 900 1165 900 1224 863 c 128,-1,32
 1283 826 1283 826 1326 775.5 c 128,-1,33
 1369 725 1369 725 1393 660 c 128,-1,34
 1417 595 1417 595 1417 516 c 0,35,36
 1417 420 1417 420 1390 342 c 128,-1,37
 1363 264 1363 264 1314.5 203.5 c 128,-1,38
 1266 143 1266 143 1199 99 c 128,-1,39
 1132 55 1132 55 1052 26.5 c 128,-1,40
 972 -2 972 -2 881.5 -15.5 c 128,-1,41
 791 -29 791 -29 696 -29 c 0,42,43
 619 -29 619 -29 539.5 -20.5 c 128,-1,44
 460 -12 460 -12 382 3.5 c 128,-1,45
 304 19 304 19 229.5 42.5 c 128,-1,46
 155 66 155 66 87 96 c 1,47,-1
 87 473 l 1,48,-1
 386 473 l 1,49,50
 443 401 443 401 508 367 c 128,-1,51
 573 333 573 333 648 333 c 0,0,1
EndSplineSet
Validated: 1
EndChar

StartChar: quoteright
Encoding: 8217 8217 81
Width: 784
Flags: MW
LayerCount: 2
Fore
SplineSet
69 1536 m 1,0,-1
 709 1536 l 1,1,-1
 709 1025 l 2,2,3
 709 898 709 898 665 811.5 c 128,-1,4
 621 725 621 725 549 671.5 c 128,-1,5
 477 618 477 618 385 595 c 128,-1,6
 293 572 293 572 197 572 c 1,7,-1
 197 896 l 1,8,9
 216 897 216 897 238 903 c 128,-1,10
 260 909 260 909 279 923 c 128,-1,11
 298 937 298 937 311 961.5 c 128,-1,12
 324 986 324 986 324 1024 c 1,13,-1
 69 1024 l 1,14,-1
 69 1536 l 1,0,-1
EndSplineSet
Validated: 1
EndChar

StartChar: quoteleft
Encoding: 8216 8216 82
Width: 841
Flags: MW
LayerCount: 2
Fore
SplineSet
747 640 m 1,0,-1
 107 640 l 1,1,-1
 107 1151 l 2,2,3
 107 1269 107 1269 151 1350.5 c 128,-1,4
 195 1432 195 1432 267 1482 c 128,-1,5
 339 1532 339 1532 431 1554 c 128,-1,6
 523 1576 523 1576 619 1576 c 1,7,-1
 619 1280 l 1,8,9
 599 1279 599 1279 576.5 1273 c 128,-1,10
 554 1267 554 1267 535.5 1253 c 128,-1,11
 517 1239 517 1239 504.5 1214.5 c 128,-1,12
 492 1190 492 1190 492 1152 c 1,13,-1
 747 1152 l 1,14,-1
 747 640 l 1,0,-1
EndSplineSet
Validated: 1
EndChar

StartChar: quotedblleft
Encoding: 8220 8220 83
Width: 1609
Flags: MW
LayerCount: 2
Fore
SplineSet
1515 640 m 1,0,-1
 875 640 l 1,1,-1
 875 1151 l 2,2,3
 875 1269 875 1269 919 1350.5 c 128,-1,4
 963 1432 963 1432 1035 1482 c 128,-1,5
 1107 1532 1107 1532 1199 1554 c 128,-1,6
 1291 1576 1291 1576 1387 1576 c 1,7,-1
 1387 1280 l 1,8,9
 1367 1279 1367 1279 1344.5 1273 c 128,-1,10
 1322 1267 1322 1267 1303.5 1253 c 128,-1,11
 1285 1239 1285 1239 1272.5 1214.5 c 128,-1,12
 1260 1190 1260 1190 1260 1152 c 1,13,-1
 1515 1152 l 1,14,-1
 1515 640 l 1,0,-1
747 640 m 1,15,-1
 107 640 l 1,16,-1
 107 1151 l 2,17,18
 107 1269 107 1269 151 1350.5 c 128,-1,19
 195 1432 195 1432 267 1482 c 128,-1,20
 339 1532 339 1532 431 1554 c 128,-1,21
 523 1576 523 1576 619 1576 c 1,22,-1
 619 1280 l 1,23,24
 599 1279 599 1279 576.5 1273 c 128,-1,25
 554 1267 554 1267 535.5 1253 c 128,-1,26
 517 1239 517 1239 504.5 1214.5 c 128,-1,27
 492 1190 492 1190 492 1152 c 1,28,-1
 747 1152 l 1,29,-1
 747 640 l 1,15,-1
EndSplineSet
Validated: 1
EndChar

StartChar: quotedblright
Encoding: 8221 8221 84
Width: 1552
Flags: MW
LayerCount: 2
Fore
SplineSet
837 1536 m 1,0,-1
 1477 1536 l 1,1,-1
 1477 1025 l 2,2,3
 1477 898 1477 898 1433 811.5 c 128,-1,4
 1389 725 1389 725 1317 671.5 c 128,-1,5
 1245 618 1245 618 1153 595 c 128,-1,6
 1061 572 1061 572 965 572 c 1,7,-1
 965 896 l 1,8,9
 984 897 984 897 1006 903 c 128,-1,10
 1028 909 1028 909 1047 923 c 128,-1,11
 1066 937 1066 937 1079 961.5 c 128,-1,12
 1092 986 1092 986 1092 1024 c 1,13,-1
 837 1024 l 1,14,-1
 837 1536 l 1,0,-1
69 1536 m 1,15,-1
 709 1536 l 1,16,-1
 709 1025 l 2,17,18
 709 898 709 898 665 811.5 c 128,-1,19
 621 725 621 725 549 671.5 c 128,-1,20
 477 618 477 618 385 595 c 128,-1,21
 293 572 293 572 197 572 c 1,22,-1
 197 896 l 1,23,24
 216 897 216 897 238 903 c 128,-1,25
 260 909 260 909 279 923 c 128,-1,26
 298 937 298 937 311 961.5 c 128,-1,27
 324 986 324 986 324 1024 c 1,28,-1
 69 1024 l 1,29,-1
 69 1536 l 1,15,-1
EndSplineSet
Validated: 1
EndChar

StartChar: bar
Encoding: 124 124 85
Width: 781
Flags: MW
LayerCount: 2
Fore
SplineSet
134 1664 m 1,0,-1
 647 1664 l 1,1,-1
 647 -128 l 1,2,-1
 134 -128 l 1,3,-1
 134 1664 l 1,0,-1
EndSplineSet
Validated: 1
EndChar

StartChar: brokenbar
Encoding: 166 166 86
Width: 788
Flags: MW
LayerCount: 2
Fore
SplineSet
137 1664 m 1,0,-1
 650 1664 l 1,1,-1
 650 896 l 1,2,-1
 137 896 l 1,3,-1
 137 1664 l 1,0,-1
137 704 m 1,4,-1
 650 704 l 1,5,-1
 650 -128 l 1,6,-1
 137 -128 l 1,7,-1
 137 704 l 1,4,-1
EndSplineSet
Validated: 1
EndChar

StartChar: cent
Encoding: 162 162 87
Width: 1542
Flags: MW
LayerCount: 2
Fore
SplineSet
669 -21 m 1,0,1
 534 2 534 2 421.5 59 c 128,-1,2
 309 116 309 116 227 208.5 c 128,-1,3
 145 301 145 301 99.5 429.5 c 128,-1,4
 54 558 54 558 54 723 c 0,5,6
 54 887 54 887 97 1011.5 c 128,-1,7
 140 1136 140 1136 219.5 1224 c 128,-1,8
 299 1312 299 1312 413 1364.5 c 128,-1,9
 527 1417 527 1417 669 1437 c 1,10,-1
 669 1664 l 1,11,-1
 1054 1664 l 1,12,-1
 1054 1438 l 1,13,14
 1128 1429 1128 1429 1187.5 1417 c 128,-1,15
 1247 1405 1247 1405 1294.5 1391 c 128,-1,16
 1342 1377 1342 1377 1378.5 1362.5 c 128,-1,17
 1415 1348 1415 1348 1442 1334 c 1,18,-1
 1442 895 l 1,19,-1
 1159 895 l 1,20,21
 1111 961 1111 961 1053 992.5 c 128,-1,22
 995 1024 995 1024 932 1024 c 0,23,24
 880 1024 880 1024 830.5 1004 c 128,-1,25
 781 984 781 984 742.5 945.5 c 128,-1,26
 704 907 704 907 680.5 851 c 128,-1,27
 657 795 657 795 657 723 c 0,28,29
 657 564 657 564 738 491.5 c 128,-1,30
 819 419 819 419 968 419 c 0,31,32
 1056 419 1056 419 1176.5 441 c 128,-1,33
 1297 463 1297 463 1442 508 c 1,34,-1
 1442 65 l 1,35,36
 1244 -1 1244 -1 1054 -25 c 1,37,-1
 1054 -258 l 1,38,-1
 669 -258 l 1,39,-1
 669 -21 l 1,0,1
EndSplineSet
Validated: 1
EndChar

StartChar: paragraph
Encoding: 182 182 88
Width: 1697
Flags: MW
LayerCount: 2
Fore
SplineSet
1585 1014 m 1,0,-1
 1465 991 l 1,1,-1
 1465 422 l 1,2,-1
 1585 399 l 1,3,-1
 1585 0 l 1,4,-1
 1081 0 l 1,5,-1
 1081 896 l 1,6,-1
 953 896 l 1,7,-1
 953 0 l 1,8,-1
 449 0 l 1,9,-1
 449 399 l 1,10,-1
 569 422 l 1,11,-1
 569 543 l 1,12,13
 458 543 458 543 377 557 c 128,-1,14
 296 571 296 571 239 597.5 c 128,-1,15
 182 624 182 624 146 662.5 c 128,-1,16
 110 701 110 701 90 749.5 c 128,-1,17
 70 798 70 798 63 856 c 128,-1,18
 56 914 56 914 56 980 c 0,19,20
 56 1044 56 1044 66 1100.5 c 128,-1,21
 76 1157 76 1157 104 1204.5 c 128,-1,22
 132 1252 132 1252 181.5 1290 c 128,-1,23
 231 1328 231 1328 309.5 1354 c 128,-1,24
 388 1380 388 1380 500.5 1394 c 128,-1,25
 613 1408 613 1408 766 1408 c 2,26,-1
 1585 1408 l 1,27,-1
 1585 1014 l 1,0,-1
EndSplineSet
Validated: 1
EndChar

StartChar: mu
Encoding: 956 956 89
Width: 1825
Flags: MW
LayerCount: 2
Fore
SplineSet
174 991 m 1,0,-1
 54 1014 l 1,1,-1
 54 1408 l 1,2,-1
 835 1408 l 1,3,-1
 835 1014 l 1,4,-1
 715 991 l 1,5,-1
 716 541 l 1,6,7
 730 524 730 524 751.5 504 c 128,-1,8
 773 484 773 484 802.5 467 c 128,-1,9
 832 450 832 450 870 439 c 128,-1,10
 908 428 908 428 955 428 c 0,11,12
 1015 428 1015 428 1056.5 443.5 c 128,-1,13
 1098 459 1098 459 1124.5 484.5 c 128,-1,14
 1151 510 1151 510 1166 542 c 128,-1,15
 1181 574 1181 574 1187.5 606.5 c 128,-1,16
 1194 639 1194 639 1195.5 669.5 c 128,-1,17
 1197 700 1197 700 1197 723 c 0,18,19
 1197 730 1197 730 1197 745.5 c 128,-1,20
 1197 761 1197 761 1196.5 781.5 c 128,-1,21
 1196 802 1196 802 1196 825.5 c 128,-1,22
 1196 849 1196 849 1196 872 c 2,23,-1
 1196 991 l 1,24,-1
 1076 1014 l 1,25,-1
 1076 1408 l 1,26,-1
 1770 1408 l 1,27,-1
 1770 1014 l 1,28,-1
 1649 991 l 1,29,30
 1648 961 1648 961 1648 932.5 c 128,-1,31
 1648 904 1648 904 1648 878 c 2,32,-1
 1648 723 l 2,33,34
 1648 520 1648 520 1596.5 375.5 c 128,-1,35
 1545 231 1545 231 1456 139 c 128,-1,36
 1367 47 1367 47 1248.5 4.5 c 128,-1,37
 1130 -38 1130 -38 995 -38 c 0,38,39
 910 -38 910 -38 834.5 -17.5 c 128,-1,40
 759 3 759 3 687 46 c 1,41,-1
 687 -255 l 1,42,-1
 174 -255 l 1,43,-1
 174 991 l 1,0,-1
EndSplineSet
Validated: 1
EndChar

StartChar: bracketleft
Encoding: 91 91 90
Width: 1242
Flags: MW
LayerCount: 2
Fore
SplineSet
139 1536 m 1,0,-1
 1164 1536 l 1,1,-1
 1164 1151 l 1,2,3
 1128 1163 1128 1163 1086 1175 c 128,-1,4
 1044 1187 1044 1187 995.5 1196.5 c 128,-1,5
 947 1206 947 1206 892.5 1212.5 c 128,-1,6
 838 1219 838 1219 779 1219 c 1,7,-1
 779 316 l 1,8,9
 898 316 898 316 995 338 c 128,-1,10
 1092 360 1092 360 1164 384 c 1,11,-1
 1164 0 l 1,12,-1
 139 0 l 1,13,-1
 139 1536 l 1,0,-1
EndSplineSet
Validated: 1
EndChar

StartChar: bracketright
Encoding: 93 93 91
Width: 1242
Flags: MW
LayerCount: 2
Fore
SplineSet
1103 0 m 1,0,-1
 78 0 l 1,1,-1
 78 384 l 1,2,3
 150 360 150 360 246.5 338 c 128,-1,4
 343 316 343 316 463 316 c 1,5,-1
 463 1219 l 1,6,7
 343 1219 343 1219 246.5 1197 c 128,-1,8
 150 1175 150 1175 78 1151 c 1,9,-1
 78 1536 l 1,10,-1
 1103 1536 l 1,11,-1
 1103 0 l 1,0,-1
EndSplineSet
Validated: 1
EndChar

StartChar: backslash
Encoding: 92 92 92
Width: 1133
Flags: MW
LayerCount: 2
Fore
SplineSet
1077 0 m 1,0,-1
 437 0 l 1,1,-1
 53 1536 l 1,2,-1
 693 1536 l 1,3,-1
 1077 0 l 1,0,-1
EndSplineSet
Validated: 1
EndChar

StartChar: numbersign
Encoding: 35 35 93
Width: 1552
Flags: MW
LayerCount: 2
Fore
SplineSet
822 256 m 1,0,-1
 566 256 l 1,1,-1
 524 0 l 1,2,-1
 140 0 l 1,3,-1
 182 256 l 1,4,-1
 76 256 l 1,5,-1
 76 640 l 1,6,-1
 246 640 l 1,7,-1
 289 896 l 1,8,-1
 131 896 l 1,9,-1
 131 1280 l 1,10,-1
 353 1280 l 1,11,-1
 396 1536 l 1,12,-1
 780 1536 l 1,13,-1
 737 1280 l 1,14,-1
 993 1280 l 1,15,-1
 1036 1536 l 1,16,-1
 1420 1536 l 1,17,-1
 1377 1280 l 1,18,-1
 1475 1280 l 1,19,-1
 1475 896 l 1,20,-1
 1313 896 l 1,21,-1
 1270 640 l 1,22,-1
 1423 640 l 1,23,-1
 1423 256 l 1,24,-1
 1206 256 l 1,25,-1
 1164 0 l 1,26,-1
 780 0 l 1,27,-1
 822 256 l 1,0,-1
630 640 m 1,28,-1
 886 640 l 1,29,-1
 929 896 l 1,30,-1
 673 896 l 1,31,-1
 630 640 l 1,28,-1
EndSplineSet
Validated: 1
EndChar

StartChar: parenleft
Encoding: 40 40 94
Width: 1055
Flags: MW
LayerCount: 2
Fore
SplineSet
42 768 m 256,0,1
 42 869 42 869 62.5 968 c 128,-1,2
 83 1067 83 1067 124.5 1157 c 128,-1,3
 166 1247 166 1247 228 1324 c 128,-1,4
 290 1401 290 1401 372.5 1457 c 128,-1,5
 455 1513 455 1513 558 1545 c 128,-1,6
 661 1577 661 1577 785 1577 c 0,7,8
 833 1577 833 1577 881 1572.5 c 128,-1,9
 929 1568 929 1568 983 1557 c 1,10,-1
 983 1205 l 1,11,12
 914 1203 914 1203 862.5 1181.5 c 128,-1,13
 811 1160 811 1160 774 1125 c 128,-1,14
 737 1090 737 1090 713 1045.5 c 128,-1,15
 689 1001 689 1001 675 953 c 128,-1,16
 661 905 661 905 655.5 857 c 128,-1,17
 650 809 650 809 650 768 c 256,18,19
 650 727 650 727 655.5 679 c 128,-1,20
 661 631 661 631 675 583 c 128,-1,21
 689 535 689 535 713 490 c 128,-1,22
 737 445 737 445 774 410 c 128,-1,23
 811 375 811 375 862.5 353.5 c 128,-1,24
 914 332 914 332 983 331 c 1,25,-1
 983 -21 l 1,26,27
 929 -32 929 -32 881 -36.5 c 128,-1,28
 833 -41 833 -41 785 -41 c 0,29,30
 661 -41 661 -41 558 -9 c 128,-1,31
 455 23 455 23 372.5 79 c 128,-1,32
 290 135 290 135 228 212 c 128,-1,33
 166 289 166 289 124.5 379 c 128,-1,34
 83 469 83 469 62.5 568 c 128,-1,35
 42 667 42 667 42 768 c 256,0,1
EndSplineSet
Validated: 1
EndChar

StartChar: parenright
Encoding: 41 41 95
Width: 1055
Flags: MW
LayerCount: 2
Fore
SplineSet
1013 768 m 256,0,1
 1013 667 1013 667 992.5 568 c 128,-1,2
 972 469 972 469 930.5 379 c 128,-1,3
 889 289 889 289 827 212 c 128,-1,4
 765 135 765 135 682.5 79 c 128,-1,5
 600 23 600 23 497 -9 c 128,-1,6
 394 -41 394 -41 270 -41 c 0,7,8
 222 -41 222 -41 174 -36.5 c 128,-1,9
 126 -32 126 -32 72 -21 c 1,10,-1
 72 331 l 1,11,12
 141 333 141 333 192.5 354.5 c 128,-1,13
 244 376 244 376 281 411 c 128,-1,14
 318 446 318 446 342 490.5 c 128,-1,15
 366 535 366 535 380 583 c 128,-1,16
 394 631 394 631 399.5 678.5 c 128,-1,17
 405 726 405 726 405 768 c 0,18,19
 405 809 405 809 399.5 857 c 128,-1,20
 394 905 394 905 380 953 c 128,-1,21
 366 1001 366 1001 342 1045.5 c 128,-1,22
 318 1090 318 1090 281 1125 c 128,-1,23
 244 1160 244 1160 192.5 1181.5 c 128,-1,24
 141 1203 141 1203 72 1205 c 1,25,-1
 72 1557 l 1,26,27
 126 1568 126 1568 174 1572.5 c 128,-1,28
 222 1577 222 1577 270 1577 c 0,29,30
 394 1577 394 1577 497 1545 c 128,-1,31
 600 1513 600 1513 682.5 1457 c 128,-1,32
 765 1401 765 1401 827 1324 c 128,-1,33
 889 1247 889 1247 930.5 1157 c 128,-1,34
 972 1067 972 1067 992.5 968 c 128,-1,35
 1013 869 1013 869 1013 768 c 256,0,1
EndSplineSet
Validated: 1
EndChar

StartChar: exclamdown
Encoding: 161 161 96
Width: 957
Flags: MW
LayerCount: 2
Fore
SplineSet
159 1536 m 1,0,-1
 799 1536 l 1,1,-1
 799 1152 l 1,2,-1
 159 1152 l 1,3,-1
 159 1536 l 1,0,-1
223 1024 m 1,4,-1
 735 1024 l 1,5,-1
 863 399 l 1,6,-1
 863 0 l 1,7,-1
 159 0 l 1,8,-1
 94 399 l 1,9,-1
 223 1024 l 1,4,-1
EndSplineSet
Validated: 1
EndChar

StartChar: percent
Encoding: 37 37 97
Width: 3461
Flags: MW
LayerCount: 2
Fore
SplineSet
663 378 m 256,0,1
 537 378 537 378 426.5 412.5 c 128,-1,2
 316 447 316 447 233.5 520.5 c 128,-1,3
 151 594 151 594 103.5 710 c 128,-1,4
 56 826 56 826 56 990 c 0,5,6
 56 1148 56 1148 103.5 1259.5 c 128,-1,7
 151 1371 151 1371 233.5 1441 c 128,-1,8
 316 1511 316 1511 426.5 1543 c 128,-1,9
 537 1575 537 1575 663 1575 c 0,10,11
 788 1575 788 1575 899 1543 c 128,-1,12
 1010 1511 1010 1511 1092.5 1441 c 128,-1,13
 1175 1371 1175 1371 1223 1259.5 c 128,-1,14
 1271 1148 1271 1148 1271 990 c 0,15,16
 1271 826 1271 826 1223 710 c 128,-1,17
 1175 594 1175 594 1092.5 520.5 c 128,-1,18
 1010 447 1010 447 899.5 412.5 c 128,-1,19
 789 378 789 378 663 378 c 256,0,1
1589 1536 m 1,20,-1
 2229 1536 l 1,21,-1
 1845 0 l 1,22,-1
 1205 0 l 1,23,-1
 1589 1536 l 1,20,-1
663 1224 m 256,24,25
 620 1224 620 1224 590 1211.5 c 128,-1,26
 560 1199 560 1199 541 1179.5 c 128,-1,27
 522 1160 522 1160 511.5 1134.5 c 128,-1,28
 501 1109 501 1109 496.5 1083 c 128,-1,29
 492 1057 492 1057 491 1032.5 c 128,-1,30
 490 1008 490 1008 490 990 c 256,31,32
 490 972 490 972 491 947.5 c 128,-1,33
 492 923 492 923 496.5 896.5 c 128,-1,34
 501 870 501 870 511.5 844.5 c 128,-1,35
 522 819 522 819 541 798.5 c 128,-1,36
 560 778 560 778 590 765.5 c 128,-1,37
 620 753 620 753 663 753 c 256,38,39
 706 753 706 753 736 765.5 c 128,-1,40
 766 778 766 778 785 798.5 c 128,-1,41
 804 819 804 819 814.5 844.5 c 128,-1,42
 825 870 825 870 830 896.5 c 128,-1,43
 835 923 835 923 836 947.5 c 128,-1,44
 837 972 837 972 837 990 c 256,45,46
 837 1008 837 1008 836 1032.5 c 128,-1,47
 835 1057 835 1057 830 1083 c 128,-1,48
 825 1109 825 1109 814.5 1134.5 c 128,-1,49
 804 1160 804 1160 785 1179.5 c 128,-1,50
 766 1199 766 1199 736 1211.5 c 128,-1,51
 706 1224 706 1224 663 1224 c 256,24,25
2797 -42 m 256,52,53
 2671 -42 2671 -42 2560.5 -7.5 c 128,-1,54
 2450 27 2450 27 2367.5 100.5 c 128,-1,55
 2285 174 2285 174 2237.5 290 c 128,-1,56
 2190 406 2190 406 2190 570 c 0,57,58
 2190 728 2190 728 2237.5 839.5 c 128,-1,59
 2285 951 2285 951 2367.5 1021 c 128,-1,60
 2450 1091 2450 1091 2560.5 1123 c 128,-1,61
 2671 1155 2671 1155 2797 1155 c 0,62,63
 2922 1155 2922 1155 3033 1123 c 128,-1,64
 3144 1091 3144 1091 3226.5 1021 c 128,-1,65
 3309 951 3309 951 3357 839.5 c 128,-1,66
 3405 728 3405 728 3405 570 c 0,67,68
 3405 406 3405 406 3357 290 c 128,-1,69
 3309 174 3309 174 3226.5 100.5 c 128,-1,70
 3144 27 3144 27 3033.5 -7.5 c 128,-1,71
 2923 -42 2923 -42 2797 -42 c 256,52,53
2797 804 m 256,72,73
 2754 804 2754 804 2724 791.5 c 128,-1,74
 2694 779 2694 779 2675 759.5 c 128,-1,75
 2656 740 2656 740 2645.5 714.5 c 128,-1,76
 2635 689 2635 689 2630.5 663 c 128,-1,77
 2626 637 2626 637 2625 612.5 c 128,-1,78
 2624 588 2624 588 2624 570 c 256,79,80
 2624 552 2624 552 2625 527.5 c 128,-1,81
 2626 503 2626 503 2630.5 476.5 c 128,-1,82
 2635 450 2635 450 2645.5 424.5 c 128,-1,83
 2656 399 2656 399 2675 378.5 c 128,-1,84
 2694 358 2694 358 2724 345.5 c 128,-1,85
 2754 333 2754 333 2797 333 c 256,86,87
 2840 333 2840 333 2870 345.5 c 128,-1,88
 2900 358 2900 358 2919 378.5 c 128,-1,89
 2938 399 2938 399 2948.5 424.5 c 128,-1,90
 2959 450 2959 450 2964 476.5 c 128,-1,91
 2969 503 2969 503 2970 527.5 c 128,-1,92
 2971 552 2971 552 2971 570 c 256,93,94
 2971 588 2971 588 2970 612.5 c 128,-1,95
 2969 637 2969 637 2964 663 c 128,-1,96
 2959 689 2959 689 2948.5 714.5 c 128,-1,97
 2938 740 2938 740 2919 759.5 c 128,-1,98
 2900 779 2900 779 2870 791.5 c 128,-1,99
 2840 804 2840 804 2797 804 c 256,72,73
EndSplineSet
Validated: 1
EndChar

StartChar: ordmasculine
Encoding: 186 186 98
Width: 1395
Flags: MW
LayerCount: 2
Fore
SplineSet
697 479 m 0,0,1
 567 479 567 479 454 510.5 c 128,-1,2
 341 542 341 542 257 609.5 c 128,-1,3
 173 677 173 677 125 783 c 128,-1,4
 77 889 77 889 77 1039 c 0,5,6
 77 1184 77 1184 125.5 1286 c 128,-1,7
 174 1388 174 1388 258 1452 c 128,-1,8
 342 1516 342 1516 455 1545.5 c 128,-1,9
 568 1575 568 1575 697 1575 c 256,10,11
 826 1575 826 1575 939 1545.5 c 128,-1,12
 1052 1516 1052 1516 1136 1452 c 128,-1,13
 1220 1388 1220 1388 1269 1286 c 128,-1,14
 1318 1184 1318 1184 1318 1039 c 0,15,16
 1318 889 1318 889 1269.5 783 c 128,-1,17
 1221 677 1221 677 1137 609.5 c 128,-1,18
 1053 542 1053 542 939.5 510.5 c 128,-1,19
 826 479 826 479 697 479 c 0,0,1
697 1254 m 256,20,21
 653 1254 653 1254 623 1243 c 128,-1,22
 593 1232 593 1232 573 1213.5 c 128,-1,23
 553 1195 553 1195 542.5 1172 c 128,-1,24
 532 1149 532 1149 527 1125 c 128,-1,25
 522 1101 522 1101 521 1078.5 c 128,-1,26
 520 1056 520 1056 520 1039 c 0,27,28
 520 1014 520 1014 523 977 c 128,-1,29
 526 940 526 940 542.5 905.5 c 128,-1,30
 559 871 559 871 595 846.5 c 128,-1,31
 631 822 631 822 697 822 c 256,32,33
 763 822 763 822 799.5 846.5 c 128,-1,34
 836 871 836 871 852.5 905.5 c 128,-1,35
 869 940 869 940 872 977 c 128,-1,36
 875 1014 875 1014 875 1039 c 0,37,38
 875 1056 875 1056 874 1078.5 c 128,-1,39
 873 1101 873 1101 868 1125 c 128,-1,40
 863 1149 863 1149 852.5 1172 c 128,-1,41
 842 1195 842 1195 822 1213.5 c 128,-1,42
 802 1232 802 1232 771.5 1243 c 128,-1,43
 741 1254 741 1254 697 1254 c 256,20,21
EndSplineSet
Validated: 1
EndChar

StartChar: circumflex
Encoding: 710 710 99
Width: 1275
Flags: MW
LayerCount: 2
Fore
SplineSet
53 1664 m 1,0,-1
 393 2303 l 1,1,-1
 883 2303 l 1,2,-1
 1222 1664 l 1,3,-1
 797 1664 l 1,4,-1
 638 2047 l 1,5,-1
 478 1664 l 1,6,-1
 53 1664 l 1,0,-1
EndSplineSet
Validated: 1
EndChar

StartChar: asciicircum
Encoding: 94 94 100
Width: 1514
Flags: MW
LayerCount: 2
Fore
SplineSet
53 201 m 1,0,-1
 462 1280 l 1,1,-1
 1052 1280 l 1,2,-1
 1461 201 l 1,3,-1
 949 201 l 1,4,-1
 757 841 l 1,5,-1
 565 201 l 1,6,-1
 53 201 l 1,0,-1
EndSplineSet
Validated: 1
EndChar

StartChar: perthousand
Encoding: 8240 8240 103
Width: 4833
Flags: MW
LayerCount: 2
Fore
SplineSet
663 378 m 256,0,1
 537 378 537 378 426.5 412.5 c 128,-1,2
 316 447 316 447 233.5 520.5 c 128,-1,3
 151 594 151 594 103.5 710 c 128,-1,4
 56 826 56 826 56 990 c 0,5,6
 56 1148 56 1148 103.5 1259.5 c 128,-1,7
 151 1371 151 1371 233.5 1441 c 128,-1,8
 316 1511 316 1511 426.5 1543 c 128,-1,9
 537 1575 537 1575 663 1575 c 0,10,11
 788 1575 788 1575 899 1543 c 128,-1,12
 1010 1511 1010 1511 1092.5 1441 c 128,-1,13
 1175 1371 1175 1371 1223 1259.5 c 128,-1,14
 1271 1148 1271 1148 1271 990 c 0,15,16
 1271 826 1271 826 1223 710 c 128,-1,17
 1175 594 1175 594 1092.5 520.5 c 128,-1,18
 1010 447 1010 447 899.5 412.5 c 128,-1,19
 789 378 789 378 663 378 c 256,0,1
1589 1536 m 1,20,-1
 2229 1536 l 1,21,-1
 1845 0 l 1,22,-1
 1205 0 l 1,23,-1
 1589 1536 l 1,20,-1
663 1224 m 256,24,25
 620 1224 620 1224 590 1211.5 c 128,-1,26
 560 1199 560 1199 541 1179.5 c 128,-1,27
 522 1160 522 1160 511.5 1134.5 c 128,-1,28
 501 1109 501 1109 496.5 1083 c 128,-1,29
 492 1057 492 1057 491 1032.5 c 128,-1,30
 490 1008 490 1008 490 990 c 256,31,32
 490 972 490 972 491 947.5 c 128,-1,33
 492 923 492 923 496.5 896.5 c 128,-1,34
 501 870 501 870 511.5 844.5 c 128,-1,35
 522 819 522 819 541 798.5 c 128,-1,36
 560 778 560 778 590 765.5 c 128,-1,37
 620 753 620 753 663 753 c 256,38,39
 706 753 706 753 736 765.5 c 128,-1,40
 766 778 766 778 785 798.5 c 128,-1,41
 804 819 804 819 814.5 844.5 c 128,-1,42
 825 870 825 870 830 896.5 c 128,-1,43
 835 923 835 923 836 947.5 c 128,-1,44
 837 972 837 972 837 990 c 256,45,46
 837 1008 837 1008 836 1032.5 c 128,-1,47
 835 1057 835 1057 830 1083 c 128,-1,48
 825 1109 825 1109 814.5 1134.5 c 128,-1,49
 804 1160 804 1160 785 1179.5 c 128,-1,50
 766 1199 766 1199 736 1211.5 c 128,-1,51
 706 1224 706 1224 663 1224 c 256,24,25
4169 -42 m 256,52,53
 4043 -42 4043 -42 3932.5 -7.5 c 128,-1,54
 3822 27 3822 27 3739.5 100.5 c 128,-1,55
 3657 174 3657 174 3609.5 290 c 128,-1,56
 3562 406 3562 406 3562 570 c 0,57,58
 3562 728 3562 728 3609.5 839.5 c 128,-1,59
 3657 951 3657 951 3739.5 1021 c 128,-1,60
 3822 1091 3822 1091 3932.5 1123 c 128,-1,61
 4043 1155 4043 1155 4169 1155 c 0,62,63
 4294 1155 4294 1155 4405 1123 c 128,-1,64
 4516 1091 4516 1091 4598.5 1021 c 128,-1,65
 4681 951 4681 951 4729 839.5 c 128,-1,66
 4777 728 4777 728 4777 570 c 0,67,68
 4777 406 4777 406 4729 290 c 128,-1,69
 4681 174 4681 174 4598.5 100.5 c 128,-1,70
 4516 27 4516 27 4405.5 -7.5 c 128,-1,71
 4295 -42 4295 -42 4169 -42 c 256,52,53
2797 -42 m 256,72,73
 2671 -42 2671 -42 2560.5 -7.5 c 128,-1,74
 2450 27 2450 27 2367.5 100.5 c 128,-1,75
 2285 174 2285 174 2237.5 290 c 128,-1,76
 2190 406 2190 406 2190 570 c 0,77,78
 2190 728 2190 728 2237.5 839.5 c 128,-1,79
 2285 951 2285 951 2367.5 1021 c 128,-1,80
 2450 1091 2450 1091 2560.5 1123 c 128,-1,81
 2671 1155 2671 1155 2797 1155 c 0,82,83
 2922 1155 2922 1155 3033 1123 c 128,-1,84
 3144 1091 3144 1091 3226.5 1021 c 128,-1,85
 3309 951 3309 951 3357 839.5 c 128,-1,86
 3405 728 3405 728 3405 570 c 0,87,88
 3405 406 3405 406 3357 290 c 128,-1,89
 3309 174 3309 174 3226.5 100.5 c 128,-1,90
 3144 27 3144 27 3033.5 -7.5 c 128,-1,91
 2923 -42 2923 -42 2797 -42 c 256,72,73
4169 804 m 256,92,93
 4126 804 4126 804 4096 791.5 c 128,-1,94
 4066 779 4066 779 4047 759.5 c 128,-1,95
 4028 740 4028 740 4017.5 714.5 c 128,-1,96
 4007 689 4007 689 4002.5 663 c 128,-1,97
 3998 637 3998 637 3997 612.5 c 128,-1,98
 3996 588 3996 588 3996 570 c 256,99,100
 3996 552 3996 552 3997 527.5 c 128,-1,101
 3998 503 3998 503 4002.5 476.5 c 128,-1,102
 4007 450 4007 450 4017.5 424.5 c 128,-1,103
 4028 399 4028 399 4047 378.5 c 128,-1,104
 4066 358 4066 358 4096 345.5 c 128,-1,105
 4126 333 4126 333 4169 333 c 256,106,107
 4212 333 4212 333 4242 345.5 c 128,-1,108
 4272 358 4272 358 4291 378.5 c 128,-1,109
 4310 399 4310 399 4320.5 424.5 c 128,-1,110
 4331 450 4331 450 4336 476.5 c 128,-1,111
 4341 503 4341 503 4342 527.5 c 128,-1,112
 4343 552 4343 552 4343 570 c 256,113,114
 4343 588 4343 588 4342 612.5 c 128,-1,115
 4341 637 4341 637 4336 663 c 128,-1,116
 4331 689 4331 689 4320.5 714.5 c 128,-1,117
 4310 740 4310 740 4291 759.5 c 128,-1,118
 4272 779 4272 779 4242 791.5 c 128,-1,119
 4212 804 4212 804 4169 804 c 256,92,93
2797 804 m 256,120,121
 2754 804 2754 804 2724 791.5 c 128,-1,122
 2694 779 2694 779 2675 759.5 c 128,-1,123
 2656 740 2656 740 2645.5 714.5 c 128,-1,124
 2635 689 2635 689 2630.5 663 c 128,-1,125
 2626 637 2626 637 2625 612.5 c 128,-1,126
 2624 588 2624 588 2624 570 c 256,127,128
 2624 552 2624 552 2625 527.5 c 128,-1,129
 2626 503 2626 503 2630.5 476.5 c 128,-1,130
 2635 450 2635 450 2645.5 424.5 c 128,-1,131
 2656 399 2656 399 2675 378.5 c 128,-1,132
 2694 358 2694 358 2724 345.5 c 128,-1,133
 2754 333 2754 333 2797 333 c 256,134,135
 2840 333 2840 333 2870 345.5 c 128,-1,136
 2900 358 2900 358 2919 378.5 c 128,-1,137
 2938 399 2938 399 2948.5 424.5 c 128,-1,138
 2959 450 2959 450 2964 476.5 c 128,-1,139
 2969 503 2969 503 2970 527.5 c 128,-1,140
 2971 552 2971 552 2971 570 c 256,141,142
 2971 588 2971 588 2970 612.5 c 128,-1,143
 2969 637 2969 637 2964 663 c 128,-1,144
 2959 689 2959 689 2948.5 714.5 c 128,-1,145
 2938 740 2938 740 2919 759.5 c 128,-1,146
 2900 779 2900 779 2870 791.5 c 128,-1,147
 2840 804 2840 804 2797 804 c 256,120,121
EndSplineSet
Validated: 1
EndChar

StartChar: dieresis
Encoding: 168 168 104
Width: 1359
Flags: MW
LayerCount: 2
Fore
SplineSet
839 2048 m 1,0,-1
 1264 2048 l 1,1,-1
 1264 1664 l 1,2,-1
 839 1664 l 1,3,-1
 839 2048 l 1,0,-1
520 2048 m 1,4,-1
 520 1664 l 1,5,-1
 95 1664 l 1,6,-1
 95 2048 l 1,7,-1
 520 2048 l 1,4,-1
EndSplineSet
Validated: 1
EndChar

StartChar: ellipsis
Encoding: 8230 8230 106
Width: 2622
Flags: MW
LayerCount: 2
Fore
SplineSet
1878 512 m 1,0,-1
 2518 512 l 1,1,-1
 2518 0 l 1,2,-1
 1878 0 l 1,3,-1
 1878 512 l 1,0,-1
991 512 m 1,4,-1
 1631 512 l 1,5,-1
 1631 0 l 1,6,-1
 991 0 l 1,7,-1
 991 512 l 1,4,-1
104 512 m 1,8,-1
 744 512 l 1,9,-1
 744 0 l 1,10,-1
 104 0 l 1,11,-1
 104 512 l 1,8,-1
EndSplineSet
Validated: 1
EndChar

StartChar: quotedblbase
Encoding: 8222 8222 107
Width: 1614
Flags: MW
LayerCount: 2
Fore
SplineSet
871 512 m 1,0,-1
 1511 512 l 1,1,-1
 1511 1 l 2,2,3
 1511 -126 1511 -126 1467 -212.5 c 128,-1,4
 1423 -299 1423 -299 1351 -352.5 c 128,-1,5
 1279 -406 1279 -406 1187 -429 c 128,-1,6
 1095 -452 1095 -452 999 -452 c 1,7,-1
 999 -128 l 1,8,9
 1018 -127 1018 -127 1040 -121 c 128,-1,10
 1062 -115 1062 -115 1081 -101 c 128,-1,11
 1100 -87 1100 -87 1113 -62.5 c 128,-1,12
 1126 -38 1126 -38 1126 0 c 1,13,-1
 871 0 l 1,14,-1
 871 512 l 1,0,-1
103 512 m 1,15,-1
 743 512 l 1,16,-1
 743 1 l 2,17,18
 743 -126 743 -126 699 -212.5 c 128,-1,19
 655 -299 655 -299 583 -352.5 c 128,-1,20
 511 -406 511 -406 419 -429 c 128,-1,21
 327 -452 327 -452 231 -452 c 1,22,-1
 231 -128 l 1,23,24
 250 -127 250 -127 272 -121 c 128,-1,25
 294 -115 294 -115 313 -101 c 128,-1,26
 332 -87 332 -87 345 -62.5 c 128,-1,27
 358 -38 358 -38 358 0 c 1,28,-1
 103 0 l 1,29,-1
 103 512 l 1,15,-1
EndSplineSet
Validated: 1
EndChar

StartChar: quotesinglbase
Encoding: 8218 8218 108
Width: 847
Flags: MW
LayerCount: 2
Fore
SplineSet
103 512 m 1,0,-1
 743 512 l 1,1,-1
 743 1 l 2,2,3
 743 -126 743 -126 699 -212.5 c 128,-1,4
 655 -299 655 -299 583 -352.5 c 128,-1,5
 511 -406 511 -406 419 -429 c 128,-1,6
 327 -452 327 -452 231 -452 c 1,7,-1
 231 -128 l 1,8,9
 250 -127 250 -127 272 -121 c 128,-1,10
 294 -115 294 -115 313 -101 c 128,-1,11
 332 -87 332 -87 345 -62.5 c 128,-1,12
 358 -38 358 -38 358 0 c 1,13,-1
 103 0 l 1,14,-1
 103 512 l 1,0,-1
EndSplineSet
Validated: 1
EndChar

StartChar: grave
Encoding: 96 96 109
Width: 900
Flags: MW
LayerCount: 2
Fore
SplineSet
31 2304 m 1,0,-1
 521 2304 l 1,1,-1
 860 1664 l 1,2,-1
 435 1664 l 1,3,-1
 31 2304 l 1,0,-1
EndSplineSet
Validated: 1
EndChar

StartChar: acute
Encoding: 180 180 110
Width: 900
Flags: MW
LayerCount: 2
Fore
SplineSet
465 1664 m 1,0,-1
 40 1664 l 1,1,-1
 379 2304 l 1,2,-1
 869 2304 l 1,3,-1
 465 1664 l 1,0,-1
EndSplineSet
Validated: 1
EndChar

StartChar: braceleft
Encoding: 123 123 111
Width: 979
Flags: MW
LayerCount: 2
Fore
SplineSet
12 1024 m 1,0,1
 80 1024 80 1024 126.5 1043.5 c 128,-1,2
 173 1063 173 1063 204 1096.5 c 128,-1,3
 235 1130 235 1130 254.5 1174.5 c 128,-1,4
 274 1219 274 1219 287.5 1269 c 128,-1,5
 301 1319 301 1319 312.5 1372 c 128,-1,6
 324 1425 324 1425 339.5 1475 c 128,-1,7
 355 1525 355 1525 378.5 1569.5 c 128,-1,8
 402 1614 402 1614 439 1647.5 c 128,-1,9
 476 1681 476 1681 531 1700.5 c 128,-1,10
 586 1720 586 1720 664 1720 c 0,11,12
 722 1720 722 1720 785 1715.5 c 128,-1,13
 848 1711 848 1711 917 1700 c 1,14,-1
 917 1348 l 1,15,16
 848 1348 848 1348 806 1328.5 c 128,-1,17
 764 1309 764 1309 740.5 1277 c 128,-1,18
 717 1245 717 1245 707 1203.5 c 128,-1,19
 697 1162 697 1162 691.5 1117 c 128,-1,20
 686 1072 686 1072 681.5 1027.5 c 128,-1,21
 677 983 677 983 663.5 945 c 128,-1,22
 650 907 650 907 623.5 879 c 128,-1,23
 597 851 597 851 548 839 c 1,24,25
 597 827 597 827 623.5 799 c 128,-1,26
 650 771 650 771 663.5 733 c 128,-1,27
 677 695 677 695 682 650.5 c 128,-1,28
 687 606 687 606 692 561 c 128,-1,29
 697 516 697 516 707 474.5 c 128,-1,30
 717 433 717 433 740.5 401 c 128,-1,31
 764 369 764 369 806 350 c 128,-1,32
 848 331 848 331 917 331 c 1,33,-1
 917 -21 l 1,34,35
 848 -32 848 -32 785 -36.5 c 128,-1,36
 722 -41 722 -41 664 -41 c 0,37,38
 566 -41 566 -41 504.5 -11 c 128,-1,39
 443 19 443 19 405.5 68 c 128,-1,40
 368 117 368 117 348 179.5 c 128,-1,41
 328 242 328 242 312.5 307 c 128,-1,42
 297 372 297 372 280 434.5 c 128,-1,43
 263 497 263 497 232 546 c 128,-1,44
 201 595 201 595 149 625 c 128,-1,45
 97 655 97 655 12 655 c 1,46,-1
 12 1024 l 1,0,1
EndSplineSet
Validated: 1
EndChar

StartChar: braceright
Encoding: 125 125 112
Width: 979
Flags: MW
LayerCount: 2
Fore
SplineSet
967 655 m 1,0,1
 882 655 882 655 830 625 c 128,-1,2
 778 595 778 595 747 546 c 128,-1,3
 716 497 716 497 699 434.5 c 128,-1,4
 682 372 682 372 666.5 307 c 128,-1,5
 651 242 651 242 631 179.5 c 128,-1,6
 611 117 611 117 573.5 68 c 128,-1,7
 536 19 536 19 474.5 -11 c 128,-1,8
 413 -41 413 -41 315 -41 c 0,9,10
 257 -41 257 -41 194 -36.5 c 128,-1,11
 131 -32 131 -32 62 -21 c 1,12,-1
 62 331 l 1,13,14
 131 331 131 331 173 350 c 128,-1,15
 215 369 215 369 238.5 401 c 128,-1,16
 262 433 262 433 272 474.5 c 128,-1,17
 282 516 282 516 287 561 c 128,-1,18
 292 606 292 606 297 650.5 c 128,-1,19
 302 695 302 695 315.5 733 c 128,-1,20
 329 771 329 771 355.5 799 c 128,-1,21
 382 827 382 827 431 839 c 1,22,23
 382 851 382 851 355.5 879 c 128,-1,24
 329 907 329 907 315.5 945 c 128,-1,25
 302 983 302 983 297.5 1027.5 c 128,-1,26
 293 1072 293 1072 287.5 1117 c 128,-1,27
 282 1162 282 1162 272 1203.5 c 128,-1,28
 262 1245 262 1245 238.5 1277 c 128,-1,29
 215 1309 215 1309 173 1328.5 c 128,-1,30
 131 1348 131 1348 62 1348 c 1,31,-1
 62 1700 l 1,32,33
 131 1711 131 1711 194 1715.5 c 128,-1,34
 257 1720 257 1720 315 1720 c 0,35,36
 393 1720 393 1720 448 1700.5 c 128,-1,37
 503 1681 503 1681 540 1647.5 c 128,-1,38
 577 1614 577 1614 600.5 1569.5 c 128,-1,39
 624 1525 624 1525 639.5 1475 c 128,-1,40
 655 1425 655 1425 666.5 1372 c 128,-1,41
 678 1319 678 1319 691.5 1269 c 128,-1,42
 705 1219 705 1219 724.5 1174.5 c 128,-1,43
 744 1130 744 1130 775 1096.5 c 128,-1,44
 806 1063 806 1063 852.5 1043.5 c 128,-1,45
 899 1024 899 1024 967 1024 c 1,46,-1
 967 655 l 1,0,1
EndSplineSet
Validated: 1
EndChar

StartChar: caron
Encoding: 711 711 113
Width: 1275
Flags: MW
LayerCount: 2
Fore
SplineSet
478 2303 m 1,0,-1
 638 1920 l 1,1,-1
 797 2303 l 1,2,-1
 1222 2303 l 1,3,-1
 883 1664 l 1,4,-1
 393 1664 l 1,5,-1
 53 2303 l 1,6,-1
 478 2303 l 1,0,-1
EndSplineSet
Validated: 1
EndChar

StartChar: hungarumlaut
Encoding: 733 733 114
Width: 1740
Flags: MW
LayerCount: 2
Fore
SplineSet
1227 1664 m 1,0,-1
 792 1664 l 1,1,-1
 1197 2304 l 1,2,-1
 1687 2304 l 1,3,-1
 1227 1664 l 1,0,-1
559 1664 m 1,4,-1
 154 1664 l 1,5,-1
 403 2304 l 1,6,-1
 893 2304 l 1,7,-1
 559 1664 l 1,4,-1
EndSplineSet
Validated: 1
EndChar

StartChar: registered
Encoding: 174 174 115
Width: 1738
Flags: MW
LayerCount: 2
Fore
SplineSet
61 767 m 256,0,1
 61 879 61 879 90 982 c 128,-1,2
 119 1085 119 1085 171.5 1175 c 128,-1,3
 224 1265 224 1265 297.5 1338.5 c 128,-1,4
 371 1412 371 1412 461 1464.5 c 128,-1,5
 551 1517 551 1517 654 1546 c 128,-1,6
 757 1575 757 1575 869 1575 c 0,7,8
 980 1575 980 1575 1083 1546 c 128,-1,9
 1186 1517 1186 1517 1276 1464.5 c 128,-1,10
 1366 1412 1366 1412 1440 1338.5 c 128,-1,11
 1514 1265 1514 1265 1566.5 1175 c 128,-1,12
 1619 1085 1619 1085 1648 982 c 128,-1,13
 1677 879 1677 879 1677 767 c 256,14,15
 1677 655 1677 655 1648 552 c 128,-1,16
 1619 449 1619 449 1566.5 359.5 c 128,-1,17
 1514 270 1514 270 1440 196 c 128,-1,18
 1366 122 1366 122 1276 69.5 c 128,-1,19
 1186 17 1186 17 1083 -12 c 128,-1,20
 980 -41 980 -41 869 -41 c 0,21,22
 757 -41 757 -41 654 -12 c 128,-1,23
 551 17 551 17 461 69.5 c 128,-1,24
 371 122 371 122 297.5 196 c 128,-1,25
 224 270 224 270 171.5 359.5 c 128,-1,26
 119 449 119 449 90 552 c 128,-1,27
 61 655 61 655 61 767 c 256,0,1
207 767 m 256,28,29
 207 676 207 676 230.5 591 c 128,-1,30
 254 506 254 506 297 432.5 c 128,-1,31
 340 359 340 359 400.5 298.5 c 128,-1,32
 461 238 461 238 534.5 195 c 128,-1,33
 608 152 608 152 692.5 128.5 c 128,-1,34
 777 105 777 105 869 105 c 0,35,36
 960 105 960 105 1045 128.5 c 128,-1,37
 1130 152 1130 152 1203.5 195 c 128,-1,38
 1277 238 1277 238 1337.5 298.5 c 128,-1,39
 1398 359 1398 359 1441 432.5 c 128,-1,40
 1484 506 1484 506 1507.5 590.5 c 128,-1,41
 1531 675 1531 675 1531 767 c 0,42,43
 1531 858 1531 858 1507.5 943 c 128,-1,44
 1484 1028 1484 1028 1441 1101.5 c 128,-1,45
 1398 1175 1398 1175 1337.5 1235.5 c 128,-1,46
 1277 1296 1277 1296 1203.5 1339 c 128,-1,47
 1130 1382 1130 1382 1045 1405.5 c 128,-1,48
 960 1429 960 1429 869 1429 c 256,49,50
 778 1429 778 1429 693 1405.5 c 128,-1,51
 608 1382 608 1382 534.5 1339 c 128,-1,52
 461 1296 461 1296 400.5 1235.5 c 128,-1,53
 340 1175 340 1175 297 1101.5 c 128,-1,54
 254 1028 254 1028 230.5 943 c 128,-1,55
 207 858 207 858 207 767 c 256,28,29
1350 371 m 1,56,-1
 1001 371 l 1,57,58
 968 435 968 435 932.5 511.5 c 128,-1,59
 897 588 897 588 877 672 c 1,60,-1
 859 672 l 1,61,-1
 859 371 l 1,62,-1
 437 371 l 1,63,-1
 437 609 l 1,64,-1
 508 623 l 1,65,-1
 508 962 l 1,66,-1
 437 976 l 1,67,-1
 437 1214 l 1,68,-1
 915 1214 l 2,69,70
 1057 1214 1057 1214 1143 1195 c 128,-1,71
 1229 1176 1229 1176 1275 1141 c 128,-1,72
 1321 1106 1321 1106 1335.5 1057.5 c 128,-1,73
 1350 1009 1350 1009 1350 950 c 0,74,75
 1350 911 1350 911 1342.5 878.5 c 128,-1,76
 1335 846 1335 846 1316.5 819 c 128,-1,77
 1298 792 1298 792 1265.5 770 c 128,-1,78
 1233 748 1233 748 1183 729 c 1,79,80
 1193 707 1193 707 1213.5 677.5 c 128,-1,81
 1234 648 1234 648 1258.5 617.5 c 128,-1,82
 1283 587 1283 587 1307.5 558 c 128,-1,83
 1332 529 1332 529 1350 508 c 1,84,-1
 1350 371 l 1,56,-1
859 834 m 1,85,86
 891 834 891 834 917 837 c 128,-1,87
 943 840 943 840 961 849.5 c 128,-1,88
 979 859 979 859 989 878 c 128,-1,89
 999 897 999 897 999 930 c 0,90,91
 999 961 999 961 989 980.5 c 128,-1,92
 979 1000 979 1000 961 1010.5 c 128,-1,93
 943 1021 943 1021 917 1024.5 c 128,-1,94
 891 1028 891 1028 859 1028 c 1,95,-1
 859 834 l 1,85,86
EndSplineSet
Validated: 1
EndChar

StartChar: copyright
Encoding: 169 169 116
Width: 1738
Flags: MW
LayerCount: 2
Fore
SplineSet
61 767 m 256,0,1
 61 879 61 879 90 982 c 128,-1,2
 119 1085 119 1085 171.5 1175 c 128,-1,3
 224 1265 224 1265 297.5 1338.5 c 128,-1,4
 371 1412 371 1412 461 1464.5 c 128,-1,5
 551 1517 551 1517 654 1546 c 128,-1,6
 757 1575 757 1575 869 1575 c 0,7,8
 980 1575 980 1575 1083 1546 c 128,-1,9
 1186 1517 1186 1517 1276 1464.5 c 128,-1,10
 1366 1412 1366 1412 1440 1338.5 c 128,-1,11
 1514 1265 1514 1265 1566.5 1175 c 128,-1,12
 1619 1085 1619 1085 1648 982 c 128,-1,13
 1677 879 1677 879 1677 767 c 256,14,15
 1677 655 1677 655 1648 552 c 128,-1,16
 1619 449 1619 449 1566.5 359.5 c 128,-1,17
 1514 270 1514 270 1440 196 c 128,-1,18
 1366 122 1366 122 1276 69.5 c 128,-1,19
 1186 17 1186 17 1083 -12 c 128,-1,20
 980 -41 980 -41 869 -41 c 0,21,22
 757 -41 757 -41 654 -12 c 128,-1,23
 551 17 551 17 461 69.5 c 128,-1,24
 371 122 371 122 297.5 196 c 128,-1,25
 224 270 224 270 171.5 359.5 c 128,-1,26
 119 449 119 449 90 552 c 128,-1,27
 61 655 61 655 61 767 c 256,0,1
207 767 m 256,28,29
 207 676 207 676 230.5 591 c 128,-1,30
 254 506 254 506 297 432.5 c 128,-1,31
 340 359 340 359 400.5 298.5 c 128,-1,32
 461 238 461 238 534.5 195 c 128,-1,33
 608 152 608 152 692.5 128.5 c 128,-1,34
 777 105 777 105 869 105 c 0,35,36
 960 105 960 105 1045 128.5 c 128,-1,37
 1130 152 1130 152 1203.5 195 c 128,-1,38
 1277 238 1277 238 1337.5 298.5 c 128,-1,39
 1398 359 1398 359 1441 432.5 c 128,-1,40
 1484 506 1484 506 1507.5 590.5 c 128,-1,41
 1531 675 1531 675 1531 767 c 0,42,43
 1531 858 1531 858 1507.5 943 c 128,-1,44
 1484 1028 1484 1028 1441 1101.5 c 128,-1,45
 1398 1175 1398 1175 1337.5 1235.5 c 128,-1,46
 1277 1296 1277 1296 1203.5 1339 c 128,-1,47
 1130 1382 1130 1382 1045 1405.5 c 128,-1,48
 960 1429 960 1429 869 1429 c 256,49,50
 778 1429 778 1429 693 1405.5 c 128,-1,51
 608 1382 608 1382 534.5 1339 c 128,-1,52
 461 1296 461 1296 400.5 1235.5 c 128,-1,53
 340 1175 340 1175 297 1101.5 c 128,-1,54
 254 1028 254 1028 230.5 943 c 128,-1,55
 207 858 207 858 207 767 c 256,28,29
761 769 m 0,56,57
 761 673 761 673 808 630.5 c 128,-1,58
 855 588 855 588 945 588 c 0,59,60
 996 588 996 588 1069 601.5 c 128,-1,61
 1142 615 1142 615 1227 641 c 1,62,-1
 1227 378 l 1,63,64
 1139 349 1139 349 1052.5 333.5 c 128,-1,65
 966 318 966 318 885 318 c 0,66,67
 783 318 783 318 694.5 345 c 128,-1,68
 606 372 606 372 541.5 428 c 128,-1,69
 477 484 477 484 440 568.5 c 128,-1,70
 403 653 403 653 403 769 c 0,71,72
 403 881 403 881 437 962.5 c 128,-1,73
 471 1044 471 1044 533 1096.5 c 128,-1,74
 595 1149 595 1149 683.5 1174.5 c 128,-1,75
 772 1200 772 1200 880 1200 c 0,76,77
 946 1200 946 1200 999 1193.5 c 128,-1,78
 1052 1187 1052 1187 1095 1177 c 128,-1,79
 1138 1167 1138 1167 1170.5 1154.5 c 128,-1,80
 1203 1142 1203 1142 1227 1131 c 1,81,-1
 1227 870 l 1,82,-1
 1059 870 l 1,83,84
 1031 910 1031 910 996 928.5 c 128,-1,85
 961 947 961 947 924 947 c 0,86,87
 893 947 893 947 864 935 c 128,-1,88
 835 923 835 923 812 900.5 c 128,-1,89
 789 878 789 878 775 844.5 c 128,-1,90
 761 811 761 811 761 769 c 0,56,57
EndSplineSet
Validated: 1
EndChar

StartChar: onesuperior
Encoding: 185 185 117
Width: 780
Flags: MW
LayerCount: 2
Fore
SplineSet
103 1484 m 1,0,-1
 614 1536 l 1,1,-1
 614 818 l 1,2,-1
 700 801 l 1,3,-1
 700 512 l 1,4,-1
 103 512 l 1,5,-1
 103 801 l 1,6,-1
 188 818 l 1,7,-1
 188 1195 l 1,8,-1
 103 1195 l 1,9,-1
 103 1484 l 1,0,-1
EndSplineSet
Validated: 1
EndChar

StartChar: twosuperior
Encoding: 178 178 118
Width: 1078
Flags: MW
LayerCount: 2
Fore
SplineSet
106 860 m 1,0,1
 128 868 128 868 169.5 880 c 128,-1,2
 211 892 211 892 259.5 909.5 c 128,-1,3
 308 927 308 927 359 950 c 128,-1,4
 410 973 410 973 451 1002.5 c 128,-1,5
 492 1032 492 1032 518.5 1069 c 128,-1,6
 545 1106 545 1106 545 1151 c 0,7,8
 545 1180 545 1180 536 1201 c 128,-1,9
 527 1222 527 1222 511.5 1236 c 128,-1,10
 496 1250 496 1250 475 1256.5 c 128,-1,11
 454 1263 454 1263 431 1263 c 0,12,13
 399 1263 399 1263 366 1238.5 c 128,-1,14
 333 1214 333 1214 310 1169 c 1,15,-1
 106 1169 l 1,16,-1
 106 1491 l 1,17,18
 131 1505 131 1505 166 1520 c 128,-1,19
 201 1535 201 1535 247.5 1547.5 c 128,-1,20
 294 1560 294 1560 353 1568 c 128,-1,21
 412 1576 412 1576 486 1576 c 0,22,23
 594 1576 594 1576 684.5 1554 c 128,-1,24
 775 1532 775 1532 840 1486 c 128,-1,25
 905 1440 905 1440 941 1370 c 128,-1,26
 977 1300 977 1300 977 1203 c 0,27,28
 977 1143 977 1143 960 1094.5 c 128,-1,29
 943 1046 943 1046 915.5 1007 c 128,-1,30
 888 968 888 968 853 937.5 c 128,-1,31
 818 907 818 907 782 884 c 0,32,33
 697 830 697 830 588 802 c 1,34,-1
 971 802 l 1,35,-1
 971 512 l 1,36,-1
 106 512 l 1,37,-1
 106 860 l 1,0,1
EndSplineSet
Validated: 1
EndChar

StartChar: threesuperior
Encoding: 179 179 119
Width: 1149
Flags: MW
LayerCount: 2
Fore
SplineSet
485 743 m 0,0,1
 518 743 518 743 543 751.5 c 128,-1,2
 568 760 568 760 585 773.5 c 128,-1,3
 602 787 602 787 610.5 805 c 128,-1,4
 619 823 619 823 619 841 c 0,5,6
 619 856 619 856 613.5 870 c 128,-1,7
 608 884 608 884 597 895 c 128,-1,8
 586 906 586 906 570 913 c 128,-1,9
 554 920 554 920 533 920 c 2,10,-1
 356 920 l 1,11,-1
 356 1123 l 1,12,-1
 533 1123 l 2,13,14
 554 1123 554 1123 570 1130 c 128,-1,15
 586 1137 586 1137 597 1148 c 128,-1,16
 608 1159 608 1159 613.5 1173 c 128,-1,17
 619 1187 619 1187 619 1202 c 0,18,19
 619 1220 619 1220 610.5 1238 c 128,-1,20
 602 1256 602 1256 585 1269.5 c 128,-1,21
 568 1283 568 1283 543 1291.5 c 128,-1,22
 518 1300 518 1300 485 1300 c 0,23,24
 434 1300 434 1300 385.5 1276.5 c 128,-1,25
 337 1253 337 1253 299 1204 c 1,26,-1
 93 1204 l 1,27,-1
 93 1489 l 1,28,29
 126 1503 126 1503 170.5 1518.5 c 128,-1,30
 215 1534 215 1534 272.5 1546.5 c 128,-1,31
 330 1559 330 1559 402.5 1567.5 c 128,-1,32
 475 1576 475 1576 564 1576 c 0,33,34
 690 1576 690 1576 783 1546.5 c 128,-1,35
 876 1517 876 1517 937 1468 c 128,-1,36
 998 1419 998 1419 1028 1356 c 128,-1,37
 1058 1293 1058 1293 1058 1227 c 0,38,39
 1058 1177 1058 1177 1045 1141 c 128,-1,40
 1032 1105 1032 1105 1013 1081 c 128,-1,41
 994 1057 994 1057 971.5 1042.5 c 128,-1,42
 949 1028 949 1028 931 1021 c 1,43,44
 951 1012 951 1012 973.5 996.5 c 128,-1,45
 996 981 996 981 1014.5 957 c 128,-1,46
 1033 933 1033 933 1045.5 898.5 c 128,-1,47
 1058 864 1058 864 1058 816 c 0,48,49
 1058 750 1058 750 1028 687.5 c 128,-1,50
 998 625 998 625 937 576.5 c 128,-1,51
 876 528 876 528 783 498.5 c 128,-1,52
 690 469 690 469 564 469 c 0,53,54
 475 469 475 469 402 476.5 c 128,-1,55
 329 484 329 484 271 496.5 c 128,-1,56
 213 509 213 509 168.5 524 c 128,-1,57
 124 539 124 539 93 554 c 1,58,-1
 93 839 l 1,59,-1
 299 839 l 1,60,61
 337 788 337 788 385.5 765.5 c 128,-1,62
 434 743 434 743 485 743 c 0,0,1
EndSplineSet
Validated: 1
EndChar

StartChar: onequarter
Encoding: 188 188 120
Width: 2701
Flags: MW
LayerCount: 2
Fore
SplineSet
1037 1536 m 1,0,-1
 1677 1536 l 1,1,-1
 1293 0 l 1,2,-1
 653 0 l 1,3,-1
 1037 1536 l 1,0,-1
93 1484 m 1,4,-1
 604 1536 l 1,5,-1
 604 818 l 1,6,-1
 690 801 l 1,7,-1
 690 512 l 1,8,-1
 93 512 l 1,9,-1
 93 801 l 1,10,-1
 178 818 l 1,11,-1
 178 1195 l 1,12,-1
 93 1195 l 1,13,-1
 93 1484 l 1,4,-1
1569 573 m 1,14,-1
 2002 1037 l 1,15,-1
 2434 1064 l 1,16,-1
 2434 573 l 1,17,-1
 2650 573 l 1,18,-1
 2650 400 l 1,19,-1
 2434 400 l 1,20,-1
 2434 310 l 1,21,-1
 2521 293 l 1,22,-1
 2521 0 l 1,23,-1
 1915 0 l 1,24,-1
 1915 293 l 1,25,-1
 2002 310 l 1,26,-1
 2002 400 l 1,27,-1
 1569 400 l 1,28,-1
 1569 573 l 1,14,-1
1818 573 m 1,29,-1
 2002 573 l 1,30,-1
 2002 789 l 1,31,-1
 1818 573 l 1,29,-1
EndSplineSet
Validated: 1
EndChar

StartChar: foursuperior
Encoding: 8308 8308 121
Width: 1152
Flags: MW
LayerCount: 2
Fore
SplineSet
27 1085 m 1,0,-1
 460 1549 l 1,1,-1
 892 1576 l 1,2,-1
 892 1085 l 1,3,-1
 1108 1085 l 1,4,-1
 1108 912 l 1,5,-1
 892 912 l 1,6,-1
 892 822 l 1,7,-1
 979 805 l 1,8,-1
 979 512 l 1,9,-1
 373 512 l 1,10,-1
 373 805 l 1,11,-1
 460 822 l 1,12,-1
 460 912 l 1,13,-1
 27 912 l 1,14,-1
 27 1085 l 1,0,-1
276 1085 m 1,15,-1
 460 1085 l 1,16,-1
 460 1301 l 1,17,-1
 276 1085 l 1,15,-1
EndSplineSet
Validated: 1
EndChar

StartChar: onehalf
Encoding: 189 189 122
Width: 2561
Flags: MW
LayerCount: 2
Fore
SplineSet
1022 1536 m 1,0,-1
 1662 1536 l 1,1,-1
 1278 0 l 1,2,-1
 638 0 l 1,3,-1
 1022 1536 l 1,0,-1
78 1484 m 1,4,-1
 589 1536 l 1,5,-1
 589 818 l 1,6,-1
 675 801 l 1,7,-1
 675 512 l 1,8,-1
 78 512 l 1,9,-1
 78 801 l 1,10,-1
 163 818 l 1,11,-1
 163 1195 l 1,12,-1
 78 1195 l 1,13,-1
 78 1484 l 1,4,-1
1628 347 m 1,14,15
 1650 355 1650 355 1691.5 367 c 128,-1,16
 1733 379 1733 379 1781.5 396.5 c 128,-1,17
 1830 414 1830 414 1881 437 c 128,-1,18
 1932 460 1932 460 1973 489.5 c 128,-1,19
 2014 519 2014 519 2040.5 556 c 128,-1,20
 2067 593 2067 593 2067 638 c 0,21,22
 2067 667 2067 667 2058 688 c 128,-1,23
 2049 709 2049 709 2033.5 723 c 128,-1,24
 2018 737 2018 737 1997 743.5 c 128,-1,25
 1976 750 1976 750 1953 750 c 0,26,27
 1921 750 1921 750 1888 725.5 c 128,-1,28
 1855 701 1855 701 1832 656 c 1,29,-1
 1628 656 l 1,30,-1
 1628 978 l 1,31,32
 1653 992 1653 992 1688 1007 c 128,-1,33
 1723 1022 1723 1022 1769.5 1034.5 c 128,-1,34
 1816 1047 1816 1047 1875 1055 c 128,-1,35
 1934 1063 1934 1063 2008 1063 c 0,36,37
 2116 1063 2116 1063 2206.5 1041 c 128,-1,38
 2297 1019 2297 1019 2362 973 c 128,-1,39
 2427 927 2427 927 2463 857 c 128,-1,40
 2499 787 2499 787 2499 690 c 0,41,42
 2499 630 2499 630 2482 581.5 c 128,-1,43
 2465 533 2465 533 2437.5 494 c 128,-1,44
 2410 455 2410 455 2375 424.5 c 128,-1,45
 2340 394 2340 394 2304 371 c 0,46,47
 2219 317 2219 317 2110 289 c 1,48,-1
 2493 289 l 1,49,-1
 2493 -1 l 1,50,-1
 1628 -1 l 1,51,-1
 1628 347 l 1,14,15
EndSplineSet
Validated: 1
EndChar

StartChar: cedilla
Encoding: 184 184 123
Width: 724
Flags: MW
LayerCount: 2
Fore
SplineSet
432 -442 m 0,0,1
 432 -411 432 -411 422 -386.5 c 128,-1,2
 412 -362 412 -362 395 -345.5 c 128,-1,3
 378 -329 378 -329 356.5 -320 c 128,-1,4
 335 -311 335 -311 313 -311 c 0,5,6
 286 -311 286 -311 260.5 -325 c 128,-1,7
 235 -339 235 -339 215 -368 c 1,8,-1
 93 -368 l 1,9,-1
 93 128 l 1,10,-1
 314 128 l 1,11,-1
 314 -129 l 1,12,-1
 325 -129 l 2,13,14
 330 -129 330 -129 335 -128.5 c 128,-1,15
 340 -128 340 -128 345 -128 c 0,16,17
 424 -128 424 -128 488 -146.5 c 128,-1,18
 552 -165 552 -165 597.5 -203 c 128,-1,19
 643 -241 643 -241 667.5 -300.5 c 128,-1,20
 692 -360 692 -360 692 -442 c 0,21,22
 692 -526 692 -526 665 -587.5 c 128,-1,23
 638 -649 638 -649 591 -689.5 c 128,-1,24
 544 -730 544 -730 480 -749.5 c 128,-1,25
 416 -769 416 -769 341 -769 c 0,26,27
 283 -769 283 -769 220 -758 c 128,-1,28
 157 -747 157 -747 93 -725 c 1,29,-1
 93 -535 l 1,30,31
 156 -554 156 -554 208.5 -563.5 c 128,-1,32
 261 -573 261 -573 296 -573 c 0,33,34
 362 -573 362 -573 397 -542 c 128,-1,35
 432 -511 432 -511 432 -442 c 0,0,1
EndSplineSet
Validated: 1
EndChar

StartChar: ogonek
Encoding: 731 731 126
Width: 767
Flags: MW
LayerCount: 2
Fore
SplineSet
380 -422 m 0,0,1
 380 -491 380 -491 415 -522 c 128,-1,2
 450 -553 450 -553 516 -553 c 0,3,4
 583 -553 583 -553 699 -515 c 1,5,-1
 699 -832 l 1,6,7
 635 -853 635 -853 568 -864.5 c 128,-1,8
 501 -876 501 -876 443 -876 c 0,9,10
 359 -876 359 -876 289 -853.5 c 128,-1,11
 219 -831 219 -831 168 -783.5 c 128,-1,12
 117 -736 117 -736 88.5 -663.5 c 128,-1,13
 60 -591 60 -591 60 -492 c 0,14,15
 60 -442 60 -442 71 -393 c 128,-1,16
 82 -344 82 -344 99.5 -298.5 c 128,-1,17
 117 -253 117 -253 140 -212 c 128,-1,18
 163 -171 163 -171 187 -135 c 0,19,20
 242 -53 242 -53 315 20 c 1,21,-1
 649 20 l 1,22,23
 611 -17 611 -17 577 -55 c 128,-1,24
 543 -93 543 -93 514 -131 c 0,25,26
 489 -164 489 -164 465 -200.5 c 128,-1,27
 441 -237 441 -237 422 -274.5 c 128,-1,28
 403 -312 403 -312 391.5 -349.5 c 128,-1,29
 380 -387 380 -387 380 -422 c 0,0,1
EndSplineSet
Validated: 1
EndChar

StartChar: ring
Encoding: 730 730 127
Width: 938
Flags: MW
LayerCount: 2
Fore
SplineSet
871 1926 m 0,0,1
 871 1828 871 1828 836.5 1755 c 128,-1,2
 802 1682 802 1682 745.5 1633.5 c 128,-1,3
 689 1585 689 1585 616.5 1560.5 c 128,-1,4
 544 1536 544 1536 468 1536 c 0,5,6
 393 1536 393 1536 321 1560.5 c 128,-1,7
 249 1585 249 1585 192.5 1633.5 c 128,-1,8
 136 1682 136 1682 101.5 1755 c 128,-1,9
 67 1828 67 1828 67 1926 c 0,10,11
 67 2022 67 2022 101.5 2094.5 c 128,-1,12
 136 2167 136 2167 192 2215.5 c 128,-1,13
 248 2264 248 2264 320.5 2288 c 128,-1,14
 393 2312 393 2312 468 2312 c 256,15,16
 543 2312 543 2312 615.5 2288 c 128,-1,17
 688 2264 688 2264 745 2215.5 c 128,-1,18
 802 2167 802 2167 836.5 2094.5 c 128,-1,19
 871 2022 871 2022 871 1926 c 0,0,1
642 1921 m 0,20,21
 642 1969 642 1969 627 2005.5 c 128,-1,22
 612 2042 612 2042 587.5 2066.5 c 128,-1,23
 563 2091 563 2091 532 2103.5 c 128,-1,24
 501 2116 501 2116 468 2116 c 0,25,26
 436 2116 436 2116 405 2104 c 128,-1,27
 374 2092 374 2092 350 2067.5 c 128,-1,28
 326 2043 326 2043 311 2006.5 c 128,-1,29
 296 1970 296 1970 296 1921 c 0,30,31
 296 1871 296 1871 311 1834.5 c 128,-1,32
 326 1798 326 1798 350 1773 c 128,-1,33
 374 1748 374 1748 405 1736 c 128,-1,34
 436 1724 436 1724 469 1724 c 256,35,36
 502 1724 502 1724 533 1736.5 c 128,-1,37
 564 1749 564 1749 588 1773.5 c 128,-1,38
 612 1798 612 1798 627 1835 c 128,-1,39
 642 1872 642 1872 642 1921 c 0,20,21
EndSplineSet
Validated: 1
EndChar

StartChar: questiondown
Encoding: 191 191 130
Width: 1399
Flags: MW
LayerCount: 2
Fore
SplineSet
1146 1153 m 1,0,-1
 506 1153 l 1,1,-1
 506 1537 l 1,2,-1
 1146 1537 l 1,3,-1
 1146 1153 l 1,0,-1
695 449 m 0,4,5
 695 418 695 418 705.5 394.5 c 128,-1,6
 716 371 716 371 733.5 355 c 128,-1,7
 751 339 751 339 774 330.5 c 128,-1,8
 797 322 797 322 823 322 c 0,9,10
 880 322 880 322 936 348.5 c 128,-1,11
 992 375 992 375 1035 432 c 1,12,-1
 1336 432 l 1,13,-1
 1336 86 l 1,14,15
 1270 51 1270 51 1179 23 c 0,16,17
 1101 -1 1101 -1 993.5 -20.5 c 128,-1,18
 886 -40 886 -40 744 -40 c 0,19,20
 586 -40 586 -40 458.5 -11.5 c 128,-1,21
 331 17 331 17 241 77 c 128,-1,22
 151 137 151 137 102.5 229 c 128,-1,23
 54 321 54 321 54 449 c 0,24,25
 54 559 54 559 89.5 636.5 c 128,-1,26
 125 714 125 714 186.5 767 c 128,-1,27
 248 820 248 820 330 853 c 128,-1,28
 412 886 412 886 506 907 c 1,29,-1
 506 1024 l 1,30,-1
 1143 1024 l 1,31,32
 1144 1025 1144 1025 1146 1025 c 1,33,-1
 1146 680 l 1,34,35
 1130 673 1130 673 1090.5 662.5 c 128,-1,36
 1051 652 1051 652 1001 638 c 128,-1,37
 951 624 951 624 896.5 605.5 c 128,-1,38
 842 587 842 587 797.5 564 c 128,-1,39
 753 541 753 541 724 512 c 128,-1,40
 695 483 695 483 695 449 c 0,4,5
EndSplineSet
Validated: 1
EndChar

StartChar: tilde
Encoding: 732 732 140
Width: 1053
Flags: MW
LayerCount: 2
Fore
SplineSet
915 1619 m 1,0,1
 883 1574 883 1574 841 1556 c 128,-1,2
 799 1538 799 1538 754 1538 c 0,3,4
 708 1538 708 1538 659 1553 c 128,-1,5
 610 1568 610 1568 560 1586 c 128,-1,6
 510 1604 510 1604 460 1619 c 128,-1,7
 410 1634 410 1634 362 1634 c 0,8,9
 293 1634 293 1634 223 1611 c 128,-1,10
 153 1588 153 1588 79 1529 c 1,11,-1
 141 1955 l 1,12,13
 178 1997 178 1997 220.5 2013.5 c 128,-1,14
 263 2030 263 2030 311 2030 c 0,15,16
 356 2030 356 2030 404 2012 c 128,-1,17
 452 1994 452 1994 501 1972.5 c 128,-1,18
 550 1951 550 1951 599 1933 c 128,-1,19
 648 1915 648 1915 696 1915 c 0,20,21
 764 1915 764 1915 832.5 1941.5 c 128,-1,22
 901 1968 901 1968 975 2036 c 1,23,-1
 915 1619 l 1,0,1
EndSplineSet
Validated: 1
EndChar

StartChar: AE
Encoding: 198 198 182
Width: 2308
Flags: MW
LayerCount: 2
Fore
SplineSet
1656 384 m 1,0,1
 1727 384 1727 384 1789.5 395.5 c 128,-1,2
 1852 407 1852 407 1905 425 c 128,-1,3
 1958 443 1958 443 2001.5 466 c 128,-1,4
 2045 489 2045 489 2078 512 c 1,5,-1
 2245 512 l 1,6,-1
 2245 0 l 1,7,-1
 1056 0 l 1,8,-1
 1077 258 l 1,9,-1
 659 258 l 1,10,-1
 531 0 l 1,11,-1
 -38 0 l 1,12,-1
 109 504 l 1,13,-1
 239 529 l 1,14,-1
 830 1536 l 1,15,-1
 2245 1536 l 1,16,-1
 2245 1024 l 1,17,-1
 2084 1024 l 1,18,19
 2051 1046 2051 1046 2006.5 1069 c 128,-1,20
 1962 1092 1962 1092 1907.5 1110.5 c 128,-1,21
 1853 1129 1853 1129 1789.5 1140.5 c 128,-1,22
 1726 1152 1726 1152 1656 1152 c 1,23,-1
 1656 879 l 1,24,-1
 1956 944 l 1,25,-1
 1956 590 l 1,26,-1
 1656 655 l 1,27,-1
 1656 384 l 1,0,1
846 601 m 1,28,-1
 1092 601 l 1,29,-1
 1138 1180 l 1,30,-1
 846 601 l 1,28,-1
EndSplineSet
Validated: 1
EndChar

StartChar: ae
Encoding: 230 230 183
Width: 2256
Flags: MW
LayerCount: 2
Fore
SplineSet
1650 789 m 1,0,-1
 1927 848 l 1,1,-1
 1927 563 l 1,2,-1
 1650 623 l 1,3,-1
 1650 402 l 1,4,5
 1712 402 1712 402 1769 410.5 c 128,-1,6
 1826 419 1826 419 1875.5 434 c 128,-1,7
 1925 449 1925 449 1966 469 c 128,-1,8
 2007 489 2007 489 2037 512 c 1,9,-1
 2204 512 l 1,10,-1
 2204 0 l 1,11,-1
 990 0 l 1,12,-1
 1012 237 l 1,13,-1
 619 237 l 1,14,-1
 497 0 l 1,15,-1
 -35 0 l 1,16,-1
 102 464 l 1,17,-1
 224 487 l 1,18,-1
 780 1408 l 1,19,-1
 2204 1408 l 1,20,-1
 2204 896 l 1,21,-1
 2037 896 l 1,22,23
 2007 918 2007 918 1966 938 c 128,-1,24
 1925 958 1925 958 1875.5 973 c 128,-1,25
 1826 988 1826 988 1769 997 c 128,-1,26
 1712 1006 1712 1006 1650 1006 c 1,27,-1
 1650 789 l 1,0,-1
775 553 m 1,28,-1
 1076 553 l 1,29,-1
 1076 1106 l 1,30,-1
 775 553 l 1,28,-1
EndSplineSet
Validated: 1
EndChar

StartChar: oslash
Encoding: 248 248 184
Width: 1803
Flags: MW
LayerCount: 2
Fore
SplineSet
901 -37 m 0,0,1
 838 -37 838 -37 781 -32 c 128,-1,2
 724 -27 724 -27 667 -17 c 1,3,-1
 576 -208 l 1,4,-1
 384 -128 l 1,5,-1
 466 43 l 1,6,7
 374 83 374 83 299 144 c 128,-1,8
 224 205 224 205 171 288.5 c 128,-1,9
 118 372 118 372 89 480 c 128,-1,10
 60 588 60 588 60 723 c 0,11,12
 60 919 60 919 125.5 1057.5 c 128,-1,13
 191 1196 191 1196 305 1283 c 128,-1,14
 419 1370 419 1370 572 1410 c 128,-1,15
 725 1450 725 1450 901 1450 c 0,16,17
 963 1450 963 1450 1021 1445.5 c 128,-1,18
 1079 1441 1079 1441 1134 1431 c 1,19,-1
 1216 1600 l 1,20,-1
 1408 1536 l 1,21,-1
 1331 1376 l 1,22,23
 1424 1338 1424 1338 1500 1280 c 128,-1,24
 1576 1222 1576 1222 1630 1142 c 128,-1,25
 1684 1062 1684 1062 1714 957.5 c 128,-1,26
 1744 853 1744 853 1744 723 c 0,27,28
 1744 588 1744 588 1714 479 c 128,-1,29
 1684 370 1684 370 1629.5 285.5 c 128,-1,30
 1575 201 1575 201 1498.5 140 c 128,-1,31
 1422 79 1422 79 1328 39.5 c 128,-1,32
 1234 0 1234 0 1126 -18.5 c 128,-1,33
 1018 -37 1018 -37 901 -37 c 0,0,1
901 1014 m 0,34,35
 841 1014 841 1014 800.5 999 c 128,-1,36
 760 984 760 984 733.5 959.5 c 128,-1,37
 707 935 707 935 692.5 904 c 128,-1,38
 678 873 678 873 671 841 c 128,-1,39
 664 809 664 809 663 778.5 c 128,-1,40
 662 748 662 748 662 725 c 0,41,42
 662 707 662 707 662.5 683 c 128,-1,43
 663 659 663 659 666.5 632.5 c 128,-1,44
 670 606 670 606 677.5 578.5 c 128,-1,45
 685 551 685 551 699 527 c 1,46,-1
 933 1012 l 1,47,48
 925 1013 925 1013 917 1013.5 c 128,-1,49
 909 1014 909 1014 901 1014 c 0,34,35
1143 723 m 0,50,51
 1143 740 1143 740 1142.5 762.5 c 128,-1,52
 1142 785 1142 785 1138.5 810 c 128,-1,53
 1135 835 1135 835 1128 860 c 128,-1,54
 1121 885 1121 885 1108 908 c 1,55,-1
 879 428 l 1,56,-1
 901 428 l 2,57,58
 961 428 961 428 1002.5 443.5 c 128,-1,59
 1044 459 1044 459 1070.5 484.5 c 128,-1,60
 1097 510 1097 510 1112 542 c 128,-1,61
 1127 574 1127 574 1133.5 606.5 c 128,-1,62
 1140 639 1140 639 1141.5 669.5 c 128,-1,63
 1143 700 1143 700 1143 723 c 0,50,51
EndSplineSet
Validated: 1
EndChar

StartChar: Oslash
Encoding: 216 216 185
Width: 1921
Flags: MW
LayerCount: 2
Fore
SplineSet
960 -40 m 0,0,1
 825 -40 825 -40 704 -16 c 1,2,-1
 613 -208 l 1,3,-1
 421 -128 l 1,4,-1
 504 44 l 1,5,6
 405 87 405 87 324 153 c 128,-1,7
 243 219 243 219 185.5 310.5 c 128,-1,8
 128 402 128 402 96.5 520.5 c 128,-1,9
 65 639 65 639 65 786 c 0,10,11
 65 928 65 928 96.5 1041.5 c 128,-1,12
 128 1155 128 1155 186 1243 c 128,-1,13
 244 1331 244 1331 325.5 1394 c 128,-1,14
 407 1457 407 1457 506.5 1497.5 c 128,-1,15
 606 1538 606 1538 720.5 1557 c 128,-1,16
 835 1576 835 1576 960 1576 c 0,17,18
 1033 1576 1033 1576 1100.5 1570 c 128,-1,19
 1168 1564 1168 1564 1231 1551 c 1,20,-1
 1317 1728 l 1,21,-1
 1509 1664 l 1,22,-1
 1426 1492 l 1,23,24
 1523 1451 1523 1451 1602.5 1388 c 128,-1,25
 1682 1325 1682 1325 1738.5 1238 c 128,-1,26
 1795 1151 1795 1151 1826 1038.5 c 128,-1,27
 1857 926 1857 926 1857 786 c 0,28,29
 1857 565 1857 565 1787 408.5 c 128,-1,30
 1717 252 1717 252 1595.5 152 c 128,-1,31
 1474 52 1474 52 1310.5 6 c 128,-1,32
 1147 -40 1147 -40 960 -40 c 0,0,1
960 1102 m 0,33,34
 896 1102 896 1102 852.5 1085.5 c 128,-1,35
 809 1069 809 1069 780.5 1042 c 128,-1,36
 752 1015 752 1015 737 981 c 128,-1,37
 722 947 722 947 714.5 912 c 128,-1,38
 707 877 707 877 706 844 c 128,-1,39
 705 811 705 811 705 786 c 0,40,41
 705 765 705 765 705.5 737 c 128,-1,42
 706 709 706 709 710.5 679 c 128,-1,43
 715 649 715 649 725 618 c 128,-1,44
 735 587 735 587 753 560 c 1,45,-1
 1013 1098 l 1,46,47
 1002 1100 1002 1100 988.5 1101 c 128,-1,48
 975 1102 975 1102 960 1102 c 0,33,34
1217 786 m 0,49,50
 1217 805 1217 805 1216 828.5 c 128,-1,51
 1215 852 1215 852 1212 877.5 c 128,-1,52
 1209 903 1209 903 1202 930 c 128,-1,53
 1195 957 1195 957 1183 983 c 1,54,-1
 935 466 l 1,55,56
 941 465 941 465 947 465 c 128,-1,57
 953 465 953 465 960 465 c 0,58,59
 1024 465 1024 465 1067.5 482 c 128,-1,60
 1111 499 1111 499 1140 526.5 c 128,-1,61
 1169 554 1169 554 1184.5 589 c 128,-1,62
 1200 624 1200 624 1207 659.5 c 128,-1,63
 1214 695 1214 695 1215.5 728 c 128,-1,64
 1217 761 1217 761 1217 786 c 0,49,50
EndSplineSet
Validated: 1
EndChar

StartChar: degree
Encoding: 176 176 186
Width: 916
Flags: MW
LayerCount: 2
Fore
SplineSet
860 1190 m 0,0,1
 860 1092 860 1092 825.5 1019 c 128,-1,2
 791 946 791 946 734.5 897.5 c 128,-1,3
 678 849 678 849 605.5 824.5 c 128,-1,4
 533 800 533 800 457 800 c 0,5,6
 382 800 382 800 310 824.5 c 128,-1,7
 238 849 238 849 181.5 897.5 c 128,-1,8
 125 946 125 946 90.5 1019 c 128,-1,9
 56 1092 56 1092 56 1190 c 0,10,11
 56 1286 56 1286 90.5 1358.5 c 128,-1,12
 125 1431 125 1431 181 1479.5 c 128,-1,13
 237 1528 237 1528 309.5 1552 c 128,-1,14
 382 1576 382 1576 457 1576 c 256,15,16
 532 1576 532 1576 604.5 1552 c 128,-1,17
 677 1528 677 1528 734 1479.5 c 128,-1,18
 791 1431 791 1431 825.5 1358.5 c 128,-1,19
 860 1286 860 1286 860 1190 c 0,0,1
631 1185 m 0,20,21
 631 1233 631 1233 616 1269.5 c 128,-1,22
 601 1306 601 1306 576.5 1330.5 c 128,-1,23
 552 1355 552 1355 521 1367.5 c 128,-1,24
 490 1380 490 1380 457 1380 c 0,25,26
 425 1380 425 1380 394 1368 c 128,-1,27
 363 1356 363 1356 339 1331.5 c 128,-1,28
 315 1307 315 1307 300 1270.5 c 128,-1,29
 285 1234 285 1234 285 1185 c 0,30,31
 285 1135 285 1135 300 1098.5 c 128,-1,32
 315 1062 315 1062 339 1037 c 128,-1,33
 363 1012 363 1012 394 1000 c 128,-1,34
 425 988 425 988 458 988 c 256,35,36
 491 988 491 988 522 1000.5 c 128,-1,37
 553 1013 553 1013 577 1037.5 c 128,-1,38
 601 1062 601 1062 616 1099 c 128,-1,39
 631 1136 631 1136 631 1185 c 0,20,21
EndSplineSet
Validated: 1
EndChar

StartChar: multiply
Encoding: 215 215 188
Width: 1044
Flags: MW
LayerCount: 2
Fore
SplineSet
69 496 m 1,0,-1
 341 768 l 1,1,-1
 69 1040 l 1,2,-1
 250 1221 l 1,3,-1
 522 949 l 1,4,-1
 794 1221 l 1,5,-1
 975 1040 l 1,6,-1
 703 768 l 1,7,-1
 975 496 l 1,8,-1
 794 315 l 1,9,-1
 522 587 l 1,10,-1
 250 315 l 1,11,-1
 69 496 l 1,0,-1
EndSplineSet
Validated: 1
EndChar

StartChar: ordfeminine
Encoding: 170 170 189
Width: 1346
Flags: MW
LayerCount: 2
Fore
SplineSet
791 640 m 1,0,1
 700 571 700 571 622.5 541.5 c 128,-1,2
 545 512 545 512 482 512 c 0,3,4
 413 512 413 512 356.5 533.5 c 128,-1,5
 300 555 300 555 255.5 590.5 c 128,-1,6
 211 626 211 626 178 673.5 c 128,-1,7
 145 721 145 721 123.5 773 c 128,-1,8
 102 825 102 825 91.5 878.5 c 128,-1,9
 81 932 81 932 81 980 c 0,10,11
 81 1121 81 1121 123 1225.5 c 128,-1,12
 165 1330 165 1330 240.5 1398.5 c 128,-1,13
 316 1467 316 1467 421 1501 c 128,-1,14
 526 1535 526 1535 652 1535 c 0,15,16
 781 1535 781 1535 929.5 1508 c 128,-1,17
 1078 1481 1078 1481 1233 1430 c 1,18,-1
 1233 544 l 1,19,-1
 791 544 l 1,20,-1
 791 640 l 1,0,1
791 1303 m 1,21,22
 762 1310 762 1310 722 1310 c 0,23,24
 632 1310 632 1310 591 1245 c 128,-1,25
 550 1180 550 1180 550 1039 c 0,26,27
 550 958 550 958 567 909.5 c 128,-1,28
 584 861 584 861 615.5 836 c 128,-1,29
 647 811 647 811 691.5 803.5 c 128,-1,30
 736 796 736 796 791 796 c 1,31,-1
 791 1303 l 1,21,22
EndSplineSet
Validated: 1
EndChar

StartChar: Thorn
Encoding: 222 222 190
Width: 1793
Flags: MW
LayerCount: 2
Fore
SplineSet
100 1664 m 1,0,-1
 868 1664 l 1,1,-1
 868 1489 l 1,2,-1
 971 1489 l 2,3,4
 1141 1489 1141 1489 1266 1475.5 c 128,-1,5
 1391 1462 1391 1462 1479 1435 c 128,-1,6
 1567 1408 1567 1408 1622.5 1367.5 c 128,-1,7
 1678 1327 1678 1327 1709.5 1273 c 128,-1,8
 1741 1219 1741 1219 1752.5 1152 c 128,-1,9
 1764 1085 1764 1085 1764 1005 c 0,10,11
 1764 942 1764 942 1750.5 883 c 128,-1,12
 1737 824 1737 824 1701 772.5 c 128,-1,13
 1665 721 1665 721 1601.5 678.5 c 128,-1,14
 1538 636 1538 636 1438.5 606 c 128,-1,15
 1339 576 1339 576 1198.5 559.5 c 128,-1,16
 1058 543 1058 543 868 543 c 1,17,-1
 868 459 l 1,18,-1
 996 434 l 1,19,-1
 996 0 l 1,20,-1
 100 0 l 1,21,-1
 100 434 l 1,22,-1
 228 459 l 1,23,-1
 228 1158 l 1,24,-1
 100 1183 l 1,25,-1
 100 1664 l 1,0,-1
868 818 m 1,26,27
 926 818 926 818 973.5 824 c 128,-1,28
 1021 830 1021 830 1054.5 849.5 c 128,-1,29
 1088 869 1088 869 1106 906 c 128,-1,30
 1124 943 1124 943 1124 1006 c 0,31,32
 1124 1067 1124 1067 1106 1103.5 c 128,-1,33
 1088 1140 1088 1140 1054.5 1159 c 128,-1,34
 1021 1178 1021 1178 973.5 1184 c 128,-1,35
 926 1190 926 1190 868 1190 c 1,36,-1
 868 818 l 1,26,27
EndSplineSet
Validated: 1
EndChar

StartChar: thorn
Encoding: 254 254 191
Width: 1675
Flags: MW
LayerCount: 2
Fore
SplineSet
91 1536 m 1,0,-1
 813 1536 l 1,1,-1
 813 1338 l 1,2,-1
 910 1338 l 2,3,4
 1070 1338 1070 1338 1187.5 1324 c 128,-1,5
 1305 1310 1305 1310 1387.5 1284 c 128,-1,6
 1470 1258 1470 1258 1522.5 1220 c 128,-1,7
 1575 1182 1575 1182 1604.5 1134.5 c 128,-1,8
 1634 1087 1634 1087 1644.5 1030.5 c 128,-1,9
 1655 974 1655 974 1655 910 c 0,10,11
 1655 844 1655 844 1642.5 786 c 128,-1,12
 1630 728 1630 728 1596 679.5 c 128,-1,13
 1562 631 1562 631 1502.5 592.5 c 128,-1,14
 1443 554 1443 554 1349.5 527.5 c 128,-1,15
 1256 501 1256 501 1124 487 c 128,-1,16
 992 473 992 473 813 473 c 1,17,-1
 813 422 l 1,18,-1
 933 399 l 1,19,-1
 933 0 l 1,20,-1
 91 0 l 1,21,-1
 91 399 l 1,22,-1
 211 422 l 1,23,-1
 211 1119 l 1,24,-1
 91 1142 l 1,25,-1
 91 1536 l 1,0,-1
813 726 m 1,26,27
 868 726 868 726 912.5 732 c 128,-1,28
 957 738 957 738 988.5 758 c 128,-1,29
 1020 778 1020 778 1037 816 c 128,-1,30
 1054 854 1054 854 1054 919 c 0,31,32
 1054 979 1054 979 1037 1014 c 128,-1,33
 1020 1049 1020 1049 988.5 1068 c 128,-1,34
 957 1087 957 1087 912.5 1092.5 c 128,-1,35
 868 1098 868 1098 813 1098 c 1,36,-1
 813 726 l 1,26,27
EndSplineSet
Validated: 1
EndChar

StartChar: eth
Encoding: 240 240 192
Width: 1842
Flags: MW
LayerCount: 2
Fore
SplineSet
98 848 m 1,0,-1
 215 848 l 1,1,-1
 215 1025 l 1,2,-1
 95 1048 l 1,3,-1
 95 1408 l 1,4,-1
 1190 1408 l 1,5,6
 1326 1379 1326 1379 1435 1326 c 128,-1,7
 1544 1273 1544 1273 1620.5 1190.5 c 128,-1,8
 1697 1108 1697 1108 1738 992.5 c 128,-1,9
 1779 877 1779 877 1779 723 c 0,10,11
 1779 588 1779 588 1747.5 481.5 c 128,-1,12
 1716 375 1716 375 1657.5 294.5 c 128,-1,13
 1599 214 1599 214 1514 158 c 128,-1,14
 1429 102 1429 102 1322.5 67 c 128,-1,15
 1216 32 1216 32 1088.5 16 c 128,-1,16
 961 0 961 0 817 0 c 2,17,-1
 95 0 l 1,18,-1
 95 399 l 1,19,-1
 215 422 l 1,20,-1
 215 592 l 1,21,-1
 98 592 l 1,22,-1
 98 848 l 1,0,-1
909 422 m 2,23,24
 976 422 976 422 1022 432 c 128,-1,25
 1068 442 1068 442 1097.5 460 c 128,-1,26
 1127 478 1127 478 1143.5 505 c 128,-1,27
 1160 532 1160 532 1167.5 565 c 128,-1,28
 1175 598 1175 598 1176 638 c 128,-1,29
 1177 678 1177 678 1177 723 c 256,30,31
 1177 768 1177 768 1176 808 c 128,-1,32
 1175 848 1175 848 1167.5 881.5 c 128,-1,33
 1160 915 1160 915 1143.5 941.5 c 128,-1,34
 1127 968 1127 968 1097.5 986.5 c 128,-1,35
 1068 1005 1068 1005 1022 1015 c 128,-1,36
 976 1025 976 1025 909 1025 c 2,37,-1
 817 1025 l 1,38,-1
 817 848 l 1,39,-1
 994 848 l 1,40,-1
 994 592 l 1,41,-1
 817 592 l 1,42,-1
 817 422 l 1,43,-1
 909 422 l 2,23,24
EndSplineSet
Validated: 1
EndChar

StartChar: Eth
Encoding: 208 208 193
Width: 1960
Flags: MW
LayerCount: 2
Fore
SplineSet
104 896 m 1,0,-1
 228 896 l 1,1,-1
 228 1114 l 1,2,-1
 100 1139 l 1,3,-1
 100 1536 l 1,4,-1
 1265 1536 l 1,5,6
 1410 1505 1410 1505 1526 1446.5 c 128,-1,7
 1642 1388 1642 1388 1723.5 1297 c 128,-1,8
 1805 1206 1805 1206 1848.5 1079.5 c 128,-1,9
 1892 953 1892 953 1892 786 c 0,10,11
 1892 565 1892 565 1818 414.5 c 128,-1,12
 1744 264 1744 264 1609.5 172 c 128,-1,13
 1475 80 1475 80 1286 40 c 128,-1,14
 1097 0 1097 0 868 0 c 2,15,-1
 100 0 l 1,16,-1
 100 434 l 1,17,-1
 228 459 l 1,18,-1
 228 640 l 1,19,-1
 104 640 l 1,20,-1
 104 896 l 1,0,-1
966 459 m 2,21,22
 1073 459 1073 459 1131 482.5 c 128,-1,23
 1189 506 1189 506 1215.5 549 c 128,-1,24
 1242 592 1242 592 1246.5 652 c 128,-1,25
 1251 712 1251 712 1251 786 c 256,26,27
 1251 860 1251 860 1246.5 920.5 c 128,-1,28
 1242 981 1242 981 1215.5 1024 c 128,-1,29
 1189 1067 1189 1067 1131 1090.5 c 128,-1,30
 1073 1114 1073 1114 966 1114 c 2,31,-1
 868 1114 l 1,32,-1
 868 896 l 1,33,-1
 1000 896 l 1,34,-1
 1000 640 l 1,35,-1
 868 640 l 1,36,-1
 868 459 l 1,37,-1
 966 459 l 2,21,22
EndSplineSet
Validated: 1
EndChar

StartChar: germandbls
Encoding: 223 223 194
Width: 1812
Flags: MW
LayerCount: 2
Fore
SplineSet
953 385 m 1,0,1
 1013 385 1013 385 1050.5 397.5 c 128,-1,2
 1088 410 1088 410 1109.5 431 c 128,-1,3
 1131 452 1131 452 1138.5 478.5 c 128,-1,4
 1146 505 1146 505 1146 533 c 0,5,6
 1146 560 1146 560 1138.5 586.5 c 128,-1,7
 1131 613 1131 613 1110 634 c 128,-1,8
 1089 655 1089 655 1051 667.5 c 128,-1,9
 1013 680 1013 680 953 680 c 1,10,-1
 953 895 l 1,11,12
 1014 895 1014 895 1052 908 c 128,-1,13
 1090 921 1090 921 1111 942.5 c 128,-1,14
 1132 964 1132 964 1139 991 c 128,-1,15
 1146 1018 1146 1018 1146 1046 c 0,16,17
 1146 1073 1146 1073 1140 1099 c 128,-1,18
 1134 1125 1134 1125 1115 1145 c 128,-1,19
 1096 1165 1096 1165 1062 1177.5 c 128,-1,20
 1028 1190 1028 1190 972 1190 c 0,21,22
 944 1190 944 1190 917.5 1181 c 128,-1,23
 891 1172 891 1172 870.5 1154 c 128,-1,24
 850 1136 850 1136 837.5 1108.5 c 128,-1,25
 825 1081 825 1081 825 1044 c 2,26,-1
 825 0 l 1,27,-1
 57 0 l 1,28,-1
 57 434 l 1,29,-1
 185 459 l 1,30,-1
 185 1177 l 2,31,32
 185 1324 185 1324 264.5 1411 c 128,-1,33
 344 1498 344 1498 502 1536 c 1,34,-1
 1108 1536 l 2,35,36
 1243 1536 1243 1536 1340 1502.5 c 128,-1,37
 1437 1469 1437 1469 1499 1414 c 128,-1,38
 1561 1359 1561 1359 1590.5 1289.5 c 128,-1,39
 1620 1220 1620 1220 1620 1147 c 0,40,41
 1620 1090 1620 1090 1603 1035 c 128,-1,42
 1586 980 1586 980 1554 932 c 128,-1,43
 1522 884 1522 884 1475.5 846 c 128,-1,44
 1429 808 1429 808 1371 786 c 1,45,46
 1410 784 1410 784 1454.5 777 c 128,-1,47
 1499 770 1499 770 1543 755 c 128,-1,48
 1587 740 1587 740 1627 716 c 128,-1,49
 1667 692 1667 692 1697.5 656.5 c 128,-1,50
 1728 621 1728 621 1746 572 c 128,-1,51
 1764 523 1764 523 1764 459 c 0,52,53
 1764 361 1764 361 1739.5 277 c 128,-1,54
 1715 193 1715 193 1653.5 131.5 c 128,-1,55
 1592 70 1592 70 1486 35 c 128,-1,56
 1380 0 1380 0 1218 0 c 2,57,-1
 953 0 l 1,58,-1
 953 385 l 1,0,1
EndSplineSet
Validated: 1
EndChar

StartChar: section
Encoding: 167 167 195
Width: 1179
Flags: MW
LayerCount: 2
Fore
SplineSet
86 707 m 0,0,1
 86 795 86 795 112 856 c 128,-1,2
 138 917 138 917 183 962 c 1,3,4
 138 1000 138 1000 112 1052.5 c 128,-1,5
 86 1105 86 1105 86 1175 c 0,6,7
 86 1299 86 1299 131 1377.5 c 128,-1,8
 176 1456 176 1456 249 1500 c 128,-1,9
 322 1544 322 1544 413.5 1560 c 128,-1,10
 505 1576 505 1576 598 1576 c 0,11,12
 687 1576 687 1576 759 1567.5 c 128,-1,13
 831 1559 831 1559 888.5 1545.5 c 128,-1,14
 946 1532 946 1532 990 1515.5 c 128,-1,15
 1034 1499 1034 1499 1067 1483 c 1,16,-1
 1067 1199 l 1,17,-1
 841 1199 l 1,18,19
 803 1256 803 1256 756 1283 c 128,-1,20
 709 1310 709 1310 658 1310 c 0,21,22
 644 1310 644 1310 626.5 1305.5 c 128,-1,23
 609 1301 609 1301 594 1286 c 128,-1,24
 579 1271 579 1271 568.5 1241 c 128,-1,25
 558 1211 558 1211 558 1160 c 1,26,27
 690 1155 690 1155 790.5 1135.5 c 128,-1,28
 891 1116 891 1116 958 1077 c 128,-1,29
 1025 1038 1025 1038 1059 977 c 128,-1,30
 1093 916 1093 916 1093 828 c 256,31,32
 1093 740 1093 740 1066.5 678.5 c 128,-1,33
 1040 617 1040 617 995 572 c 1,34,35
 1040 534 1040 534 1066.5 482 c 128,-1,36
 1093 430 1093 430 1093 360 c 0,37,38
 1093 277 1093 277 1072.5 215 c 128,-1,39
 1052 153 1052 153 1015.5 108.5 c 128,-1,40
 979 64 979 64 930 35 c 128,-1,41
 881 6 881 6 824 -11 c 128,-1,42
 767 -28 767 -28 705 -34.5 c 128,-1,43
 643 -41 643 -41 581 -41 c 0,44,45
 469 -41 469 -41 383.5 -26.5 c 128,-1,46
 298 -12 298 -12 237 5 c 0,47,48
 202 15 202 15 171 26.5 c 128,-1,49
 140 38 140 38 112 52 c 1,50,-1
 112 336 l 1,51,-1
 338 336 l 1,52,53
 376 279 376 279 423 252 c 128,-1,54
 470 225 470 225 521 225 c 0,55,56
 535 225 535 225 552.5 229.5 c 128,-1,57
 570 234 570 234 585 249 c 128,-1,58
 600 264 600 264 610.5 294 c 128,-1,59
 621 324 621 324 621 375 c 1,60,61
 489 379 489 379 388.5 399 c 128,-1,62
 288 419 288 419 221 458.5 c 128,-1,63
 154 498 154 498 120 559 c 128,-1,64
 86 620 86 620 86 707 c 0,0,1
535 859 m 1,65,66
 514 852 514 852 496.5 839 c 128,-1,67
 479 826 479 826 466.5 810 c 128,-1,68
 454 794 454 794 447 776.5 c 128,-1,69
 440 759 440 759 440 743 c 0,70,71
 440 711 440 711 479.5 694.5 c 128,-1,72
 519 678 519 678 591 667 c 1,73,-1
 645 660 l 1,74,75
 671 667 671 667 690 680 c 128,-1,76
 709 693 709 693 721.5 709 c 128,-1,77
 734 725 734 725 740 742.5 c 128,-1,78
 746 760 746 760 746 776 c 0,79,80
 746 808 746 808 709 826 c 128,-1,81
 672 844 672 844 605 853 c 1,82,-1
 535 859 l 1,65,66
EndSplineSet
Validated: 1
EndChar

StartChar: currency
Encoding: 164 164 196
Width: 1333
Flags: MW
LayerCount: 2
Fore
SplineSet
1180 960 m 0,0,1
 1180 879 1180 879 1162.5 813 c 128,-1,2
 1145 747 1145 747 1114 692 c 1,3,-1
 1254 553 l 1,4,-1
 1073 372 l 1,5,-1
 932 513 l 1,6,7
 871 479 871 479 803.5 462.5 c 128,-1,8
 736 446 736 446 666 446 c 0,9,10
 597 446 597 446 529 463 c 128,-1,11
 461 480 461 480 401 514 c 1,12,-1
 259 372 l 1,13,-1
 78 553 l 1,14,-1
 220 695 l 1,15,16
 190 749 190 749 173 815.5 c 128,-1,17
 156 882 156 882 156 960 c 256,18,19
 156 1038 156 1038 173 1104 c 128,-1,20
 190 1170 190 1170 220 1224 c 1,21,-1
 78 1367 l 1,22,-1
 259 1548 l 1,23,-1
 403 1403 l 1,24,25
 463 1436 463 1436 530 1452.5 c 128,-1,26
 597 1469 597 1469 666 1469 c 256,27,28
 735 1469 735 1469 802 1452.5 c 128,-1,29
 869 1436 869 1436 929 1404 c 1,30,-1
 1073 1548 l 1,31,-1
 1254 1367 l 1,32,-1
 1113 1226 l 1,33,34
 1145 1172 1145 1172 1162.5 1105.5 c 128,-1,35
 1180 1039 1180 1039 1180 960 c 0,0,1
889 954 m 0,36,37
 889 1012 889 1012 870 1055.5 c 128,-1,38
 851 1099 851 1099 819.5 1128.5 c 128,-1,39
 788 1158 788 1158 748 1173 c 128,-1,40
 708 1188 708 1188 666 1188 c 0,41,42
 625 1188 625 1188 585.5 1173 c 128,-1,43
 546 1158 546 1158 515.5 1129 c 128,-1,44
 485 1100 485 1100 466 1056 c 128,-1,45
 447 1012 447 1012 447 954 c 0,46,47
 447 895 447 895 466 850.5 c 128,-1,48
 485 806 485 806 516 776.5 c 128,-1,49
 547 747 547 747 586.5 732.5 c 128,-1,50
 626 718 626 718 667 718 c 0,51,52
 709 718 709 718 749 733 c 128,-1,53
 789 748 789 748 820 777.5 c 128,-1,54
 851 807 851 807 870 851 c 128,-1,55
 889 895 889 895 889 954 c 0,36,37
EndSplineSet
Validated: 1
EndChar

StartChar: breve
Encoding: 728 728 197
Width: 934
Flags: MW
LayerCount: 2
Fore
SplineSet
334 1980 m 1,0,1
 334 1942 334 1942 345.5 1914 c 128,-1,2
 357 1886 357 1886 375.5 1866.5 c 128,-1,3
 394 1847 394 1847 418 1837.5 c 128,-1,4
 442 1828 442 1828 467 1828 c 256,5,6
 492 1828 492 1828 515.5 1837.5 c 128,-1,7
 539 1847 539 1847 558 1866.5 c 128,-1,8
 577 1886 577 1886 588.5 1914 c 128,-1,9
 600 1942 600 1942 600 1980 c 1,10,-1
 869 1980 l 1,11,12
 869 1868 869 1868 834.5 1784.5 c 128,-1,13
 800 1701 800 1701 743.5 1645.5 c 128,-1,14
 687 1590 687 1590 614.5 1562.5 c 128,-1,15
 542 1535 542 1535 466 1535 c 0,16,17
 391 1535 391 1535 319 1562.5 c 128,-1,18
 247 1590 247 1590 190.5 1645.5 c 128,-1,19
 134 1701 134 1701 99.5 1784.5 c 128,-1,20
 65 1868 65 1868 65 1980 c 1,21,-1
 334 1980 l 1,0,1
EndSplineSet
Validated: 1
EndChar

StartChar: dotaccent
Encoding: 729 729 198
Width: 829
Flags: MW
LayerCount: 2
Fore
SplineSet
95 2176 m 1,0,-1
 735 2176 l 1,1,-1
 735 1664 l 1,2,-1
 95 1664 l 1,3,-1
 95 2176 l 1,0,-1
EndSplineSet
Validated: 1
EndChar

StartChar: trademark
Encoding: 8482 8482 199
Width: 2464
Flags: MW
LayerCount: 2
Fore
SplineSet
1526 1077 m 1,0,-1
 1526 640 l 1,1,-1
 1078 640 l 1,2,-1
 1078 893 l 1,3,-1
 1153 907 l 1,4,-1
 1153 1269 l 1,5,-1
 1078 1283 l 1,6,-1
 1078 1536 l 1,7,-1
 1526 1536 l 1,8,-1
 1713 1192 l 1,9,-1
 1900 1536 l 1,10,-1
 2348 1536 l 1,11,-1
 2348 1283 l 1,12,-1
 2273 1269 l 1,13,-1
 2273 907 l 1,14,-1
 2348 893 l 1,15,-1
 2348 640 l 1,16,-1
 1900 640 l 1,17,-1
 1900 1077 l 1,18,-1
 1713 755 l 1,19,-1
 1526 1077 l 1,0,-1
995 1536 m 1,20,-1
 995 1237 l 1,21,-1
 866 1237 l 1,22,23
 855 1250 855 1250 842 1263.5 c 128,-1,24
 829 1277 829 1277 812.5 1287.5 c 128,-1,25
 796 1298 796 1298 776.5 1305 c 128,-1,26
 757 1312 757 1312 733 1312 c 1,27,-1
 733 907 l 1,28,-1
 808 893 l 1,29,-1
 808 640 l 1,30,-1
 285 640 l 1,31,-1
 285 893 l 1,32,-1
 360 907 l 1,33,-1
 360 1312 l 1,34,35
 338 1312 338 1312 318.5 1305 c 128,-1,36
 299 1298 299 1298 282 1287.5 c 128,-1,37
 265 1277 265 1277 251 1263.5 c 128,-1,38
 237 1250 237 1250 227 1237 c 1,39,-1
 99 1237 l 1,40,-1
 99 1536 l 1,41,-1
 995 1536 l 1,20,-1
EndSplineSet
Validated: 1
EndChar

StartChar: four
Encoding: 52 52 200
Width: 1640
Flags: MW
LayerCount: 2
Fore
SplineSet
18 848 m 1,0,-1
 658 1536 l 1,1,-1
 1298 1576 l 1,2,-1
 1298 848 l 1,3,-1
 1618 848 l 1,4,-1
 1618 592 l 1,5,-1
 1298 592 l 1,6,-1
 1298 424 l 1,7,-1
 1426 399 l 1,8,-1
 1426 0 l 1,9,-1
 530 0 l 1,10,-1
 530 399 l 1,11,-1
 658 424 l 1,12,-1
 658 592 l 1,13,-1
 18 592 l 1,14,-1
 18 848 l 1,0,-1
386 848 m 1,15,-1
 658 848 l 1,16,-1
 658 1168 l 1,17,-1
 386 848 l 1,15,-1
EndSplineSet
Validated: 1
EndChar

StartChar: threequarters
Encoding: 190 190 201
Width: 3052
Flags: MW
LayerCount: 2
Fore
SplineSet
483 743 m 0,0,1
 516 743 516 743 541 751.5 c 128,-1,2
 566 760 566 760 583 773.5 c 128,-1,3
 600 787 600 787 608.5 805 c 128,-1,4
 617 823 617 823 617 841 c 0,5,6
 617 856 617 856 611.5 870 c 128,-1,7
 606 884 606 884 595 895 c 128,-1,8
 584 906 584 906 568 913 c 128,-1,9
 552 920 552 920 531 920 c 2,10,-1
 354 920 l 1,11,-1
 354 1123 l 1,12,-1
 531 1123 l 2,13,14
 552 1123 552 1123 568 1130 c 128,-1,15
 584 1137 584 1137 595 1148 c 128,-1,16
 606 1159 606 1159 611.5 1173 c 128,-1,17
 617 1187 617 1187 617 1202 c 0,18,19
 617 1220 617 1220 608.5 1238 c 128,-1,20
 600 1256 600 1256 583 1269.5 c 128,-1,21
 566 1283 566 1283 541 1291.5 c 128,-1,22
 516 1300 516 1300 483 1300 c 0,23,24
 432 1300 432 1300 383.5 1276.5 c 128,-1,25
 335 1253 335 1253 297 1204 c 1,26,-1
 91 1204 l 1,27,-1
 91 1489 l 1,28,29
 124 1503 124 1503 168.5 1518.5 c 128,-1,30
 213 1534 213 1534 270.5 1546.5 c 128,-1,31
 328 1559 328 1559 400.5 1567.5 c 128,-1,32
 473 1576 473 1576 562 1576 c 0,33,34
 688 1576 688 1576 781 1546.5 c 128,-1,35
 874 1517 874 1517 935 1468 c 128,-1,36
 996 1419 996 1419 1026 1356 c 128,-1,37
 1056 1293 1056 1293 1056 1227 c 0,38,39
 1056 1177 1056 1177 1043 1141 c 128,-1,40
 1030 1105 1030 1105 1011 1081 c 128,-1,41
 992 1057 992 1057 969.5 1042.5 c 128,-1,42
 947 1028 947 1028 929 1021 c 1,43,44
 949 1012 949 1012 971.5 996.5 c 128,-1,45
 994 981 994 981 1012.5 957 c 128,-1,46
 1031 933 1031 933 1043.5 898.5 c 128,-1,47
 1056 864 1056 864 1056 816 c 0,48,49
 1056 750 1056 750 1026 687.5 c 128,-1,50
 996 625 996 625 935 576.5 c 128,-1,51
 874 528 874 528 781 498.5 c 128,-1,52
 688 469 688 469 562 469 c 0,53,54
 473 469 473 469 400 476.5 c 128,-1,55
 327 484 327 484 269 496.5 c 128,-1,56
 211 509 211 509 166.5 524 c 128,-1,57
 122 539 122 539 91 554 c 1,58,-1
 91 839 l 1,59,-1
 297 839 l 1,60,61
 335 788 335 788 383.5 765.5 c 128,-1,62
 432 743 432 743 483 743 c 0,0,1
1388 1536 m 1,63,-1
 2028 1536 l 1,64,-1
 1644 0 l 1,65,-1
 1004 0 l 1,66,-1
 1388 1536 l 1,63,-1
1920 573 m 1,67,-1
 2353 1037 l 1,68,-1
 2785 1064 l 1,69,-1
 2785 573 l 1,70,-1
 3001 573 l 1,71,-1
 3001 400 l 1,72,-1
 2785 400 l 1,73,-1
 2785 310 l 1,74,-1
 2872 293 l 1,75,-1
 2872 0 l 1,76,-1
 2266 0 l 1,77,-1
 2266 293 l 1,78,-1
 2353 310 l 1,79,-1
 2353 400 l 1,80,-1
 1920 400 l 1,81,-1
 1920 573 l 1,67,-1
2169 573 m 1,82,-1
 2353 573 l 1,83,-1
 2353 789 l 1,84,-1
 2169 573 l 1,82,-1
EndSplineSet
Validated: 1
EndChar

StartChar: eight
Encoding: 56 56 202
Width: 1592
Flags: MW
LayerCount: 2
Fore
SplineSet
1481 1130 m 0,0,1
 1481 1021 1481 1021 1420 936 c 128,-1,2
 1359 851 1359 851 1253 788 c 1,3,4
 1316 758 1316 758 1367.5 720.5 c 128,-1,5
 1419 683 1419 683 1455.5 638.5 c 128,-1,6
 1492 594 1492 594 1511.5 543.5 c 128,-1,7
 1531 493 1531 493 1531 436 c 0,8,9
 1531 318 1531 318 1486 230.5 c 128,-1,10
 1441 143 1441 143 1348 85.5 c 128,-1,11
 1255 28 1255 28 1113 -0.5 c 128,-1,12
 971 -29 971 -29 778 -29 c 0,13,14
 593 -29 593 -29 458 1.5 c 128,-1,15
 323 32 323 32 235 91 c 128,-1,16
 147 150 147 150 104 236.5 c 128,-1,17
 61 323 61 323 61 436 c 0,18,19
 61 493 61 493 80.5 543.5 c 128,-1,20
 100 594 100 594 136 638.5 c 128,-1,21
 172 683 172 683 223.5 720.5 c 128,-1,22
 275 758 275 758 338 788 c 1,23,24
 232 851 232 851 171.5 936 c 128,-1,25
 111 1021 111 1021 111 1130 c 0,26,27
 111 1233 111 1233 151 1313 c 128,-1,28
 191 1393 191 1393 275 1447.5 c 128,-1,29
 359 1502 359 1502 488 1530.5 c 128,-1,30
 617 1559 617 1559 796 1559 c 256,31,32
 975 1559 975 1559 1104.5 1530.5 c 128,-1,33
 1234 1502 1234 1502 1317.5 1447 c 128,-1,34
 1401 1392 1401 1392 1441 1312 c 128,-1,35
 1481 1232 1481 1232 1481 1130 c 0,0,1
796 923 m 256,36,37
 835 923 835 923 866 928.5 c 128,-1,38
 897 934 897 934 918 949 c 128,-1,39
 939 964 939 964 950 990.5 c 128,-1,40
 961 1017 961 1017 961 1060 c 0,41,42
 961 1106 961 1106 950.5 1135.5 c 128,-1,43
 940 1165 940 1165 919 1181.5 c 128,-1,44
 898 1198 898 1198 867 1204 c 128,-1,45
 836 1210 836 1210 796 1210 c 0,46,47
 755 1210 755 1210 724.5 1204 c 128,-1,48
 694 1198 694 1198 673 1181.5 c 128,-1,49
 652 1165 652 1165 641.5 1135.5 c 128,-1,50
 631 1106 631 1106 631 1060 c 0,51,52
 631 1017 631 1017 642 990.5 c 128,-1,53
 653 964 653 964 674 949 c 128,-1,54
 695 934 695 934 726 928.5 c 128,-1,55
 757 923 757 923 796 923 c 256,36,37
796 652 m 256,56,57
 752 652 752 652 717.5 645.5 c 128,-1,58
 683 639 683 639 659.5 620 c 128,-1,59
 636 601 636 601 623.5 567.5 c 128,-1,60
 611 534 611 534 611 480 c 0,61,62
 611 434 611 434 623 406 c 128,-1,63
 635 378 635 378 658.5 362.5 c 128,-1,64
 682 347 682 347 716.5 342 c 128,-1,65
 751 337 751 337 796 337 c 256,66,67
 841 337 841 337 875.5 342 c 128,-1,68
 910 347 910 347 933.5 362.5 c 128,-1,69
 957 378 957 378 969 406 c 128,-1,70
 981 434 981 434 981 480 c 0,71,72
 981 534 981 534 968.5 567.5 c 128,-1,73
 956 601 956 601 932.5 620 c 128,-1,74
 909 639 909 639 874.5 645.5 c 128,-1,75
 840 652 840 652 796 652 c 256,56,57
EndSplineSet
Validated: 1
EndChar

StartChar: at
Encoding: 64 64 203
Width: 1868
Flags: MW
LayerCount: 2
Fore
SplineSet
1813 811 m 0,0,1
 1813 717 1813 717 1790.5 632 c 128,-1,2
 1768 547 1768 547 1717.5 483 c 128,-1,3
 1667 419 1667 419 1587.5 381 c 128,-1,4
 1508 343 1508 343 1394 343 c 0,5,6
 1352 343 1352 343 1306 352 c 128,-1,7
 1260 361 1260 361 1218.5 377 c 128,-1,8
 1177 393 1177 393 1144 414.5 c 128,-1,9
 1111 436 1111 436 1094 462 c 1,10,11
 1022 405 1022 405 948.5 382 c 128,-1,12
 875 359 875 359 806 359 c 0,13,14
 740 359 740 359 681.5 391 c 128,-1,15
 623 423 623 423 579.5 477 c 128,-1,16
 536 531 536 531 511 601 c 128,-1,17
 486 671 486 671 486 746 c 0,18,19
 486 863 486 863 518.5 949 c 128,-1,20
 551 1035 551 1035 609 1092 c 128,-1,21
 667 1149 667 1149 747.5 1177 c 128,-1,22
 828 1205 828 1205 925 1205 c 0,23,24
 967 1205 967 1205 1014.5 1199.5 c 128,-1,25
 1062 1194 1062 1194 1112.5 1182.5 c 128,-1,26
 1163 1171 1163 1171 1214.5 1155 c 128,-1,27
 1266 1139 1266 1139 1316 1118 c 1,28,-1
 1316 599 l 2,29,30
 1316 568 1316 568 1346 550.5 c 128,-1,31
 1376 533 1376 533 1418 533 c 0,32,33
 1439 533 1439 533 1462 548.5 c 128,-1,34
 1485 564 1485 564 1504 597.5 c 128,-1,35
 1523 631 1523 631 1535 684 c 128,-1,36
 1547 737 1547 737 1547 812 c 0,37,38
 1547 922 1547 922 1496.5 1019 c 128,-1,39
 1446 1116 1446 1116 1358.5 1188 c 128,-1,40
 1271 1260 1271 1260 1153 1302 c 128,-1,41
 1035 1344 1035 1344 901 1344 c 0,42,43
 824 1344 824 1344 752 1323 c 128,-1,44
 680 1302 680 1302 617 1263.5 c 128,-1,45
 554 1225 554 1225 502.5 1171.5 c 128,-1,46
 451 1118 451 1118 414.5 1053 c 128,-1,47
 378 988 378 988 357.5 913 c 128,-1,48
 337 838 337 838 337 758 c 0,49,50
 337 615 337 615 391.5 510.5 c 128,-1,51
 446 406 446 406 536 337 c 128,-1,52
 626 268 626 268 741 234.5 c 128,-1,53
 856 201 856 201 978 201 c 0,54,55
 1115 201 1115 201 1250.5 221 c 128,-1,56
 1386 241 1386 241 1507 281 c 1,57,-1
 1507 32 l 1,58,59
 1379 -4 1379 -4 1245.5 -22 c 128,-1,60
 1112 -40 1112 -40 977 -40 c 0,61,62
 861 -40 861 -40 749 -17 c 128,-1,63
 637 6 637 6 536 51.5 c 128,-1,64
 435 97 435 97 349 164.5 c 128,-1,65
 263 232 263 232 200.5 320.5 c 128,-1,66
 138 409 138 409 103 518 c 128,-1,67
 68 627 68 627 68 757 c 0,68,69
 68 870 68 870 98 974.5 c 128,-1,70
 128 1079 128 1079 182 1170 c 128,-1,71
 236 1261 236 1261 312 1336 c 128,-1,72
 388 1411 388 1411 480.5 1464 c 128,-1,73
 573 1517 573 1517 679 1546.5 c 128,-1,74
 785 1576 785 1576 900 1576 c 0,75,76
 1026 1576 1026 1576 1143 1548.5 c 128,-1,77
 1260 1521 1260 1521 1361.5 1471 c 128,-1,78
 1463 1421 1463 1421 1546 1351 c 128,-1,79
 1629 1281 1629 1281 1688.5 1196 c 128,-1,80
 1748 1111 1748 1111 1780.5 1013.5 c 128,-1,81
 1813 916 1813 916 1813 811 c 0,0,1
1040 1014 m 1,82,83
 1018 1017 1018 1017 994.5 1018.5 c 128,-1,84
 971 1020 971 1020 951 1020 c 0,85,86
 854 1020 854 1020 808.5 967 c 128,-1,87
 763 914 763 914 763 796 c 0,88,89
 763 745 763 745 771 701.5 c 128,-1,90
 779 658 779 658 797 626 c 128,-1,91
 815 594 815 594 843 575.5 c 128,-1,92
 871 557 871 557 912 557 c 0,93,94
 939 557 939 557 970.5 565.5 c 128,-1,95
 1002 574 1002 574 1040 594 c 1,96,-1
 1040 1014 l 1,82,83
EndSplineSet
Validated: 1
EndChar

StartChar: plusminus
Encoding: 177 177 204
Width: 1146
Flags: MW
LayerCount: 2
Fore
SplineSet
61 1024 m 1,0,-1
 445 1024 l 1,1,-1
 445 1408 l 1,2,-1
 701 1408 l 1,3,-1
 701 1024 l 1,4,-1
 1085 1024 l 1,5,-1
 1085 768 l 1,6,-1
 701 768 l 1,7,-1
 701 384 l 1,8,-1
 445 384 l 1,9,-1
 445 768 l 1,10,-1
 61 768 l 1,11,-1
 61 1024 l 1,0,-1
186 256 m 1,12,-1
 954 256 l 1,13,-1
 954 0 l 1,14,-1
 186 0 l 1,15,-1
 186 256 l 1,12,-1
EndSplineSet
Validated: 1
EndChar

StartChar: minus
Encoding: 8722 8722 205
Width: 1000
Flags: MW
LayerCount: 2
Fore
SplineSet
116 896 m 1,0,-1
 884 896 l 1,1,-1
 884 512 l 1,2,-1
 116 512 l 1,3,-1
 116 896 l 1,0,-1
EndSplineSet
Validated: 1
EndChar

StartChar: logicalnot
Encoding: 172 172 206
Width: 987
Flags: MW
LayerCount: 2
Fore
SplineSet
97 896 m 1,0,-1
 865 896 l 1,1,-1
 865 256 l 1,2,-1
 609 256 l 1,3,-1
 609 512 l 1,4,-1
 97 512 l 1,5,-1
 97 896 l 1,0,-1
EndSplineSet
Validated: 1
EndChar

StartChar: divide
Encoding: 247 247 207
Width: 916
Flags: MW
LayerCount: 2
Fore
SplineSet
266 1280 m 1,0,-1
 650 1280 l 1,1,-1
 650 896 l 1,2,-1
 266 896 l 1,3,-1
 266 1280 l 1,0,-1
74 768 m 1,4,-1
 842 768 l 1,5,-1
 842 512 l 1,6,-1
 74 512 l 1,7,-1
 74 768 l 1,4,-1
266 384 m 1,8,-1
 650 384 l 1,9,-1
 650 0 l 1,10,-1
 266 0 l 1,11,-1
 266 384 l 1,8,-1
EndSplineSet
Validated: 1
EndChar

StartChar: uni0311
Encoding: 785 785 208
Width: 934
Flags: MW
LayerCount: 2
Fore
SplineSet
65 1535 m 1,0,1
 65 1647 65 1647 99.5 1730.5 c 128,-1,2
 134 1814 134 1814 190.5 1869.5 c 128,-1,3
 247 1925 247 1925 319 1952.5 c 128,-1,4
 391 1980 391 1980 466 1980 c 0,5,6
 542 1980 542 1980 614.5 1952.5 c 128,-1,7
 687 1925 687 1925 743.5 1869.5 c 128,-1,8
 800 1814 800 1814 834.5 1730.5 c 128,-1,9
 869 1647 869 1647 869 1535 c 1,10,-1
 600 1535 l 1,11,12
 600 1572 600 1572 588.5 1600.5 c 128,-1,13
 577 1629 577 1629 558 1648.5 c 128,-1,14
 539 1668 539 1668 515.5 1677.5 c 128,-1,15
 492 1687 492 1687 467 1687 c 256,16,17
 442 1687 442 1687 418 1677.5 c 128,-1,18
 394 1668 394 1668 375.5 1648.5 c 128,-1,19
 357 1629 357 1629 345.5 1600.5 c 128,-1,20
 334 1572 334 1572 334 1535 c 1,21,-1
 65 1535 l 1,0,1
EndSplineSet
Validated: 1
EndChar

StartChar: uni030F
Encoding: 783 783 209
Width: 1500
Flags: MW
LayerCount: 2
Fore
SplineSet
703 2304 m 1,0,-1
 1193 2304 l 1,1,-1
 1432 1664 l 1,2,-1
 1007 1664 l 1,3,-1
 703 2304 l 1,0,-1
52 2304 m 1,4,-1
 542 2304 l 1,5,-1
 881 1664 l 1,6,-1
 456 1664 l 1,7,-1
 52 2304 l 1,4,-1
EndSplineSet
Validated: 1
EndChar

StartChar: quotesingle
Encoding: 39 39 237
Width: 462
Flags: MW
LayerCount: 2
Fore
SplineSet
389 1413 m 1,0,-1
 339 908 l 1,1,-1
 123 908 l 1,2,-1
 73 1413 l 1,3,-1
 73 1536 l 1,4,-1
 389 1536 l 1,5,-1
 389 1413 l 1,0,-1
EndSplineSet
Validated: 1
EndChar

StartChar: quotedbl
Encoding: 34 34 238
Width: 916
Flags: MW
LayerCount: 2
Fore
SplineSet
842 1413 m 1,0,-1
 792 908 l 1,1,-1
 576 908 l 1,2,-1
 526 1413 l 1,3,-1
 526 1536 l 1,4,-1
 842 1536 l 1,5,-1
 842 1413 l 1,0,-1
389 1413 m 1,6,-1
 339 908 l 1,7,-1
 123 908 l 1,8,-1
 73 1413 l 1,9,-1
 73 1536 l 1,10,-1
 389 1536 l 1,11,-1
 389 1413 l 1,6,-1
EndSplineSet
Validated: 1
EndChar

StartChar: endash
Encoding: 8211 8211 239
Width: 735
Flags: MW
LayerCount: 2
Fore
SplineSet
623 896 m 1,0,-1
 623 640 l 1,1,-1
 111 640 l 1,2,-1
 111 896 l 1,3,-1
 623 896 l 1,0,-1
EndSplineSet
Validated: 1
EndChar

StartChar: emdash
Encoding: 8212 8212 240
Width: 921
Flags: MW
LayerCount: 2
Fore
SplineSet
809 896 m 1,0,-1
 809 640 l 1,1,-1
 111 640 l 1,2,-1
 111 896 l 1,3,-1
 809 896 l 1,0,-1
EndSplineSet
Validated: 1
EndChar

StartChar: underscore
Encoding: 95 95 241
Width: 863
Flags: MW
LayerCount: 2
Fore
SplineSet
781 224 m 1,0,-1
 781 -32 l 1,1,-1
 83 -32 l 1,2,-1
 83 224 l 1,3,-1
 781 224 l 1,0,-1
EndSplineSet
Validated: 1
EndChar

StartChar: lslash
Encoding: 322 322 243
Width: 1279
Flags: MW
LayerCount: 2
Fore
SplineSet
818 896 m 1,0,-1
 907 896 l 1,1,-1
 907 640 l 1,2,-1
 818 640 l 1,3,-1
 818 384 l 1,4,5
 860 384 860 384 898 395.5 c 128,-1,6
 936 407 936 407 968.5 425.5 c 128,-1,7
 1001 444 1001 444 1027.5 466.5 c 128,-1,8
 1054 489 1054 489 1074 512 c 1,9,-1
 1241 512 l 1,10,-1
 1241 0 l 1,11,-1
 97 0 l 1,12,-1
 97 399 l 1,13,-1
 217 422 l 1,14,-1
 217 640 l 1,15,-1
 97 640 l 1,16,-1
 97 896 l 1,17,-1
 217 896 l 1,18,-1
 217 991 l 1,19,-1
 97 1014 l 1,20,-1
 97 1413 l 1,21,-1
 939 1413 l 1,22,-1
 939 1014 l 1,23,-1
 818 991 l 1,24,-1
 818 896 l 1,0,-1
EndSplineSet
Validated: 1
EndChar

StartChar: Lslash
Encoding: 321 321 244
Width: 1356
Flags: MW
LayerCount: 2
Fore
SplineSet
870 896 m 1,0,-1
 1042 896 l 1,1,-1
 1042 640 l 1,2,-1
 870 640 l 1,3,-1
 870 384 l 1,4,5
 918 384 918 384 960 395.5 c 128,-1,6
 1002 407 1002 407 1038 425 c 128,-1,7
 1074 443 1074 443 1103.5 466 c 128,-1,8
 1133 489 1133 489 1155 512 c 1,9,-1
 1322 512 l 1,10,-1
 1322 0 l 1,11,-1
 102 0 l 1,12,-1
 102 434 l 1,13,-1
 230 459 l 1,14,-1
 230 640 l 1,15,-1
 102 640 l 1,16,-1
 102 896 l 1,17,-1
 230 896 l 1,18,-1
 230 1077 l 1,19,-1
 102 1102 l 1,20,-1
 102 1536 l 1,21,-1
 998 1536 l 1,22,-1
 998 1102 l 1,23,-1
 870 1077 l 1,24,-1
 870 896 l 1,0,-1
EndSplineSet
Validated: 1
EndChar

StartChar: Dcroat
Encoding: 272 272 267
Width: 1960
Flags: MW
LayerCount: 2
Fore
SplineSet
1265 1536 m 1,0,1
 1410 1505 1410 1505 1526 1446.5 c 128,-1,2
 1642 1388 1642 1388 1723.5 1297 c 128,-1,3
 1805 1206 1805 1206 1848.5 1079.5 c 128,-1,4
 1892 953 1892 953 1892 786 c 0,5,6
 1892 565 1892 565 1818 414.5 c 128,-1,7
 1744 264 1744 264 1609.5 172 c 128,-1,8
 1475 80 1475 80 1286 40 c 128,-1,9
 1097 0 1097 0 868 0 c 2,10,-1
 100 0 l 1,11,-1
 100 434 l 1,12,-1
 228 459 l 1,13,-1
 228 656 l 1,14,-1
 100 656 l 1,15,-1
 100 913 l 1,16,-1
 228 913 l 1,17,-1
 228 1114 l 1,18,-1
 100 1139 l 1,19,-1
 100 1536 l 1,20,-1
 1265 1536 l 1,0,1
966 459 m 2,21,22
 1073 459 1073 459 1131 482.5 c 128,-1,23
 1189 506 1189 506 1215.5 549 c 128,-1,24
 1242 592 1242 592 1246.5 652 c 128,-1,25
 1251 712 1251 712 1251 786 c 256,26,27
 1251 860 1251 860 1246.5 920.5 c 128,-1,28
 1242 981 1242 981 1215.5 1024 c 128,-1,29
 1189 1067 1189 1067 1131 1090.5 c 128,-1,30
 1073 1114 1073 1114 966 1114 c 2,31,-1
 868 1114 l 1,32,-1
 868 913 l 1,33,-1
 1004 913 l 1,34,-1
 1004 656 l 1,35,-1
 868 656 l 1,36,-1
 868 459 l 1,37,-1
 966 459 l 2,21,22
EndSplineSet
Validated: 1
EndChar

StartChar: dcroat
Encoding: 273 273 283
Width: 1842
Flags: MW
LayerCount: 2
Fore
SplineSet
1190 1408 m 1,0,1
 1326 1379 1326 1379 1435 1326 c 128,-1,2
 1544 1273 1544 1273 1620.5 1190.5 c 128,-1,3
 1697 1108 1697 1108 1738 992.5 c 128,-1,4
 1779 877 1779 877 1779 723 c 0,5,6
 1779 588 1779 588 1747.5 481.5 c 128,-1,7
 1716 375 1716 375 1657.5 294.5 c 128,-1,8
 1599 214 1599 214 1514 158 c 128,-1,9
 1429 102 1429 102 1322.5 67 c 128,-1,10
 1216 32 1216 32 1088.5 16 c 128,-1,11
 961 0 961 0 817 0 c 2,12,-1
 95 0 l 1,13,-1
 95 399 l 1,14,-1
 215 422 l 1,15,-1
 215 598 l 1,16,-1
 94 598 l 1,17,-1
 94 854 l 1,18,-1
 215 854 l 1,19,-1
 215 1025 l 1,20,-1
 95 1048 l 1,21,-1
 95 1408 l 1,22,-1
 1190 1408 l 1,0,1
909 422 m 2,23,24
 976 422 976 422 1022 432 c 128,-1,25
 1068 442 1068 442 1097.5 460 c 128,-1,26
 1127 478 1127 478 1143.5 505 c 128,-1,27
 1160 532 1160 532 1167.5 565 c 128,-1,28
 1175 598 1175 598 1176 638 c 128,-1,29
 1177 678 1177 678 1177 723 c 256,30,31
 1177 768 1177 768 1176 808 c 128,-1,32
 1175 848 1175 848 1167.5 881.5 c 128,-1,33
 1160 915 1160 915 1143.5 941.5 c 128,-1,34
 1127 968 1127 968 1097.5 986.5 c 128,-1,35
 1068 1005 1068 1005 1022 1015 c 128,-1,36
 976 1025 976 1025 909 1025 c 2,37,-1
 817 1025 l 1,38,-1
 817 854 l 1,39,-1
 945 854 l 1,40,-1
 945 598 l 1,41,-1
 817 598 l 1,42,-1
 817 422 l 1,43,-1
 909 422 l 2,23,24
EndSplineSet
Validated: 1
EndChar

StartChar: guilsinglleft
Encoding: 8249 8249 292
Width: 908
Flags: MW
LayerCount: 2
Fore
SplineSet
467 627 m 1,0,-1
 801 464 l 1,1,-1
 801 -17 l 1,2,-1
 68 357 l 1,3,-1
 68 1047 l 1,4,-1
 801 1421 l 1,5,-1
 801 789 l 1,6,-1
 467 627 l 1,0,-1
EndSplineSet
Validated: 1
EndChar

StartChar: guilsinglright
Encoding: 8250 8250 293
Width: 909
Flags: MW
LayerCount: 2
Fore
SplineSet
107 789 m 1,0,-1
 107 1421 l 1,1,-1
 840 1047 l 1,2,-1
 840 357 l 1,3,-1
 107 -17 l 1,4,-1
 107 464 l 1,5,-1
 441 627 l 1,6,-1
 107 789 l 1,0,-1
EndSplineSet
Validated: 1
EndChar

StartChar: less
Encoding: 60 60 296
Width: 1161
Flags: MW
LayerCount: 2
Fore
SplineSet
523 627 m 1,0,-1
 1067 464 l 1,1,-1
 1067 -17 l 1,2,-1
 74 357 l 1,3,-1
 74 1047 l 1,4,-1
 1067 1421 l 1,5,-1
 1067 789 l 1,6,-1
 523 627 l 1,0,-1
EndSplineSet
Validated: 1
EndChar

StartChar: greater
Encoding: 62 62 297
Width: 1160
Flags: MW
LayerCount: 2
Fore
SplineSet
93 789 m 1,0,-1
 93 1421 l 1,1,-1
 1086 1047 l 1,2,-1
 1086 357 l 1,3,-1
 93 -17 l 1,4,-1
 93 464 l 1,5,-1
 637 627 l 1,6,-1
 93 789 l 1,0,-1
EndSplineSet
Validated: 1
EndChar

StartChar: equal
Encoding: 61 61 298
Width: 931
Flags: MW
LayerCount: 2
Fore
SplineSet
814 896 m 1,0,-1
 814 640 l 1,1,-1
 116 640 l 1,2,-1
 116 896 l 1,3,-1
 814 896 l 1,0,-1
814 428 m 1,4,-1
 814 172 l 1,5,-1
 116 172 l 1,6,-1
 116 428 l 1,7,-1
 814 428 l 1,4,-1
EndSplineSet
Validated: 1
EndChar

StartChar: asciitilde
Encoding: 126 126 299
Width: 1053
Flags: MW
LayerCount: 2
Fore
SplineSet
918 742 m 1,0,1
 886 697 886 697 844 679 c 128,-1,2
 802 661 802 661 757 661 c 0,3,4
 711 661 711 661 662 676 c 128,-1,5
 613 691 613 691 563 709 c 128,-1,6
 513 727 513 727 463 742 c 128,-1,7
 413 757 413 757 365 757 c 0,8,9
 296 757 296 757 226 734 c 128,-1,10
 156 711 156 711 82 652 c 1,11,-1
 144 1078 l 1,12,13
 181 1120 181 1120 223.5 1136.5 c 128,-1,14
 266 1153 266 1153 314 1153 c 0,15,16
 359 1153 359 1153 407 1135 c 128,-1,17
 455 1117 455 1117 504 1095.5 c 128,-1,18
 553 1074 553 1074 602 1056 c 128,-1,19
 651 1038 651 1038 699 1038 c 0,20,21
 767 1038 767 1038 835.5 1064.5 c 128,-1,22
 904 1091 904 1091 978 1159 c 1,23,-1
 918 742 l 1,0,1
EndSplineSet
Validated: 1
EndChar

StartChar: asterisk
Encoding: 42 42 300
Width: 1307
Flags: MW
LayerCount: 2
Fore
SplineSet
805 349 m 1,0,-1
 487 349 l 1,1,-1
 487 474 l 1,2,-1
 507 652 l 1,3,-1
 379 528 l 1,4,-1
 282 452 l 1,5,-1
 86 700 l 1,6,-1
 183 776 l 1,7,-1
 438 940 l 1,8,-1
 178 1096 l 1,9,-1
 80 1170 l 1,10,-1
 268 1423 l 1,11,-1
 367 1350 l 1,12,-1
 513 1217 l 1,13,-1
 495 1414 l 1,14,-1
 495 1537 l 1,15,-1
 813 1537 l 1,16,-1
 813 1412 l 1,17,-1
 792 1234 l 1,18,-1
 921 1358 l 1,19,-1
 1018 1434 l 1,20,-1
 1214 1186 l 1,21,-1
 1117 1110 l 1,22,-1
 860 947 l 1,23,-1
 1122 790 l 1,24,-1
 1220 716 l 1,25,-1
 1032 463 l 1,26,-1
 933 536 l 1,27,-1
 786 668 l 1,28,-1
 805 472 l 1,29,-1
 805 349 l 1,0,-1
EndSplineSet
Validated: 1
EndChar

StartChar: ampersand
Encoding: 38 38 301
Width: 2961
Flags: MW
LayerCount: 2
Fore
SplineSet
2339 361 m 0,0,1
 2414 361 2414 361 2484 395 c 128,-1,2
 2554 429 2554 429 2611 501 c 1,3,-1
 2912 501 l 1,4,-1
 2912 95 l 1,5,6
 2859 73 2859 73 2793 51 c 128,-1,7
 2727 29 2727 29 2643.5 11 c 128,-1,8
 2560 -7 2560 -7 2456.5 -18 c 128,-1,9
 2353 -29 2353 -29 2224 -29 c 0,10,11
 2028 -29 2028 -29 1889.5 18 c 128,-1,12
 1751 65 1751 65 1661 143 c 1,13,14
 1568 87 1568 87 1467.5 53 c 128,-1,15
 1367 19 1367 19 1265 1 c 128,-1,16
 1163 -17 1163 -17 1063 -23 c 128,-1,17
 963 -29 963 -29 871 -29 c 0,18,19
 671 -29 671 -29 522.5 15 c 128,-1,20
 374 59 374 59 276 131 c 128,-1,21
 178 203 178 203 129.5 296 c 128,-1,22
 81 389 81 389 81 487 c 0,23,24
 81 565 81 565 94 622.5 c 128,-1,25
 107 680 107 680 132.5 722.5 c 128,-1,26
 158 765 158 765 196.5 794.5 c 128,-1,27
 235 824 235 824 286 847 c 1,28,29
 258 857 258 857 225.5 878.5 c 128,-1,30
 193 900 193 900 165.5 935.5 c 128,-1,31
 138 971 138 971 119.5 1023 c 128,-1,32
 101 1075 101 1075 101 1147 c 0,33,34
 101 1191 101 1191 111.5 1227 c 128,-1,35
 122 1263 122 1263 143.5 1294.5 c 128,-1,36
 165 1326 165 1326 197 1356 c 128,-1,37
 229 1386 229 1386 272 1418 c 0,38,39
 359 1482 359 1482 489.5 1520.5 c 128,-1,40
 620 1559 620 1559 801 1559 c 0,41,42
 948 1559 948 1559 1084.5 1525 c 128,-1,43
 1221 1491 1221 1491 1349 1433 c 1,44,-1
 1349 1113 l 1,45,-1
 1048 1113 l 1,46,47
 1040 1150 1040 1150 1023.5 1176 c 128,-1,48
 1007 1202 1007 1202 984.5 1218.5 c 128,-1,49
 962 1235 962 1235 936.5 1243 c 128,-1,50
 911 1251 911 1251 885 1251 c 0,51,52
 854 1251 854 1251 824.5 1241 c 128,-1,53
 795 1231 795 1231 772 1212.5 c 128,-1,54
 749 1194 749 1194 735 1168 c 128,-1,55
 721 1142 721 1142 721 1110 c 0,56,57
 721 1089 721 1089 729 1068 c 128,-1,58
 737 1047 737 1047 753 1031 c 128,-1,59
 769 1015 769 1015 792.5 1005 c 128,-1,60
 816 995 816 995 846 995 c 2,61,-1
 1504 995 l 1,62,-1
 1504 1536 l 1,63,-1
 2144 1536 l 1,64,-1
 2144 996 l 1,65,-1
 2528 996 l 1,66,-1
 2528 700 l 1,67,-1
 2145 700 l 1,68,69
 2144 680 2144 680 2144 661 c 128,-1,70
 2144 642 2144 642 2144 623 c 2,71,-1
 2144 504 l 2,72,73
 2144 477 2144 477 2156.5 451.5 c 128,-1,74
 2169 426 2169 426 2194 405.5 c 128,-1,75
 2219 385 2219 385 2255 373 c 128,-1,76
 2291 361 2291 361 2339 361 c 0,0,1
1016 361 m 0,77,78
 1103 361 1103 361 1178 370.5 c 128,-1,79
 1253 380 1253 380 1314 395 c 128,-1,80
 1375 410 1375 410 1423 427.5 c 128,-1,81
 1471 445 1471 445 1504 460 c 1,82,-1
 1504 699 l 1,83,-1
 846 699 l 2,84,85
 816 699 816 699 792.5 685.5 c 128,-1,86
 769 672 769 672 753 650.5 c 128,-1,87
 737 629 737 629 729 601 c 128,-1,88
 721 573 721 573 721 544 c 0,89,90
 721 509 721 509 739.5 476.5 c 128,-1,91
 758 444 758 444 794.5 418 c 128,-1,92
 831 392 831 392 886.5 376.5 c 128,-1,93
 942 361 942 361 1016 361 c 0,77,78
EndSplineSet
Validated: 1
EndChar

StartChar: guillemotleft
Encoding: 171 171 302
Width: 1802
Flags: MW
LayerCount: 2
Fore
SplineSet
1361 627 m 1,0,-1
 1695 464 l 1,1,-1
 1695 -17 l 1,2,-1
 962 357 l 1,3,-1
 962 1047 l 1,4,-1
 1695 1421 l 1,5,-1
 1695 789 l 1,6,-1
 1361 627 l 1,0,-1
467 627 m 1,7,-1
 801 464 l 1,8,-1
 801 -17 l 1,9,-1
 68 357 l 1,10,-1
 68 1047 l 1,11,-1
 801 1421 l 1,12,-1
 801 789 l 1,13,-1
 467 627 l 1,7,-1
EndSplineSet
Validated: 1
EndChar

StartChar: guillemotright
Encoding: 187 187 303
Width: 1803
Flags: MW
LayerCount: 2
Fore
SplineSet
1001 789 m 1,0,-1
 1001 1421 l 1,1,-1
 1734 1047 l 1,2,-1
 1734 357 l 1,3,-1
 1001 -17 l 1,4,-1
 1001 464 l 1,5,-1
 1335 627 l 1,6,-1
 1001 789 l 1,0,-1
107 789 m 1,7,-1
 107 1421 l 1,8,-1
 840 1047 l 1,9,-1
 840 357 l 1,10,-1
 107 -17 l 1,11,-1
 107 464 l 1,12,-1
 441 627 l 1,13,-1
 107 789 l 1,7,-1
EndSplineSet
Validated: 1
EndChar

StartChar: florin
Encoding: 402 402 305
Width: 1378
Flags: MW
LayerCount: 2
Fore
SplineSet
408 808 m 1,0,-1
 176 808 l 1,1,-1
 196 995 l 1,2,-1
 408 995 l 1,3,4
 410 1080 410 1080 421 1158 c 128,-1,5
 432 1236 432 1236 456.5 1304 c 128,-1,6
 481 1372 481 1372 521.5 1427.5 c 128,-1,7
 562 1483 562 1483 623 1522.5 c 128,-1,8
 684 1562 684 1562 767.5 1583.5 c 128,-1,9
 851 1605 851 1605 962 1605 c 0,10,11
 1049 1605 1049 1605 1127 1583.5 c 128,-1,12
 1205 1562 1205 1562 1263 1511 c 128,-1,13
 1321 1460 1321 1460 1355 1375 c 128,-1,14
 1389 1290 1389 1290 1389 1164 c 0,15,16
 1389 1156 1389 1156 1388.5 1147.5 c 128,-1,17
 1388 1139 1388 1139 1388 1131 c 1,18,-1
 1071 1131 l 1,19,20
 1074 1139 1074 1139 1076.5 1156.5 c 128,-1,21
 1079 1174 1079 1174 1079 1194 c 0,22,23
 1079 1210 1079 1210 1077 1226 c 128,-1,24
 1075 1242 1075 1242 1070 1255 c 128,-1,25
 1065 1268 1065 1268 1057 1276 c 128,-1,26
 1049 1284 1049 1284 1037 1284 c 0,27,28
 1022 1284 1022 1284 1009 1254.5 c 128,-1,29
 996 1225 996 1225 996 1150 c 2,30,-1
 996 995 l 1,31,-1
 1245 995 l 1,32,-1
 1225 808 l 1,33,-1
 996 808 l 1,34,-1
 996 412 l 2,35,36
 996 301 996 301 961 202.5 c 128,-1,37
 926 104 926 104 858 30.5 c 128,-1,38
 790 -43 790 -43 689.5 -85.5 c 128,-1,39
 589 -128 589 -128 458 -128 c 0,40,41
 371 -128 371 -128 289.5 -104.5 c 128,-1,42
 208 -81 208 -81 145 -35.5 c 128,-1,43
 82 10 82 10 44 76.5 c 128,-1,44
 6 143 6 143 6 229 c 0,45,46
 6 290 6 290 27 361 c 1,47,-1
 341 361 l 1,48,49
 340 355 340 355 338 335 c 128,-1,50
 336 315 336 315 336 292 c 0,51,52
 336 278 336 278 337.5 264 c 128,-1,53
 339 250 339 250 342.5 239 c 128,-1,54
 346 228 346 228 352.5 221 c 128,-1,55
 359 214 359 214 369 214 c 0,56,57
 376 214 376 214 383 223.5 c 128,-1,58
 390 233 390 233 395.5 255.5 c 128,-1,59
 401 278 401 278 404.5 315 c 128,-1,60
 408 352 408 352 408 408 c 2,61,-1
 408 808 l 1,0,-1
EndSplineSet
Validated: 1
EndChar

StartChar: macron
Encoding: 175 175 306
Width: 699
Flags: MW
LayerCount: 2
Fore
SplineSet
606 1752 m 1,0,-1
 606 1536 l 1,1,-1
 94 1536 l 1,2,-1
 94 1752 l 1,3,-1
 606 1752 l 1,0,-1
EndSplineSet
Validated: 1
EndChar

StartChar: integral
Encoding: 8747 8747 312
Width: 1371
Flags: MW
LayerCount: 2
Fore
SplineSet
395 958 m 2,0,1
 395 1047 395 1047 404 1129.5 c 128,-1,2
 413 1212 413 1212 436.5 1284 c 128,-1,3
 460 1356 460 1356 500 1415 c 128,-1,4
 540 1474 540 1474 601.5 1516.5 c 128,-1,5
 663 1559 663 1559 748.5 1582 c 128,-1,6
 834 1605 834 1605 949 1605 c 0,7,8
 1036 1605 1036 1605 1114 1583.5 c 128,-1,9
 1192 1562 1192 1562 1250 1511 c 128,-1,10
 1308 1460 1308 1460 1342 1375 c 128,-1,11
 1376 1290 1376 1290 1376 1164 c 0,12,13
 1376 1156 1376 1156 1375.5 1147.5 c 128,-1,14
 1375 1139 1375 1139 1375 1131 c 1,15,-1
 1058 1131 l 1,16,17
 1061 1139 1061 1139 1063.5 1156.5 c 128,-1,18
 1066 1174 1066 1174 1066 1194 c 0,19,20
 1066 1210 1066 1210 1064 1226 c 128,-1,21
 1062 1242 1062 1242 1057 1255 c 128,-1,22
 1052 1268 1052 1268 1044 1276 c 128,-1,23
 1036 1284 1036 1284 1024 1284 c 0,24,25
 1009 1284 1009 1284 996 1254.5 c 128,-1,26
 983 1225 983 1225 983 1150 c 2,27,-1
 983 412 l 2,28,29
 983 301 983 301 948 202.5 c 128,-1,30
 913 104 913 104 845 30.5 c 128,-1,31
 777 -43 777 -43 676.5 -85.5 c 128,-1,32
 576 -128 576 -128 445 -128 c 0,33,34
 358 -128 358 -128 276.5 -104.5 c 128,-1,35
 195 -81 195 -81 132 -35.5 c 128,-1,36
 69 10 69 10 31 76.5 c 128,-1,37
 -7 143 -7 143 -7 229 c 0,38,39
 -7 290 -7 290 14 361 c 1,40,-1
 328 361 l 1,41,42
 327 355 327 355 325 335 c 128,-1,43
 323 315 323 315 323 292 c 0,44,45
 323 278 323 278 324.5 264 c 128,-1,46
 326 250 326 250 329.5 239 c 128,-1,47
 333 228 333 228 339.5 221 c 128,-1,48
 346 214 346 214 356 214 c 0,49,50
 363 214 363 214 370 223.5 c 128,-1,51
 377 233 377 233 382.5 255.5 c 128,-1,52
 388 278 388 278 391.5 315 c 128,-1,53
 395 352 395 352 395 408 c 2,54,-1
 395 958 l 2,0,1
EndSplineSet
Validated: 1
EndChar

StartChar: Delta
Encoding: 916 916 314
AltUni2: 002206.ffffffff.0
Width: 1452
Flags: MW
LayerCount: 2
Fore
SplineSet
1393 0 m 1,0,-1
 61 0 l 1,1,-1
 347 1171 l 1,2,-1
 1093 1171 l 1,3,-1
 1393 0 l 1,0,-1
590 216 m 1,4,-1
 861 216 l 1,5,-1
 725 869 l 1,6,-1
 590 216 l 1,4,-1
EndSplineSet
Validated: 1
EndChar

StartChar: lozenge
Encoding: 9674 9674 315
Width: 1445
Flags: MW
LayerCount: 2
Fore
SplineSet
343 1536 m 1,0,-1
 1089 1536 l 1,1,-1
 1389 773 l 1,2,-1
 1089 1 l 1,3,-1
 343 1 l 1,4,-1
 57 773 l 1,5,-1
 343 1536 l 1,0,-1
721 303 m 1,6,-1
 857 773 l 1,7,-1
 721 1234 l 1,8,-1
 586 773 l 1,9,-1
 721 303 l 1,6,-1
EndSplineSet
Validated: 1
EndChar
